<svg width="191" height="51" viewBox="0 0 191 51" fill="none" xmlns="http://www.w3.org/2000/svg">
<path d="M10.6328 42.6726C22.7052 42.6726 39.4066 49.5515 51.5249 49.5515C60.1727 49.5515 68.6099 47.2176 73.4118 43.7768C73.7467 41.7571 73.925 39.6855 73.925 37.5674C73.925 17.0374 57.4774 0.390816 37.1866 0.390816C16.8959 0.390816 0.445557 17.0374 0.445557 37.5702C0.445557 39.6609 0.618405 41.7106 0.947897 43.7084C2.27127 43.4597 6.77342 42.6726 10.6355 42.6726H10.6328Z" fill="white"/>
<path d="M174.703 48.9765H91.3918V50H174.703V48.9765Z" fill="#E3A82B"/>
<path d="M93.5285 12.4477C93.5285 10.7357 93.4094 10.2829 92.2682 10.1891L91.4739 10.1329C91.3442 10.0284 91.3813 9.56488 91.5004 9.55416C92.8692 9.43092 94.5955 9.36929 96.9546 9.36929C98.5538 9.36929 100.076 9.4845 101.217 10.0177C102.308 10.5026 103.145 11.427 103.145 12.9086C103.145 14.5751 102.078 15.4297 100.558 16.0781C100.558 16.3085 100.762 16.3782 101.04 16.4237C102.409 16.6542 104.439 17.8116 104.439 20.2872C104.439 22.9691 102.258 24.7749 97.6906 24.7749C96.9546 24.7749 95.7128 24.7053 94.6458 24.7053C93.5788 24.7053 92.668 24.7508 91.7281 24.7749C91.5772 24.7053 91.5242 24.3355 91.6778 24.1962L92.1358 24.1266C93.4808 23.9176 93.5312 23.663 93.5312 21.2357V12.4477H93.5285ZM95.6096 15.5235C95.6096 16.1719 95.636 16.2174 96.9281 16.1719C99.5149 16.0781 100.91 15.3842 100.91 13.2113C100.91 11.0385 99.0568 10.09 97.1293 10.09C96.5707 10.09 96.1894 10.1356 95.9617 10.2293C95.7075 10.299 95.6069 10.4142 95.6069 10.8295V15.5235H95.6096ZM95.6096 20.89C95.6096 21.7233 95.6599 22.9021 96.1417 23.4112C96.6236 23.9417 97.3861 24.0596 98.146 24.0596C100.404 24.0596 102.128 23.1352 102.128 20.823C102.128 18.9958 101.114 16.8685 97.079 16.8685C95.7102 16.8685 95.6069 17.0078 95.6069 17.4686V20.89H95.6096Z" fill="#234075"/>
<path d="M122.068 14.7251C122.068 12.6299 122.026 12.295 120.747 12.1959L120.204 12.1557C120.074 12.078 120.117 11.7217 120.246 11.6627C121.329 11.7029 122.065 11.7217 122.976 11.7217C123.887 11.7217 124.581 11.7029 125.664 11.6627C125.793 11.7217 125.836 12.078 125.706 12.1557L125.166 12.1959C123.887 12.295 123.845 12.6299 123.845 14.7251V21.7581C123.845 23.8533 123.887 24.1292 125.166 24.2659L125.706 24.3248C125.836 24.4025 125.793 24.7588 125.664 24.8178C124.581 24.7776 123.845 24.7588 122.976 24.7588C122.065 24.7588 121.329 24.7776 120.246 24.8178C120.117 24.7588 120.072 24.4427 120.204 24.3248L120.747 24.2659C122.026 24.1265 122.068 23.8506 122.068 21.7581V14.7251Z" fill="#234075"/>
<path d="M134.088 21.7956C134.088 23.8694 134.128 24.1668 135.306 24.2659L135.955 24.3248C136.077 24.4025 136.037 24.7589 135.915 24.8178C134.758 24.7776 134.067 24.7589 133.254 24.7589C132.441 24.7589 131.732 24.7776 130.432 24.8178C130.31 24.7589 130.268 24.424 130.432 24.3248L131.163 24.2659C132.32 24.1668 132.42 23.8694 132.42 21.7956V12.9675C132.42 12.3567 132.42 12.3352 131.811 12.3352H130.694C129.82 12.3352 128.706 12.3754 128.197 12.8282C127.71 13.2622 127.506 13.6963 127.284 14.1919C127.12 14.3098 126.836 14.2107 126.757 14.0526C127.08 13.1631 127.387 11.8985 127.527 11.1108C127.588 11.0706 127.853 11.0519 127.914 11.1108C128.036 11.7431 128.706 11.7244 129.64 11.7244H137.861C138.957 11.7244 139.14 11.6842 139.444 11.1724C139.545 11.1322 139.77 11.1537 139.81 11.2314C139.587 12.0405 139.444 13.6427 139.505 14.2348C139.423 14.3929 139.079 14.3929 138.978 14.275C138.918 13.782 138.775 13.0506 138.47 12.8336C138.004 12.4987 137.231 12.3406 136.116 12.3406H134.676C134.067 12.3406 134.088 12.3593 134.088 13.0131V21.8037V21.7956Z" fill="#234075"/>
<path d="M142.791 14.7251C142.791 12.6299 142.748 12.295 141.47 12.1959L140.927 12.1557C140.797 12.078 140.839 11.7217 140.969 11.6627C142.052 11.7029 142.788 11.7217 143.699 11.7217C144.61 11.7217 145.301 11.7029 146.386 11.6627C146.516 11.7217 146.561 12.078 146.431 12.1557L145.889 12.1959C144.61 12.295 144.567 12.6299 144.567 14.7251V21.7581C144.567 23.8533 144.61 24.1292 145.889 24.2659L146.431 24.3248C146.561 24.4025 146.519 24.7588 146.386 24.8178C145.303 24.7776 144.567 24.7588 143.699 24.7588C142.788 24.7588 142.052 24.7776 140.969 24.8178C140.839 24.7588 140.797 24.4427 140.927 24.3248L141.47 24.2659C142.748 24.1265 142.791 23.8506 142.791 21.7581V14.7251Z" fill="#234075"/>
<path d="M152.5 25.0214C150.565 25.0214 149.344 24.507 148.907 24.29C148.632 23.856 148.33 22.452 148.285 21.525C148.401 21.3857 148.746 21.3482 148.838 21.4661C149.185 22.4735 150.128 24.4079 152.799 24.4079C154.735 24.4079 155.677 23.3228 155.677 22.1359C155.677 21.2678 155.471 20.2979 153.789 19.3709L151.602 18.1465C150.451 17.4954 149.114 16.3675 149.114 14.7492C149.114 12.8737 150.819 11.3519 153.813 11.3519C154.528 11.3519 155.357 11.4698 155.955 11.6091C156.254 11.6868 156.577 11.727 156.76 11.727C156.967 12.2013 157.176 13.3078 157.176 14.1383C157.083 14.2562 156.715 14.3152 156.599 14.1973C156.299 13.2488 155.677 11.9655 153.466 11.9655C151.256 11.9655 150.726 13.2488 150.726 14.1571C150.726 15.3038 151.833 16.1344 152.683 16.5872L154.525 17.5758C155.976 18.3474 157.406 19.4915 157.406 21.3696C157.406 23.5425 155.494 25.0241 152.5 25.0241V25.0214Z" fill="#234075"/>
<path d="M164.094 18.3796C163.085 18.3796 163.046 18.4198 163.046 19.0119V21.7983C163.046 23.872 163.151 24.148 164.327 24.2686L164.936 24.3275C165.063 24.4052 165.021 24.7615 164.894 24.8205C163.76 24.7803 163.046 24.7615 162.225 24.7615C161.322 24.7615 160.607 24.8017 159.789 24.8205C159.665 24.7615 159.622 24.4454 159.747 24.3275L160.104 24.2686C161.282 24.0703 161.322 23.872 161.322 21.7983V14.6876C161.322 12.6139 161.176 12.279 160.083 12.1986L159.537 12.1584C159.41 12.0807 159.453 11.7244 159.58 11.6654C160.61 11.6842 161.322 11.7244 162.227 11.7244C163.048 11.7244 163.76 11.7056 164.663 11.6654C164.79 11.7244 164.83 12.0807 164.706 12.1584L164.306 12.1986C163.088 12.3165 163.046 12.6139 163.046 14.6876V16.9596C163.046 17.5705 163.088 17.5919 164.094 17.5919H170.102C171.11 17.5919 171.153 17.5731 171.153 16.9596V14.6876C171.153 12.6139 171.11 12.3165 169.871 12.1986L169.471 12.1584C169.344 12.0807 169.387 11.7244 169.514 11.6654C170.48 11.7056 171.195 11.7244 172.056 11.7244C172.916 11.7244 173.589 11.7056 174.534 11.6654C174.661 11.7244 174.701 12.0807 174.576 12.1584L174.137 12.1986C172.919 12.3165 172.876 12.6139 172.876 14.6876V21.7983C172.876 23.872 172.919 24.1292 174.137 24.2686L174.64 24.3275C174.764 24.4052 174.724 24.7615 174.597 24.8205C173.589 24.7803 172.874 24.7615 172.056 24.7615C171.195 24.7615 170.438 24.7803 169.514 24.8205C169.387 24.7615 169.347 24.4454 169.471 24.3275L169.871 24.2686C171.153 24.0703 171.153 23.872 171.153 21.7983V19.0119C171.153 18.4198 171.11 18.3796 170.102 18.3796H164.094Z" fill="#234075"/>
<path d="M81.5057 29.1582C83.2319 27.7998 85.4321 27.13 87.8918 27.13C89.168 27.13 90.9657 27.3926 92.0778 27.7033C92.3611 27.7757 92.5279 27.8239 92.7397 27.7998C92.7635 28.349 92.8827 29.8494 93.0706 31.3069C92.9515 31.473 92.5967 31.4972 92.4326 31.3552C92.0778 29.7342 91.0134 27.8721 87.5847 27.8721C83.9653 27.8721 80.8914 30.187 80.8914 35.1222C80.8914 40.0573 84.0368 42.8973 87.9156 42.8973C90.9657 42.8973 92.3161 40.8933 92.8588 39.4867C93.0256 39.3688 93.3804 39.4143 93.4731 39.5831C93.3089 40.8236 92.692 42.3963 92.3372 42.8518C92.0539 42.9 91.7706 42.9938 91.5085 43.0902C90.9869 43.2805 89.2845 43.6395 87.7727 43.6395C85.644 43.6395 83.6106 43.2108 81.8843 42.0426C79.9912 40.7298 78.5244 38.5623 78.5244 35.4839C78.5244 32.8368 79.7079 30.5701 81.5057 29.1635V29.1582Z" fill="#234075"/>
<path d="M94.4419 36.8744C94.4419 32.9225 97.5158 29.9003 101.739 29.9003C106.473 29.9003 108.85 33.1985 108.85 36.6761C108.85 40.6655 105.694 43.5698 101.739 43.5698C97.1875 43.5698 94.4419 40.4297 94.4419 36.8717V36.8744ZM106.801 37.2897C106.801 34.029 105.305 30.5139 101.389 30.5139C99.258 30.5139 96.4912 31.9178 96.4912 36.2421C96.4912 39.1651 97.9659 42.959 102.004 42.959C104.463 42.959 106.801 41.1799 106.801 37.2897Z" fill="#234075"/>
<path d="M131.975 35.1757C131.975 33.9513 131.933 31.6793 131.581 31.0872C131.435 30.8488 131.065 30.7121 130.546 30.6719L130.029 30.6318C129.905 30.4924 129.947 30.2379 130.069 30.1575C130.855 30.1977 131.621 30.2165 132.428 30.2165C133.297 30.2165 133.855 30.195 134.602 30.1575C134.766 30.2567 134.748 30.5139 134.644 30.6318L134.147 30.6719C133.63 30.7121 133.236 30.889 133.111 31.1462C132.823 31.7972 132.823 34.0692 132.823 35.1757V37.4076C132.823 39.1276 132.531 40.9442 131.374 42.1284C130.485 43.0581 128.954 43.5698 127.421 43.5698C125.994 43.5698 124.565 43.3126 123.551 42.4847C122.454 41.6166 121.936 40.1725 121.936 37.8228V33.161C121.936 31.106 121.893 30.7711 120.694 30.6719L120.175 30.6318C120.05 30.5541 120.093 30.2165 120.215 30.1575C121.25 30.1977 121.954 30.2165 122.78 30.2165C123.606 30.2165 124.31 30.195 125.325 30.1575C125.449 30.2165 125.491 30.5514 125.367 30.6318L124.869 30.6719C123.67 30.7711 123.627 31.106 123.627 33.161V37.429C123.627 40.6093 124.663 42.7044 127.829 42.7044C130.829 42.7044 131.968 40.4512 131.968 37.4504V35.1784L131.975 35.1757Z" fill="#234075"/>
<path d="M156.027 32.7082C156.027 31.2319 155.934 30.8515 154.907 30.7738L154.173 30.7014C154.091 30.6264 154.046 30.2245 154.197 30.2138C155.434 30.12 156.988 30.0557 159.114 30.0557C160.554 30.0557 161.926 30.1549 162.956 30.613C163.938 31.0336 164.692 31.8294 164.692 33.1074C164.692 34.5435 163.731 35.2829 162.36 35.8402C162.36 36.0411 162.543 36.1001 162.794 36.1403C164.031 36.3385 165.86 37.3379 165.86 39.4733C165.86 41.7881 163.893 43.3448 159.776 43.3448C159.114 43.3448 157.991 43.2858 157.03 43.2858C156.069 43.2858 155.246 43.326 154.401 43.3448C154.263 43.2858 154.218 42.967 154.356 42.8464L154.766 42.7875C155.979 42.608 156.024 42.3883 156.024 40.2931V32.7108L156.027 32.7082ZM157.901 35.3606C157.901 35.9206 157.925 35.9608 159.09 35.9206C161.423 35.8402 162.68 35.2427 162.68 33.3673C162.68 31.4918 161.012 30.6746 159.273 30.6746C158.77 30.6746 158.425 30.7148 158.222 30.7952C157.991 30.8541 157.901 30.9533 157.901 31.315V35.366V35.3606ZM157.901 39.9903C157.901 40.7084 157.946 41.7265 158.38 42.1659C158.815 42.624 159.5 42.7232 160.186 42.7232C162.222 42.7232 163.776 41.9248 163.776 39.9287C163.776 38.3533 162.863 36.5181 159.225 36.5181C157.989 36.5181 157.899 36.6359 157.899 37.0378V39.9903H157.901Z" fill="#234075"/>
<path d="M118.755 24.3248L118.213 24.2766C118.104 24.2659 118.006 24.2498 117.913 24.2364C117.122 24.0944 116.804 23.379 116.431 22.7173L114.556 19.4164C114.233 18.8672 113.886 18.125 113.145 18.0205C115.064 17.7875 116.801 16.6649 116.801 14.7412C116.801 12.5174 114.628 11.5234 112.427 11.5234C111.109 11.5234 109.907 11.5582 108.565 11.5582C107.826 11.5582 106.944 11.5234 106.203 11.5234C105.792 11.5234 105.787 11.6091 105.787 11.8395C105.787 12.1825 105.93 12.086 106.367 12.1128C107.929 12.2012 107.871 12.496 107.871 13.8516V22.5083C107.871 23.7461 107.977 24.1158 106.69 24.2337C106.69 24.2337 106.494 24.2551 106.38 24.2659L105.835 24.3221C105.705 24.44 105.747 24.7562 105.877 24.8151C106.166 24.8044 106.679 24.783 106.679 24.783C107.392 24.7615 108.104 24.7079 108.813 24.7079C109.523 24.7079 110.214 24.7642 110.918 24.7856C111.167 24.7937 111.432 24.8044 111.721 24.8124C111.85 24.7535 111.895 24.4373 111.763 24.3194L111.215 24.2659C111.104 24.2525 110.91 24.2364 110.91 24.2364C109.613 24.148 109.692 23.7782 109.692 22.5056V19.245C109.692 19.0547 109.669 18.5457 109.809 18.3983C109.925 18.2697 110.132 18.2912 110.317 18.2912C112.075 18.2912 112.051 18.4599 112.885 19.9416L115.152 24.0676C115.337 24.3864 115.475 24.7883 115.938 24.7883H117.908C118.157 24.7963 118.416 24.8044 118.705 24.8151C118.835 24.7562 118.877 24.44 118.747 24.3221L118.755 24.3248ZM110.857 17.833C110.463 17.833 109.677 17.9804 109.677 17.4525V13.6641C109.677 12.1825 109.724 11.9708 111.482 11.9708C113.542 11.9708 114.813 13.0291 114.813 14.9769C114.813 15.8236 114.511 16.6059 113.749 17.1364C112.87 17.7499 111.922 17.8357 110.857 17.8357V17.833Z" fill="#234075"/>
<path d="M111.284 33.2279C111.284 31.1542 111.241 30.838 109.888 30.7389L109.351 30.6987C109.221 30.6183 109.266 30.2647 109.393 30.2057C110.595 30.2459 111.326 30.2647 112.184 30.2647C113.042 30.2647 113.751 30.2459 114.826 30.2057C114.956 30.2647 114.998 30.621 114.869 30.6987L114.352 30.7389C113.087 30.838 113.042 31.1542 113.042 33.2279V40.1029C113.042 41.346 113.105 41.8604 113.492 42.2355C113.727 42.4526 114.135 42.691 115.832 42.691C117.657 42.691 118.109 42.6106 118.453 42.4338C118.882 42.1953 119.441 41.4853 119.87 40.478C120 40.3788 120.407 40.4592 120.407 40.5958C120.407 40.8129 119.806 42.8276 119.505 43.3608C118.411 43.3206 116.37 43.3019 114.156 43.3019H112.181C111.278 43.3019 110.593 43.3206 109.391 43.3608C109.261 43.3019 109.218 42.9857 109.348 42.8678L109.992 42.8089C111.236 42.691 111.281 42.4124 111.281 40.3386V33.2279H111.284Z" fill="#234075"/>
<path d="M168.807 33.2655C168.807 31.173 168.764 30.8354 167.52 30.7362L166.993 30.6961C166.866 30.6157 166.908 30.262 167.035 30.2031C168.089 30.2433 168.807 30.262 169.691 30.262C170.575 30.262 171.25 30.2433 172.304 30.2031C172.431 30.262 172.474 30.6184 172.347 30.6961L171.82 30.7362C170.575 30.8354 170.533 31.1703 170.533 33.2655V40.2985C170.533 42.3936 170.575 42.6696 171.82 42.8062L172.347 42.8652C172.474 42.9456 172.431 43.2992 172.304 43.3582C171.25 43.318 170.533 43.2992 169.691 43.2992C168.804 43.2992 168.089 43.318 167.035 43.3582C166.908 43.2992 166.866 42.9831 166.993 42.8652L167.52 42.8062C168.764 42.6669 168.807 42.3909 168.807 40.2985V33.2655Z" fill="#234075"/>
<path d="M151.96 42.8035C151.851 42.7928 151.65 42.7767 151.65 42.7767C151.427 42.7553 151.229 42.7232 151.07 42.5463C150.797 42.2516 150.818 41.413 150.818 41.0781V32.4215C150.818 32.0437 150.728 31.2265 151.001 30.9318C151.139 30.7764 151.422 30.7523 151.676 30.7362C151.83 30.7228 151.835 30.7228 151.97 30.7175L152.513 30.6773C152.643 30.5969 152.6 30.2433 152.471 30.1843C152.182 30.195 151.917 30.1897 151.668 30.1977H149.365C149.113 30.1977 148.886 30.1977 148.751 30.471L144.056 40.3627L139.91 30.8059C139.772 30.471 139.751 30.1977 139.317 30.1977H136.921C136.672 30.1897 136.397 30.1923 136.105 30.1816C135.976 30.2406 135.931 30.5969 136.063 30.6746L136.606 30.7148C136.717 30.7228 136.921 30.7389 136.921 30.7389C137.821 30.7979 137.877 31.0015 137.795 31.958L137.088 41.2415C137.027 42.1739 136.976 42.6669 136.01 42.758C136.01 42.758 135.806 42.7848 135.695 42.7955L135.155 42.8544C135.025 42.9723 135.067 43.2885 135.197 43.3474C135.483 43.3367 135.992 43.3206 135.992 43.3206C136.481 43.2965 136.979 43.2536 137.477 43.2536C138.014 43.2536 138.552 43.3046 139.092 43.326C139.341 43.334 139.606 43.3447 139.894 43.3528C140.024 43.2938 140.069 42.9777 139.937 42.8598L139.396 42.8009C139.253 42.7901 139.095 42.7741 139.095 42.7741C137.702 42.6776 137.734 41.6836 137.821 40.4646L138.483 31.8294H138.642L143.13 42.4552C143.175 42.6026 143.243 42.8544 143.471 42.8544C143.678 42.8544 143.744 42.624 143.813 42.4767L148.87 31.5775H149.029V41.0727C149.029 41.4505 149.074 42.2248 148.687 42.5195C148.486 42.6723 147.827 42.7633 147.827 42.7633C147.737 42.7767 147.641 42.7901 147.533 42.8035L146.993 42.8625C146.863 42.9804 146.905 43.2965 147.035 43.3555C147.321 43.3447 147.827 43.3287 147.827 43.3287C148.56 43.3072 149.307 43.2536 150.053 43.2536C150.591 43.2536 151.642 43.3046 151.642 43.3046C151.893 43.3126 152.177 43.3394 152.468 43.3501C152.598 43.2912 152.643 42.975 152.51 42.8571L151.967 42.7982L151.96 42.8035Z" fill="#234075"/>
<path d="M187.168 42.8571L187.094 42.7982C186.985 42.7875 186.89 42.7741 186.8 42.758C185.955 42.5678 185.627 41.5389 185.315 40.8048L180.97 30.4013C180.927 30.2754 180.84 30.0075 180.668 30.0075C180.432 30.0075 180.366 30.2968 180.303 30.463L176.151 40.8477C176 41.2415 175.614 42.1954 175.333 42.4847C175.118 42.7071 174.84 42.75 174.541 42.7794C174.541 42.7794 174.308 42.8009 174.194 42.8143L173.683 42.8678C173.554 42.9857 173.596 43.3019 173.726 43.3608C174.014 43.3501 174.528 43.3313 174.528 43.3313C175.095 43.3233 175.664 43.251 176.233 43.251C176.712 43.251 177.189 43.3019 177.665 43.3233C177.665 43.3233 178.179 43.3421 178.468 43.3528C178.597 43.2938 178.64 42.9777 178.51 42.8598L177.967 42.8009C177.859 42.7901 177.673 42.7714 177.673 42.7714C177.173 42.7151 176.551 42.624 176.551 42.0694C176.551 41.697 176.723 41.2603 176.853 40.9307L177.499 39.3768C177.822 38.632 177.692 38.5462 178.552 38.5462H181.478C182.511 38.5462 182.36 38.5462 182.813 39.6045L183.501 41.1799C183.609 41.4505 183.803 41.906 183.803 42.1954C183.803 42.7151 183.241 42.75 182.715 42.7955C182.715 42.7955 182.54 42.8116 182.389 42.8223L181.867 42.8598C181.738 42.9777 181.78 43.2938 181.912 43.3528C182.201 43.3421 182.715 43.3206 182.715 43.3206C183.326 43.2992 183.943 43.251 184.533 43.251C185.288 43.251 186.04 43.3019 186.795 43.3233C187.041 43.3313 186.832 43.3394 187.118 43.3501C187.247 43.2912 187.29 42.975 187.16 42.8571H187.168ZM181.478 37.9675H178.944C178.857 37.9675 178.15 38.0506 178.15 37.8416C178.15 37.7773 178.195 37.654 178.216 37.5897L179.739 33.7772C179.784 33.6727 179.937 33.1476 180.112 33.1476C180.244 33.1476 180.422 33.6914 180.464 33.7772L181.963 37.3379C181.963 37.3808 182.116 37.7157 182.116 37.7987C182.116 38.0291 181.61 37.9648 181.478 37.9648V37.9675Z" fill="#234075"/>
<path d="M59.7498 28.3973L61.1742 28.9948L64.3328 26.7656L59.7498 28.3973Z" fill="#E3A82B"/>
<path d="M6.6828 25.9083L2.93902 24.5767L3.127 24.1132L7.34207 25.5358L7.3606 25.5251L7.91661 25.2063L8.13901 25.0643L3.54268 23.0843L3.73596 22.5967L13.9956 26.7951L14.3345 26.6531L4.15959 21.6376L4.38729 21.166L15.1712 26.2458L15.3195 26.1681L4.86386 20.1666L5.07832 19.7165L20.1779 28.0302C20.3023 27.7998 20.5592 27.3765 20.6942 27.1514C14.9541 21.6885 9.41254 17.5892 9.41254 17.5892C9.41254 17.5892 15.1103 21.45 22.1398 25.0402C22.3728 24.7482 22.5634 24.5124 22.8097 24.2337L9.92883 12.7559L10.2757 12.3968L20.673 21.3643L11.0408 11.6011L11.4009 11.2233L22.214 21.7983L12.1476 10.4946L12.5315 10.1436L21.8353 20.2256L13.3443 9.3961L13.7097 9.05852L24.5942 22.4628C24.8748 22.2163 25.1105 22.0314 25.4044 21.8037C22.1107 14.5938 18.5152 8.72897 18.5152 8.72897C18.5152 8.72897 22.3437 14.4304 27.5066 20.3997C27.8217 20.2202 28.1421 20.0488 28.4677 19.8853L28.4121 19.8505L20.7842 4.44486L21.237 4.24392L27.5569 16.4988L22.2431 3.79648L22.717 3.58215L28.8278 17.4874L23.6808 3.1883L24.1679 3.00879L29.0634 15.8825L25.1979 2.62298L25.6612 2.44883L30.75 18.894L30.7394 18.9369L30.7526 18.9315C31.0915 18.8163 31.4357 18.7145 31.7826 18.6207C31.396 10.7223 30.2416 3.96528 30.2416 3.96528C30.2416 3.96528 31.6714 10.6634 34.2343 18.1304C34.5917 18.0849 34.9518 18.0474 35.3119 18.0233L35.3013 18.0072H35.3463L35.3198 17.9697L33.9484 0.795735L34.4435 0.779659L35.7673 14.5376L35.5396 0.744829L36.0585 0.726074L36.5775 15.9361L37.0964 0.726074L37.6154 0.744829L37.3877 14.5376L38.7115 0.779659L39.2066 0.795735L37.8378 17.9724L37.8113 18.0099H37.8192V18.0152H37.8378C38.1926 18.0367 38.542 18.0742 38.8915 18.117C41.4518 10.658 42.8789 3.97064 42.8789 3.97064C42.8789 3.97064 41.7272 10.7062 41.338 18.5913C41.6875 18.685 42.0343 18.7868 42.3732 18.8994L47.4435 2.51313L47.9095 2.68728L44.0439 15.9442L48.9394 3.07041L49.4266 3.24992L44.2769 17.549L50.3877 3.64377L50.8616 3.85811L45.5451 16.5604L51.8651 4.30554L52.3178 4.50648L44.7164 19.8585L44.7296 19.8639C45.042 20.0193 45.3492 20.1827 45.6536 20.3542C50.7954 14.4036 54.6001 8.73433 54.6001 8.73433C54.6001 8.73433 51.0284 14.559 47.7453 21.734C48.0392 21.9591 48.3251 22.1895 48.6031 22.4306L59.3606 9.17104L59.7286 9.50863L51.2349 20.3354L60.5388 10.2535L60.9227 10.6044L50.8563 21.9108L61.6693 11.3359L62.0294 11.7136L52.3972 21.4741L62.7946 12.5067L63.1414 12.8657L50.4168 24.2123L50.4247 24.2203C50.6471 24.4722 50.8616 24.7294 51.0708 24.992C58.0579 21.4179 63.7027 17.5919 63.7027 17.5919C63.7027 17.5919 58.2168 21.6536 52.5058 27.0764C52.662 27.3417 52.9162 27.7918 53.0591 28.0651L67.9443 19.8639L68.1587 20.3167L56.276 27.1354L68.6353 21.316L68.863 21.7876L57.351 27.4649L57.5708 27.5426L69.284 22.7494L69.4799 23.2371L58.5927 27.9231L58.7966 28.0088L66.0512 25.5626L67.1447 24.791L67.5074 25.0723L69.8956 24.2659L70.0836 24.7294L68.0184 25.4662L71.0023 27.7703L71.9581 28.3089C68.1243 12.0673 53.6946 0 36.4822 0C19.2698 0 4.33433 12.4933 0.810303 29.1555C0.855313 29.1341 0.900323 29.1126 0.945333 29.0912L1.3822 28.8903L1.64961 28.7643L6.6828 25.9083Z" fill="#E3A82B"/>
<path d="M0.603666 43.6287C0.603666 43.6287 5.9837 42.541 10.4768 42.541C22.3118 42.541 38.6849 49.2846 50.5649 49.2846C59.2784 49.2846 67.78 46.8653 72.4107 43.3394C72.7735 41.2523 72.9615 39.1062 72.9615 36.9146C72.9615 33.946 72.612 31.0604 71.958 28.2955L67.0069 25.501L61.1953 29.6244L57.2873 28.0838C55.9635 28.7616 47.8008 34.2862 47.8008 34.2862L44.666 31.9901L41.3034 31.3176L36.821 28.0141L31.6792 31.5856C31.6792 31.5856 25.9417 34.956 25.7458 34.956C25.5499 34.956 18.8248 29.5627 18.8248 29.5627L15.7271 26.2592C15.2002 26.5968 13.0927 27.5747 13.0927 27.5747L12.9841 27.6042L10.9454 26.9666L8.46985 25.6376L0.945213 29.0912C0.900203 29.1126 0.855193 29.1341 0.810183 29.1555C0.280652 31.6579 0 34.2541 0 36.9146C0 39.208 0.209165 41.4505 0.603666 43.6287Z" fill="#234075"/>
</svg>
