<svg width="55" height="50" viewBox="0 0 55 50" fill="none" xmlns="http://www.w3.org/2000/svg">
<path fill-rule="evenodd" clip-rule="evenodd" d="M8.60741 35.5624C8.60741 35.9795 8.63394 36.5652 8.87588 36.8189C9.11677 37.0831 9.50303 37.1415 9.88505 37.1415C11.0226 37.1415 11.8928 36.6809 11.8928 35.5285C11.8928 34.6191 11.3813 33.56 9.34916 33.56C8.65834 33.56 8.60741 33.6301 8.60741 33.8593V35.5624ZM8.60741 32.8926C8.60741 33.2152 8.62014 33.2374 9.2717 33.2152C10.5748 33.1685 11.2794 32.8225 11.2794 31.7401C11.2794 30.6111 10.3467 30.1866 9.37357 30.1866C9.09342 30.1866 8.90135 30.2099 8.78568 30.2556C8.65834 30.2895 8.60741 30.3468 8.60741 30.5548V32.8926ZM7.55898 31.3602C7.55898 30.5081 7.50804 30.2895 6.93289 30.2439L6.52328 30.2099C6.42035 30.1399 6.43415 29.968 6.53708 29.9213C7.2279 29.8629 8.09699 29.829 9.28443 29.829C10.0899 29.829 10.8571 29.8852 11.4322 30.1516C11.9819 30.3925 12.4032 30.8541 12.4032 31.5905C12.4032 32.4203 11.8662 32.8448 11.1011 33.1685C11.1011 33.2831 11.202 33.3191 11.342 33.3414C12.0328 33.4571 13.0558 34.0322 13.0558 35.2643C13.0558 36.6003 11.9554 37.498 9.65478 37.498C9.28443 37.498 8.65834 37.4641 8.12246 37.4641C7.55898 37.4641 7.1239 37.4863 6.65062 37.498C6.57528 37.4641 6.54981 37.2794 6.62622 37.2104L6.85649 37.1754C7.53351 37.0714 7.55898 36.9451 7.55898 35.7365V31.3602Z" fill="white"/>
<path fill-rule="evenodd" clip-rule="evenodd" d="M21.9393 32.494C21.9393 31.4509 21.917 31.2843 21.2729 31.2355L21.0002 31.2153C20.9354 31.1771 20.9556 30.9988 21.0224 30.9691C21.5679 30.9893 21.9393 30.9988 22.3977 30.9988C22.8349 30.9988 23.2063 30.9893 23.7518 30.9691C23.8175 30.9988 23.8388 31.1771 23.773 31.2153L23.5013 31.2355C22.8561 31.2843 22.8349 31.4509 22.8349 32.494V35.9958C22.8349 37.039 22.8561 37.1769 23.5013 37.2448L23.773 37.2745C23.8388 37.3138 23.8175 37.491 23.7518 37.5197C23.2063 37.4995 22.8349 37.491 22.3977 37.491C21.9393 37.491 21.5679 37.4995 21.0224 37.5197C20.9556 37.491 20.9354 37.334 21.0002 37.2745L21.2729 37.2448C21.917 37.1769 21.9393 37.039 21.9393 35.9958V32.494Z" fill="white"/>
<path fill-rule="evenodd" clip-rule="evenodd" d="M27.9976 36.0154C27.9976 37.0479 28.0178 37.1954 28.6099 37.2452L28.9389 37.275C28.9994 37.3132 28.9792 37.4914 28.9177 37.5201C28.334 37.4999 27.987 37.4914 27.5774 37.4914C27.1689 37.4914 26.8102 37.4999 26.1565 37.5201C26.095 37.4914 26.0748 37.3238 26.1565 37.275L26.5237 37.2452C27.1073 37.1954 27.1593 37.0479 27.1593 36.0154V31.6179C27.1593 31.3133 27.1593 31.3038 26.8516 31.3038H26.2881C25.8498 31.3038 25.2853 31.324 25.0295 31.55C24.7844 31.7665 24.6825 31.9819 24.5701 32.2281C24.4873 32.2864 24.3451 32.2376 24.3037 32.1591C24.4671 31.7176 24.621 31.0873 24.6932 30.6936C24.7229 30.6745 24.8555 30.665 24.8863 30.6936C24.9489 31.0077 25.2853 30.9992 25.7564 30.9992H29.8992C30.4521 30.9992 30.5434 30.9791 30.6972 30.7233C30.7492 30.7042 30.8606 30.7138 30.8819 30.752C30.7694 31.1552 30.6972 31.9532 30.728 32.2472C30.6866 32.3268 30.5136 32.3268 30.4616 32.2673C30.4319 32.0222 30.3608 31.6582 30.2059 31.55C29.9714 31.3823 29.5819 31.3038 29.0195 31.3038H28.2937C27.987 31.3038 27.9976 31.3133 27.9976 31.6381V36.0154Z" fill="white"/>
<path fill-rule="evenodd" clip-rule="evenodd" d="M32.3809 32.494C32.3809 31.4509 32.3586 31.2843 31.7145 31.2355L31.4418 31.2153C31.3781 31.1771 31.3983 30.9988 31.4641 30.9691C32.0084 30.9893 32.3809 30.9988 32.8404 30.9988C33.2776 30.9988 33.6469 30.9893 34.1923 30.9691C34.2592 30.9988 34.2804 31.1771 34.2156 31.2153L33.9419 31.2355C33.2977 31.2843 33.2776 31.4509 33.2776 32.494V35.9958C33.2776 37.039 33.2977 37.1769 33.9419 37.2448L34.2156 37.2745C34.2804 37.3138 34.2592 37.491 34.1923 37.5197C33.6469 37.4995 33.2776 37.491 32.8404 37.491C32.3809 37.491 32.0084 37.4995 31.4641 37.5197C31.3983 37.491 31.3781 37.334 31.4418 37.2745L31.7145 37.2448C32.3586 37.1769 32.3809 37.039 32.3809 35.9958V32.494Z" fill="white"/>
<path fill-rule="evenodd" clip-rule="evenodd" d="M37.2734 37.6211C36.2992 37.6211 35.6837 37.3654 35.463 37.2571C35.324 37.0406 35.1733 36.3424 35.1489 35.8797C35.2084 35.8118 35.3824 35.7927 35.428 35.85C35.602 36.353 36.0785 37.3155 37.4251 37.3155C38.4003 37.3155 38.8757 36.7743 38.8757 36.1843C38.8757 35.7535 38.7707 35.2706 37.9239 34.808L36.8213 34.1978C36.2398 33.8731 35.5691 33.3128 35.5691 32.5063C35.5691 31.5725 36.4266 30.8148 37.9355 30.8148C38.2942 30.8148 38.7134 30.8732 39.0158 30.9421C39.1654 30.9814 39.3288 31.0005 39.4201 31.0005C39.5262 31.2371 39.6302 31.789 39.6302 32.2017C39.5835 32.2601 39.3978 32.2898 39.3395 32.2304C39.1898 31.7582 38.8757 31.1194 37.7615 31.1194C36.6239 31.1194 36.3788 31.7582 36.3788 32.2113C36.3788 32.7822 36.938 33.195 37.3668 33.421L38.2942 33.9123C39.0254 34.2965 39.7459 34.8663 39.7459 35.8012C39.7459 36.8825 38.7834 37.6211 37.2734 37.6211Z" fill="white"/>
<path fill-rule="evenodd" clip-rule="evenodd" d="M43.1161 34.3138C42.6078 34.3138 42.5865 34.3329 42.5865 34.6279V36.0148C42.5865 37.0473 42.6396 37.1863 43.2317 37.2447L43.5384 37.2744C43.6021 37.3137 43.5808 37.4909 43.5182 37.5196C42.9473 37.4994 42.5865 37.4909 42.1737 37.4909C41.7196 37.4909 41.3588 37.5111 40.946 37.5196C40.8834 37.4909 40.8611 37.3338 40.9248 37.2744L41.1041 37.2447C41.6973 37.1471 41.7196 37.0473 41.7196 36.0148V32.4737C41.7196 31.4423 41.6442 31.2735 41.0945 31.2364L40.8186 31.2152C40.755 31.177 40.7773 30.9987 40.8399 30.969C41.3588 30.9796 41.7196 30.9987 42.1737 30.9987C42.5865 30.9987 42.9473 30.9892 43.4015 30.969C43.4652 30.9987 43.4853 31.177 43.4227 31.2152L43.2222 31.2364C42.6078 31.2948 42.5865 31.4423 42.5865 32.4737V33.606C42.5865 33.9105 42.6078 33.9201 43.1161 33.9201H46.1436C46.6508 33.9201 46.672 33.9105 46.672 33.606V32.4737C46.672 31.4423 46.6508 31.2948 46.0258 31.2364L45.8263 31.2152C45.7626 31.177 45.7838 30.9987 45.8464 30.969C46.3335 30.9892 46.6932 30.9987 47.1273 30.9987C47.54 30.9987 47.9008 30.9892 48.3762 30.969C48.441 30.9987 48.4601 31.177 48.3985 31.2152L48.1757 31.2364C47.5613 31.2948 47.54 31.4423 47.54 32.4737V36.0148C47.54 37.0473 47.5613 37.1757 48.1757 37.2447L48.4304 37.2744C48.4919 37.3137 48.4717 37.4909 48.4081 37.5196C47.9008 37.4994 47.54 37.4909 47.1273 37.4909C46.6932 37.4909 46.3123 37.4994 45.8464 37.5196C45.7838 37.4909 45.7626 37.3338 45.8263 37.2744L46.0258 37.2447C46.672 37.1471 46.672 37.0473 46.672 36.0148V34.6279C46.672 34.3329 46.6508 34.3138 46.1436 34.3138H43.1161Z" fill="white"/>
<path fill-rule="evenodd" clip-rule="evenodd" d="M1.50155 39.6812C2.3717 39.0053 3.47955 38.671 4.71899 38.671C5.36206 38.671 6.26829 38.8026 6.82965 38.9565C6.97184 38.9926 7.05568 39.017 7.16285 39.0053C7.17453 39.278 7.23395 40.0261 7.32945 40.7498C7.27003 40.8326 7.09175 40.8453 7.00686 40.7753C6.82965 39.9667 6.2927 39.0403 4.56512 39.0403C2.74205 39.0403 1.19169 40.1917 1.19169 42.6493C1.19169 45.1441 2.77706 46.5226 4.73067 46.5226C6.26829 46.5226 6.94744 45.524 7.22334 44.8236C7.30611 44.7642 7.48438 44.7876 7.53214 44.8703C7.4483 45.489 7.13951 46.2721 6.96123 46.4982C6.81797 46.5226 6.67366 46.5693 6.54313 46.6159C6.27996 46.7115 5.42148 46.8897 4.65957 46.8897C3.58779 46.8897 2.56165 46.6764 1.69256 46.0939C0.73857 45.4412 0 44.361 0 42.8297C0 41.5096 0.595313 40.3816 1.50155 39.6812Z" fill="white"/>
<path fill-rule="evenodd" clip-rule="evenodd" d="M14.2469 43.7289C14.2469 42.1064 13.4924 40.3555 11.5219 40.3555C10.4458 40.3555 9.05147 41.0538 9.05147 43.2079C9.05147 44.6638 9.79641 46.5527 11.8317 46.5527C13.069 46.5527 14.2469 45.6677 14.2469 43.7289ZM8.02002 43.5231C8.02002 41.5557 9.56826 40.052 11.6959 40.052C14.0824 40.052 15.2794 41.6936 15.2794 43.4244C15.2794 45.4109 13.6888 46.8583 11.6959 46.8583C9.40271 46.8583 8.02002 45.2931 8.02002 43.5231Z" fill="white"/>
<path fill-rule="evenodd" clip-rule="evenodd" d="M26.9323 42.6771C26.9323 42.0669 26.91 40.9357 26.7339 40.6407C26.6606 40.523 26.4717 40.454 26.2128 40.4328L25.9507 40.4147C25.8892 40.3457 25.9093 40.2184 25.973 40.1791C26.3688 40.1993 26.7551 40.2078 27.1615 40.2078C27.5987 40.2078 27.881 40.1993 28.2556 40.1791C28.3405 40.2269 28.3288 40.3553 28.2768 40.4147L28.0263 40.4328C27.7653 40.454 27.5679 40.541 27.5043 40.6705C27.3589 40.9952 27.3589 42.1253 27.3589 42.6771V43.7882C27.3589 44.6445 27.2135 45.5486 26.6299 46.1397C26.182 46.6013 25.4095 46.857 24.6381 46.857C23.9186 46.857 23.1991 46.7297 22.6876 46.3169C22.1348 45.884 21.8748 45.1655 21.8748 43.9951V41.6733C21.8748 40.6514 21.8546 40.4826 21.2487 40.4328L20.9887 40.4147C20.9272 40.3744 20.9473 40.2078 21.0089 40.1791C21.531 40.1993 21.8854 40.2078 22.3035 40.2078C22.7311 40.2078 23.0728 40.1993 23.5843 40.1791C23.6469 40.2078 23.6681 40.3744 23.6055 40.4147L23.3562 40.4328C22.7513 40.4826 22.7311 40.6514 22.7311 41.6733V43.7988C22.7311 45.382 23.2511 46.4251 24.8471 46.4251C26.3571 46.4251 26.9323 45.3046 26.9323 43.8094V42.6771Z" fill="white"/>
<path fill-rule="evenodd" clip-rule="evenodd" d="M39.9761 45.0766C39.9761 45.43 39.9984 45.934 40.2159 46.1484C40.4324 46.3755 40.7751 46.4254 41.1168 46.4254C42.1324 46.4254 42.9081 46.0317 42.9081 45.0469C42.9081 44.2701 42.4507 43.366 40.6372 43.366C40.0228 43.366 39.9761 43.4244 39.9761 43.6207V45.0766ZM39.9761 42.7951C39.9761 43.071 39.9878 43.0901 40.5693 43.071C41.7334 43.0296 42.3605 42.7357 42.3605 41.8114C42.3605 40.8468 41.5275 40.4828 40.6605 40.4828C40.409 40.4828 40.2393 40.5019 40.1353 40.5423C40.0228 40.572 39.9761 40.6208 39.9761 40.798V42.7951ZM39.0401 41.4867C39.0401 40.7598 38.9945 40.572 38.482 40.5317L38.1159 40.5019C38.0246 40.4436 38.0363 40.2961 38.1275 40.2568C38.743 40.208 39.5187 40.1794 40.5809 40.1794C41.2994 40.1794 41.9849 40.2271 42.4963 40.4542C42.9887 40.6601 43.3644 41.0538 43.3644 41.683C43.3644 42.3908 42.8847 42.7559 42.2013 43.0296C42.2013 43.1294 42.2915 43.1591 42.4178 43.1793C43.0344 43.2769 43.947 43.7693 43.947 44.8219C43.947 45.9627 42.9643 46.7299 40.911 46.7299C40.5809 46.7299 40.0228 46.7002 39.5421 46.7002C39.0401 46.7002 38.6528 46.7193 38.2305 46.7299C38.1615 46.7002 38.1392 46.5421 38.2082 46.4837L38.4119 46.454C39.0179 46.3649 39.0401 46.2566 39.0401 45.2241V41.4867Z" fill="white"/>
<path fill-rule="evenodd" clip-rule="evenodd" d="M16.2916 34.0422C16.0932 34.0422 15.6963 34.1165 15.6963 33.8523V31.9666C15.6963 31.228 15.7207 31.123 16.6068 31.123C17.6435 31.123 18.2855 31.6504 18.2855 32.6192C18.2855 33.0416 18.1338 33.4299 17.7475 33.6952C17.305 33.9998 16.8275 34.0422 16.2916 34.0422ZM20.271 37.2745L19.9983 37.2501C19.941 37.2448 19.8943 37.2385 19.8465 37.231C19.4486 37.1599 19.2873 36.8044 19.0994 36.4734L18.1561 34.8296C17.9927 34.5558 17.8176 34.1865 17.4451 34.1324C18.4108 34.0168 19.2862 33.4597 19.2862 32.5014C19.2862 31.3936 18.19 30.8991 17.0832 30.8991C16.4179 30.8991 15.7663 30.9405 15.0893 30.9405C14.7158 30.9405 14.32 30.8991 13.9464 30.8991C13.7395 30.8991 13.7385 30.9405 13.7385 31.0561C13.7385 31.228 13.8095 31.1835 14.0281 31.1835C14.8452 31.1835 14.7858 31.383 14.7858 32.0568V36.3694C14.7858 36.9848 14.8399 37.1695 14.1916 37.2268C14.1916 37.2268 14.0939 37.2385 14.0377 37.2448L13.7618 37.2714C13.6971 37.3318 13.7183 37.4889 13.7841 37.5175C13.9295 37.5122 14.1894 37.5027 14.1894 37.5027C14.5471 37.4921 14.9057 37.4645 15.2633 37.4645C15.6252 37.4645 15.9701 37.4921 16.3256 37.5027V37.5037C16.4497 37.508 16.5824 37.5112 16.7288 37.5165C16.7946 37.4868 16.8169 37.3297 16.7511 37.2703L16.4741 37.2448C16.4179 37.2385 16.3213 37.231 16.3213 37.231C15.6666 37.1854 15.708 37.0008 15.708 36.3694V34.7458C15.708 34.6503 15.6963 34.3977 15.7663 34.3224C15.8247 34.2608 15.9276 34.2704 16.0221 34.2704C16.9092 34.2704 16.8954 34.3553 17.3167 35.0928L18.4585 37.1483C18.5519 37.3064 18.6209 37.508 18.8543 37.508H19.8465C19.9728 37.5112 20.1044 37.5144 20.2476 37.5197C20.3134 37.491 20.3357 37.334 20.271 37.2745Z" fill="white"/>
<path fill-rule="evenodd" clip-rule="evenodd" d="M16.506 41.7071C16.506 40.6746 16.4838 40.5165 15.8025 40.4677L15.5319 40.4475C15.4672 40.4083 15.4873 40.2321 15.5542 40.2024C16.1601 40.2215 16.5273 40.2321 16.9602 40.2321C17.3804 40.2321 17.7497 40.2215 18.2909 40.2024C18.3546 40.2321 18.3769 40.4083 18.3132 40.4475L18.0522 40.4677C17.4133 40.5165 17.3921 40.6746 17.3921 41.7071V45.1304C17.3921 45.7502 17.424 46.0059 17.6203 46.1937C17.7391 46.2998 17.9439 46.4187 18.7982 46.4187C19.7182 46.4187 19.9463 46.3794 20.1182 46.2913C20.3347 46.1725 20.617 45.8191 20.8335 45.3172C20.8982 45.2673 21.1041 45.3066 21.1041 45.3756C21.1041 45.4838 20.8006 46.4866 20.6499 46.753C20.097 46.7328 19.0698 46.7232 17.9556 46.7232H16.9602C16.506 46.7232 16.1601 46.7328 15.5542 46.753C15.4873 46.7232 15.4672 46.5662 15.5319 46.5078L15.8577 46.4771C16.4838 46.4187 16.506 46.2807 16.506 45.2482V41.7071Z" fill="white"/>
<path fill-rule="evenodd" clip-rule="evenodd" d="M45.4901 41.7263C45.4901 40.6853 45.4688 40.5166 44.8438 40.4667L44.5775 40.4476C44.5127 40.4084 44.535 40.2311 44.5987 40.2014C45.1293 40.2216 45.4901 40.2311 45.9368 40.2311C46.3602 40.2311 46.7221 40.2216 47.2537 40.2014C47.3174 40.2311 47.3386 40.4084 47.276 40.4476L47.0107 40.4667C46.3836 40.5166 46.3602 40.6853 46.3602 41.7263V45.2292C46.3602 46.2713 46.3836 46.4092 47.0107 46.4772L47.276 46.5079C47.3386 46.5461 47.3174 46.7233 47.2537 46.7541C46.7221 46.7329 46.3602 46.7233 45.9368 46.7233C45.4901 46.7233 45.1293 46.7329 44.5987 46.7541C44.535 46.7233 44.5127 46.5663 44.5775 46.5079L44.8438 46.4772C45.4688 46.4092 45.4901 46.2713 45.4901 45.2292V41.7263Z" fill="white"/>
<path fill-rule="evenodd" clip-rule="evenodd" d="M37.0017 46.4751C36.9466 46.4688 36.8457 46.4613 36.8457 46.4613C36.7343 46.4497 36.6314 46.4327 36.5529 46.3467C36.4149 46.2003 36.4276 45.7843 36.4276 45.6167V41.3062C36.4276 41.1184 36.381 40.712 36.5189 40.5655C36.5868 40.4881 36.7311 40.4764 36.8585 40.469V40.4668C36.9359 40.4626 36.937 40.4626 37.007 40.4573L37.2798 40.4382C37.3456 40.3989 37.3222 40.2228 37.2575 40.1941C37.1121 40.1973 36.9795 40.1962 36.8521 40.1994H35.6933C35.566 40.1994 35.4503 40.1994 35.3835 40.3352L33.0171 45.2612L30.9287 40.5029C30.8587 40.3352 30.8481 40.1994 30.6295 40.1994H29.4218C29.2956 40.1962 29.1566 40.1973 29.0112 40.1941C28.9454 40.2228 28.9242 40.3989 28.9889 40.4382L29.2616 40.4573C29.3179 40.4626 29.4187 40.47 29.4187 40.47C29.8728 40.4997 29.9026 40.5995 29.8612 41.0759L29.5057 45.7005C29.4738 46.1653 29.4494 46.4093 28.9624 46.455L28.8032 46.473L28.5305 46.5027C28.4647 46.5621 28.487 46.7192 28.5506 46.7489C28.6971 46.7436 28.9528 46.7362 28.9528 46.7362C29.1969 46.7234 29.4494 46.7022 29.7009 46.7022C29.9715 46.7022 30.2421 46.7277 30.5138 46.7383V46.7394C30.6379 46.7425 30.7716 46.7468 30.9191 46.7532C30.9828 46.7234 31.0051 46.5653 30.9404 46.507L30.6655 46.4762C30.5955 46.472 30.5148 46.4635 30.5148 46.4635C29.8134 46.4157 29.8283 45.9201 29.8718 45.3142L30.206 41.0144H30.2856L32.547 46.3054C32.5703 46.3786 32.6043 46.5027 32.7189 46.5027C32.8229 46.5027 32.8579 46.3881 32.8908 46.316L35.4397 40.8892H35.5204V45.6167C35.5204 45.8045 35.5426 46.1897 35.3484 46.3361C35.2455 46.4125 34.9144 46.4571 34.9144 46.4571C34.8667 46.4656 34.82 46.472 34.7669 46.4762L34.4931 46.507C34.4274 46.5664 34.4496 46.7234 34.5154 46.7532C34.6587 46.7479 34.9144 46.7404 34.9144 46.7404C35.2837 46.7298 35.6594 46.7022 36.0361 46.7022C36.3067 46.7022 36.8373 46.7277 36.8373 46.7277C36.9635 46.7309 37.1079 46.7447 37.2522 46.75C37.319 46.7213 37.3402 46.5632 37.2745 46.5048L37.0017 46.4751Z" fill="white"/>
<path fill-rule="evenodd" clip-rule="evenodd" d="M51.8747 44.0674H50.596C50.5514 44.0674 50.1981 44.1098 50.1981 44.0047C50.1981 43.974 50.2172 43.9114 50.231 43.8806L50.9961 41.9822C51.0183 41.9291 51.0969 41.6681 51.186 41.6681C51.2518 41.6681 51.3409 41.9397 51.3643 41.9822L52.1177 43.7554C52.1177 43.7766 52.1962 43.9432 52.1962 43.9846C52.1962 44.0992 51.9405 44.0674 51.8747 44.0674ZM54.7409 46.5017L54.7038 46.473C54.6507 46.4666 54.6008 46.4603 54.5552 46.4529C54.1307 46.3584 53.9663 45.8448 53.8071 45.4798L51.619 40.2992C51.5967 40.2376 51.5532 40.1039 51.4672 40.1039C51.3473 40.1039 51.3155 40.2472 51.2815 40.3299L49.1921 45.5021C49.1146 45.6973 48.9204 46.1706 48.7793 46.317C48.6711 46.4274 48.531 46.4486 48.3803 46.4645C48.3803 46.4645 48.2636 46.4741 48.2063 46.4804L47.9505 46.507C47.8837 46.5653 47.907 46.7234 47.9717 46.7532C48.1171 46.7479 48.376 46.7383 48.376 46.7383C48.6626 46.7351 48.948 46.698 49.2356 46.698C49.4754 46.698 49.7163 46.7234 49.9561 46.7351C49.9561 46.7351 50.2161 46.7436 50.3615 46.7489C50.4283 46.7203 50.4485 46.5622 50.3838 46.5038L50.1111 46.4741C50.0559 46.4677 49.9614 46.4592 49.9614 46.4592C49.711 46.4327 49.3969 46.3881 49.3969 46.1101C49.3969 45.9244 49.4828 45.7079 49.5486 45.5424L49.8733 44.7677C50.0368 44.3974 49.972 44.3549 50.405 44.3549H51.8789C52.3989 44.3549 52.3225 44.3549 52.5507 44.8823L52.8977 45.6665C52.9518 45.8002 53.0483 46.0273 53.0483 46.1706C53.0483 46.4316 52.7661 46.4486 52.5008 46.4709C52.5008 46.4709 52.4148 46.4783 52.3384 46.4847L52.0742 46.5038C52.0095 46.5622 52.0307 46.7203 52.0965 46.7489C52.2429 46.7436 52.5008 46.733 52.5008 46.733C52.8096 46.7224 53.1205 46.698 53.4176 46.698C53.7975 46.698 54.1774 46.7234 54.5563 46.7351C54.6804 46.7383 54.5754 46.7415 54.7197 46.7479C54.7855 46.7192 54.8078 46.5611 54.7409 46.5017Z" fill="white"/>
<path fill-rule="evenodd" clip-rule="evenodd" d="M6.57129 50H48.4342V49.5055H6.57129V50Z" fill="#E3A82B"/>
<path fill-rule="evenodd" clip-rule="evenodd" d="M48.003 16.1511C45.4297 6.24303 36.4703 0.0872192 27.4631 0.0872192C18.0188 0.0872192 9.16125 6.38947 6.71315 16.739C6.37146 18.1843 6.19849 19.793 6.19849 21.3338C6.19849 22.7027 6.33856 23.8541 6.58581 25.1508C6.77364 25.1105 6.8511 25.0914 7.06015 25.049C7.06015 25.049 7.06015 25.0479 7.05909 25.0479C8.9851 24.7168 12.037 24.3199 14.6443 24.6478C18.7849 25.1721 21.3731 25.8692 25.7462 26.8572C30.1182 27.8462 33.3388 28.7758 38.0567 28.2526C42.1868 27.7953 45.0127 27.1511 47.7653 25.3397C47.7653 25.3387 47.7653 25.3387 47.7674 25.3365C47.7696 25.3355 47.9882 25.1933 47.9882 25.1933C48.0359 25.1604 48.2237 25.0203 48.2832 24.9768C48.4848 23.7968 48.6365 22.6221 48.6365 21.3837C48.6365 19.6476 48.3914 17.7662 48.003 16.1511Z" fill="white"/>
<path fill-rule="evenodd" clip-rule="evenodd" d="M6.59903 16.8071C6.42076 17.6529 6.0918 19.2425 6.0918 21.3691C6.0918 22.7454 6.23505 23.9031 6.48124 25.2052V25.2062C6.67013 25.1659 6.74972 25.1468 6.95983 25.1044C6.95983 25.1044 6.95983 25.1033 6.95877 25.1022C8.89539 24.769 11.9622 24.37 14.5811 24.7011C18.743 25.2275 21.345 25.9289 25.7392 26.92C30.1335 27.9133 33.3711 28.8481 38.1103 28.3239C42.2615 27.8623 45.1023 27.2161 47.8709 25.3951C47.8709 25.3951 47.8709 25.393 47.8719 25.393C47.874 25.3909 48.0937 25.2497 48.0937 25.2497C48.1404 25.2147 48.3293 25.0746 48.3898 25.0311C48.5914 23.8448 48.7453 22.6637 48.7453 21.4189C48.7453 19.7497 48.5203 17.9468 48.1574 16.371L45.2201 14.7336L41.8222 17.117L39.5386 16.2256C38.764 16.6182 33.9908 19.8081 33.9908 19.8081L32.1593 18.4827L30.194 18.0943L27.574 16.1863L24.5677 18.2492C24.5677 18.2492 21.2134 20.1965 21.0977 20.1965C20.981 20.1965 17.0504 17.0809 17.0504 17.0809L15.2401 15.1719C14.9313 15.3682 13.6982 15.9327 13.6982 15.9327L13.6356 15.9497L12.4439 15.5804L10.9965 14.8121L6.59903 16.8071Z" fill="#65799E"/>
<path fill-rule="evenodd" clip-rule="evenodd" d="M44.7627 14.6911L40.448 16.286L41.8095 16.7508L44.7627 14.6911Z" fill="#E3A82B"/>
<path fill-rule="evenodd" clip-rule="evenodd" d="M10.3504 14.7459L7.92779 13.8535C7.95538 13.7792 7.98297 13.7049 8.01162 13.6306L10.6751 14.5613L10.9309 14.4021L12.2022 15.094L13.7844 15.6691L13.8788 15.6278L8.23553 13.0884C8.2663 13.0141 8.2992 12.9388 8.33316 12.8666L14.5494 15.3487L14.6375 15.3041L8.57829 12.3275C8.61224 12.2575 8.64832 12.1864 8.68228 12.1164L15.2626 14.9868L8.95075 11.5847C8.98471 11.52 9.01867 11.4553 9.05369 11.3916L17.9176 16.083C18.0449 15.8474 18.1818 15.6161 18.324 15.3901L11.1017 9.74785L18.8111 14.6929C19 14.4414 19.2016 14.1984 19.4117 13.966L11.9963 7.24562C12.0504 7.1862 12.1045 7.1289 12.1576 7.07053L17.5462 11.8309L12.564 6.64713C12.6213 6.58876 12.6776 6.53146 12.7349 6.47522L18.3558 11.8712L13.1614 6.06561C13.2188 6.01255 13.2761 5.95843 13.3344 5.90431L18.3675 11.0382L13.779 5.50744C13.8353 5.46075 13.8905 5.41406 13.9478 5.3663L20.388 13.012C20.6363 12.7966 20.8941 12.5918 21.1616 12.4008L16.5678 4.44415L21.8725 11.9317C22.1612 11.7588 22.4572 11.5996 22.7597 11.4542L18.4163 2.47145C18.4906 2.43643 18.567 2.40141 18.6424 2.36533L21.8609 8.80978L19.1782 2.12657C19.2525 2.09474 19.3257 2.0629 19.4011 2.03319L22.5963 9.14935L19.9518 1.81353C20.024 1.78594 20.0983 1.75623 20.1704 1.7297L22.9188 8.38319L20.7329 1.5302C20.7986 1.50897 20.8613 1.48881 20.9281 1.46865L24.0256 10.9406C24.3122 10.844 24.6061 10.7591 24.9043 10.6859L23.6245 1.58962L25.7373 10.5204C26.0896 10.462 26.4472 10.4259 26.8091 10.4036L26.148 0.481768C26.2233 0.477523 26.2965 0.472217 26.3719 0.466911L27.0563 7.60217L26.9555 0.447811C27.0383 0.44675 27.121 0.445689 27.2028 0.445689L27.4946 7.9566L27.7885 0.447811C27.8681 0.450994 27.9466 0.452056 28.0262 0.453117L27.9626 7.60217L28.6173 0.480707C28.6905 0.486013 28.7648 0.489196 28.8401 0.494502L28.1642 10.4079C28.508 10.4302 28.8507 10.4673 29.184 10.5214L31.2904 1.61934L30.0148 10.688C30.3279 10.7634 30.6346 10.8536 30.9349 10.9565L34.0229 1.52171C34.095 1.54718 34.1672 1.57264 34.2404 1.59811L32.0767 8.38319L34.7954 1.79973C34.8686 1.82838 34.945 1.85597 35.0182 1.88463L32.3982 9.14935L35.5594 2.10747C35.6358 2.14037 35.709 2.17326 35.7854 2.20722L33.1368 8.80978L36.3139 2.4481C36.3808 2.481 36.4487 2.51283 36.5155 2.54573L32.1966 11.4733C32.4905 11.6176 32.7781 11.7715 33.0551 11.9402L38.3471 4.47386L33.7639 12.4082C34.0398 12.6056 34.3019 12.8157 34.5577 13.0375L40.9416 5.45862C41.0011 5.50744 41.0584 5.55837 41.1178 5.60931L36.5771 11.0828L41.5539 6.00406C41.6134 6.05924 41.6749 6.11336 41.7311 6.16854L36.5877 11.9147L42.1482 6.57709C42.2065 6.63439 42.2639 6.69488 42.3212 6.75324L37.3984 11.8755L42.7202 7.17346C42.77 7.22864 42.8199 7.28276 42.8687 7.33794L35.5265 13.9914C35.7335 14.2228 35.9319 14.4637 36.1208 14.712L43.8131 9.77756L36.6025 15.4092C36.7479 15.6352 36.8816 15.8676 37.009 16.1053L45.7678 11.468C45.8039 11.537 45.84 11.6049 45.8771 11.6728L39.6736 15.0155L46.1403 12.197C46.1742 12.2681 46.2071 12.3413 46.2422 12.4145L39.3732 15.7912L46.483 12.9441C46.5159 13.0194 46.5499 13.0958 46.5828 13.1712L40.1383 16.0586L46.7993 13.706C46.8247 13.7739 46.8502 13.8429 46.8778 13.9119L45.4526 14.4361L47.5675 16.0448L48.1533 16.3727V16.3737C47.9305 15.4792 47.5909 14.3873 47.2577 13.5426C44.0816 5.4894 36.0741 0 27.3906 0C17.2151 0 8.71093 7.14799 6.61832 16.6942H6.61726C6.61619 16.7038 6.60346 16.76 6.59497 16.8131L7.01201 16.6178L10.3504 14.7459Z" fill="#E3A82B"/>
</svg>
