<svg width="181" height="50" viewBox="0 0 181 50" fill="none" xmlns="http://www.w3.org/2000/svg">
<path d="M167.816 47.1264H86.2068V48.2759H167.816V47.1264Z" fill="#E3A82B"/>
<path d="M9.51925 41.9135C20.8143 41.9135 36.5341 48.2759 47.9456 48.2759C56.0966 48.2759 64.0147 46.078 68.556 42.9546C71.4671 24.2146 58.5419 6.74704 39.7945 3.85507C21.0471 0.963086 3.34775 13.8035 0.436663 32.4278C-0.145554 35.8982 -0.145554 39.4842 0.436663 42.9546C3.46419 42.3762 6.49172 42.0292 9.51925 41.9135Z" fill="white"/>
<path d="M56.3218 29.2465L57.7737 29.8851L60.9195 27.5862L56.3218 29.2465Z" fill="#E3A82B"/>
<path d="M6.50554 26.8602L2.97278 25.5805L3.2007 25.1151L7.07534 26.5112L7.64514 26.1622H7.87306L3.54258 24.1844L3.7705 23.719L13.3431 27.6746H13.685L4.11238 22.7883L4.3403 22.323L14.4827 27.0929H14.5967L4.79614 21.3923L5.02406 20.9269L19.1551 28.838L19.611 28.0236C16.1922 24.7661 12.6594 21.7413 9.01266 18.9491C12.8873 21.5086 16.8759 23.8354 20.9785 25.9295L21.5483 25.1151L9.58246 14.4119L9.92434 14.0628L19.611 22.5557L10.6081 13.3648L10.95 13.0158L21.0924 23.021L11.6337 12.3177L11.9756 11.9687L20.7506 21.5086L12.7733 11.2707L13.1152 10.9217L23.3716 23.6027L24.1694 23.021C22.232 18.7164 20.0668 14.6445 17.6736 10.5726C20.2947 14.4119 23.1437 18.1347 26.1067 21.6249L27.0184 21.1596L19.7249 6.61709L20.1808 6.38442L26.1067 18.0184L21.0924 5.91906L21.5483 5.68638L27.2463 18.8328L22.46 5.33736H22.9158L27.4742 17.553L23.8275 4.872H24.2833L29.0696 20.4615L30.0953 20.2289C29.8674 15.4589 29.4115 10.689 28.6138 6.0354C29.6394 10.5726 30.893 14.9936 32.3745 19.4145H33.2862L32.0326 3.1269H32.4884L33.742 16.157L33.5141 3.1269H33.9699L34.4258 17.553L34.8816 3.1269H35.5654L35.3375 16.157L36.4771 3.1269H36.9329L35.6793 19.4145H36.705C38.1865 15.1099 39.44 10.689 40.4657 6.15174C39.7819 10.689 39.2121 15.3426 38.9842 19.9962L39.8959 20.3452L44.6822 4.75566H45.138L41.4913 17.4367L46.0497 5.22102H46.5055L41.7192 18.9491L47.4172 5.80272L47.8731 6.0354L42.9728 18.0184L48.8987 6.38442L49.3545 6.61709L42.1751 21.1596L43.0867 21.6249C46.0497 18.1347 48.8987 14.5282 51.5198 10.689C49.1266 14.6445 47.0753 18.8328 45.138 23.021L45.9357 23.719L55.8503 11.038L56.1922 11.387L48.2149 21.6249L56.9899 12.0851L57.3318 12.4341L47.8731 23.1373L58.0155 13.1321L58.3574 13.4811L49.3545 22.672L59.0412 14.1792L59.383 14.5282L47.5312 25.2315L48.101 25.9295C52.2035 23.8354 56.0782 21.5086 59.9528 18.9491C56.3061 21.7413 52.7733 24.7661 49.4685 27.9073L50.0383 28.838L63.9414 21.0432L64.1694 21.5086L53.0013 27.9073L64.6252 22.4393L64.8531 22.9047L54.0269 28.2563H54.2548L65.195 23.8354L65.4229 24.3007L55.1665 28.7217H55.3944L62.232 26.3949L63.2577 25.6968L63.5996 25.9295L65.8788 25.2315L66.1067 25.6968L64.1694 26.3949L66.9044 28.6053L67.8161 29.0707C63.3716 10.34 44.9101 -1.17767 26.5625 3.24324C13.799 6.38442 3.88446 16.7387 1.14941 29.8851L1.60525 29.6524H1.83317L6.50554 26.8602Z" fill="#E3A82B"/>
<path d="M0.537886 43.0707C3.64033 42.5049 6.74277 42.1654 9.84522 42.0523C20.991 42.0523 36.5032 48.2759 47.764 48.2759C56.0371 48.2759 64.0805 46.0127 68.4469 42.8444C69.2513 38.205 69.1364 33.5656 67.9873 29.0394L63.2762 26.4368L57.7607 30.1709L54.0838 28.8131C52.8198 29.3788 45.1211 34.4708 45.1211 34.4708L42.1336 32.3209L39.0312 31.7551L34.7797 28.6999L29.9536 31.9814L24.3233 35.0366C24.0935 35.0366 17.7737 30.0578 17.7737 30.0578L14.9011 27.1157L12.3731 28.3604H12.2582L10.3048 27.7947L8.00673 26.5499L0.882602 29.7183H0.767697C-0.151546 34.1314 -0.266451 38.6576 0.537886 43.0707Z" fill="#65799E"/>
<path d="M114.692 24.3799H113.987C113.752 24.7308 113.752 25.0817 113.987 25.4325H119.627C119.744 25.3156 119.862 25.0817 119.862 24.8477C119.862 24.6138 119.744 24.4969 119.627 24.3799H118.922C117.982 24.3799 117.982 24.146 117.982 22.2746V15.7249C117.982 13.8536 117.982 13.3858 118.922 13.3858H119.509C119.744 13.3858 119.862 13.3858 119.862 13.0349C119.862 12.684 119.627 12.567 119.392 12.567H113.987C113.87 12.684 113.752 12.9179 113.752 13.1518C113.752 13.2688 113.87 13.3858 113.987 13.3858H114.692C115.632 13.3858 115.632 13.7366 115.632 15.491V22.1577C115.632 24.263 115.632 24.263 114.692 24.3799ZM100.711 24.3799H99.8886C99.6536 24.7308 99.6536 25.0817 99.8886 25.4325H105.998C106.233 25.0817 106.233 24.7308 105.998 24.3799H104.941C104.118 24.3799 104.118 24.029 104.118 23.2103V19.4676H104.353C105.763 19.4676 105.763 19.4676 106.35 20.6372L108.7 24.7308C108.935 25.1986 109.288 25.4325 109.758 25.4325H112.577C112.812 25.1986 112.93 24.7308 112.695 24.3799H111.755C111.285 24.263 111.167 24.029 110.815 23.5612L108.935 20.4033L108.23 19.1168C109.875 18.8828 111.05 17.4793 111.167 15.8419C111.167 13.3858 108.7 12.567 106.585 12.567H99.8886V12.801C99.8886 13.0349 99.8886 13.3858 100.124 13.5027H100.828C101.886 13.6197 101.886 13.6197 101.886 14.6723V22.9764C101.651 24.263 101.533 24.3799 100.711 24.3799ZM104.118 13.7366H105.528C106.938 13.7366 108.348 14.4384 108.348 15.9589C108.348 16.6606 108.113 17.3624 107.525 17.7132C106.82 18.0641 106.115 18.298 105.293 18.298H104.118V13.7366ZM178.84 42.0407H178.37C177.901 41.9238 177.783 41.339 177.548 40.7542V40.5203L173.436 30.8127C173.436 30.8127 173.201 30.1109 172.849 30.1109C172.496 30.1109 172.144 30.6957 172.026 30.9296L168.032 40.8711C167.797 41.4559 167.562 42.0407 167.092 42.0407H166.034C165.799 42.3916 165.682 42.7425 165.917 43.0934H170.499C170.734 42.7425 170.734 42.3916 170.499 42.0407H169.676C169.089 42.0407 169.089 41.9238 169.089 41.6899C169.089 41.4559 169.206 41.339 169.324 41.1051L169.911 39.5846C169.911 39.5846 170.146 38.8828 170.499 38.8828H173.671C174.258 38.8828 174.376 39.7015 174.376 39.7015L174.846 40.9881L175.198 41.8068C175.198 41.9238 175.081 42.1577 174.376 42.1577H173.318C173.083 42.5086 173.083 42.8594 173.318 43.2103H178.958C179.31 43.2103 179.31 42.9764 179.31 42.5086C179.31 42.2746 179.193 42.1577 178.958 42.1577L178.84 42.0407ZM173.318 37.3624H170.499L171.909 33.6197L173.436 37.3624H173.318ZM120.449 15.2571C120.566 15.491 120.801 15.608 121.036 15.608C121.036 15.608 121.389 15.7249 121.506 15.491C121.741 15.0232 121.976 14.5554 122.211 14.2045C122.799 13.7366 123.504 13.5027 124.209 13.6197H125.501V23.2103C125.501 24.029 125.501 24.3799 124.796 24.3799H123.739C123.504 24.7308 123.504 25.0817 123.739 25.4325H129.613C129.73 25.3156 129.848 25.0817 129.848 24.8477C129.848 24.6138 129.73 24.4969 129.613 24.3799H128.791C127.968 24.3799 127.968 24.029 127.968 22.6255V13.6197H129.613C130.318 13.5027 130.905 13.8536 131.375 14.3214C131.61 14.5554 131.728 15.0232 131.728 15.3741H132.903C132.903 14.5554 132.903 13.6197 133.138 12.801V12.3331H132.08C131.845 12.684 131.845 12.684 130.905 12.684H123.504C122.564 12.684 122.329 12.684 122.211 12.3331H121.154C121.036 13.1518 120.801 13.9706 120.449 14.7893C120.449 14.9062 120.449 15.1401 120.449 15.2571ZM141.949 25.1986C143.124 25.6665 144.299 25.7834 145.474 25.7834H145.709C148.764 25.7834 150.761 24.146 150.761 21.9238C150.761 19.7016 149.821 18.9998 147.706 17.9472L145.944 17.0115C145.121 16.5437 144.181 15.8419 144.181 15.0232C144.181 14.2045 145.004 13.2688 146.531 13.2688H146.884C148.059 13.2688 148.998 14.0875 149.233 15.1401H150.526V14.9062C150.526 14.0875 150.408 13.2688 150.056 12.4501H148.998L146.884 12.2162C143.477 12.3331 141.949 14.0875 142.067 15.9589C142.302 17.4793 143.242 18.8828 144.769 19.4676L146.884 20.6372C148.411 21.4559 148.529 22.2746 148.529 22.9764C148.529 23.6782 147.824 24.8477 146.061 24.8477C144.534 24.8477 143.124 23.9121 142.654 22.3916C142.537 22.1577 142.419 22.0407 142.184 22.0407H141.362C141.362 22.9764 141.597 23.9121 141.949 24.7308V25.1986ZM134.9 24.4969H134.43C134.195 24.7308 134.195 25.1986 134.43 25.4325H140.069C140.187 25.3156 140.304 25.0817 140.304 24.8477C140.304 24.6138 140.187 24.4969 140.069 24.3799H139.364C138.425 24.263 138.425 24.263 138.425 22.3916V15.8419C138.425 13.8536 138.425 13.5027 139.364 13.5027H139.952C140.187 13.3858 140.422 13.3858 140.304 13.0349C140.304 12.801 140.069 12.567 139.834 12.567H134.43C134.313 12.684 134.195 12.9179 134.195 13.1518C134.195 13.3858 134.313 13.3858 134.43 13.5027H135.135C136.075 13.5027 136.075 13.6197 136.075 15.608V22.1577C135.957 24.263 135.957 24.263 135.017 24.3799L134.9 24.4969ZM152.288 13.6197H152.993C153.698 13.6197 153.816 13.7366 153.816 15.7249V22.8594C153.816 24.263 153.698 24.3799 152.993 24.3799H152.288C152.053 24.7308 152.053 25.0817 152.288 25.4325H157.693C157.81 25.3156 157.928 25.0817 157.928 24.8477C157.928 24.6138 157.81 24.4969 157.693 24.3799H157.105C156.518 24.3799 156.283 24.146 156.283 22.3916V19.8185C156.283 19.7015 156.283 19.7016 156.283 19.5846H163.097C163.097 19.7016 163.097 22.8594 163.097 22.8594C163.097 22.8594 163.097 24.3799 162.275 24.3799H161.687C161.452 24.7308 161.452 25.0817 161.687 25.4325H166.974C167.092 25.3156 167.209 25.0817 167.209 24.8477C167.209 24.6138 167.092 24.4969 166.974 24.3799H166.269C165.447 24.3799 165.447 24.263 165.447 22.5086V15.608C165.447 13.7366 165.447 13.7366 166.269 13.6197H166.739C166.974 13.6197 167.209 13.2688 167.092 13.0349C167.092 12.801 166.857 12.567 166.622 12.567H161.57C161.452 12.684 161.335 12.801 161.335 13.0349C161.335 13.2688 161.452 13.5027 161.57 13.6197H162.04C162.98 13.6197 162.98 13.7366 162.98 15.608C162.98 15.608 162.98 17.9472 162.98 18.0641H156.165C156.165 17.9472 156.165 15.7249 156.165 15.7249C156.165 13.8536 156.165 13.6197 156.87 13.6197H157.458C157.81 13.6197 157.81 13.3858 157.81 13.0349C157.81 12.684 157.81 12.567 157.34 12.567H152.288C152.171 12.684 152.053 12.801 152.053 13.0349C152.053 13.2688 152.171 13.5027 152.288 13.6197ZM164.272 31.1635H164.859C165.094 31.1635 165.212 30.9296 165.212 30.6957C165.212 30.4618 164.859 30.2279 164.624 30.2279H159.102C158.867 30.4618 158.867 30.6957 158.867 30.9296C158.867 31.0466 158.985 31.1635 159.102 31.2805H159.807C160.747 31.2805 160.747 31.3975 160.747 33.5027V40.1694C160.747 42.0407 160.747 42.0407 159.807 42.1577H159.102C158.867 42.5086 158.867 42.8594 159.102 43.2103H164.859C164.977 43.0934 165.094 42.8594 165.094 42.6255C165.094 42.3916 164.977 42.2747 164.859 42.1577H164.154C163.215 42.0407 163.215 42.0407 163.215 40.1694V33.3858C163.215 31.3975 163.215 31.1635 163.919 31.1635H164.272ZM114.457 39.9355H113.517C113.282 40.6372 112.812 41.222 112.225 41.6899C111.52 41.9238 110.932 41.9238 110.228 41.9238H109.993C109.288 42.0407 108.7 41.9238 108.113 41.5729C107.878 41.339 107.643 41.1051 107.643 39.9355V33.2688C107.643 31.3975 107.878 31.2805 108.818 31.2805H109.405C109.64 31.2805 109.758 31.1635 109.758 30.6957C109.758 30.4618 109.523 30.2279 109.288 30.2279H103.531C103.413 30.3448 103.296 30.5787 103.296 30.8127C103.296 31.0466 103.413 31.1635 103.531 31.2805H104.236C105.293 31.2805 105.293 31.3975 105.293 33.3858V40.1694C105.293 42.0407 105.293 42.1577 104.353 42.1577H103.531C103.296 42.5086 103.296 42.8594 103.531 43.2103H113.87C114.222 42.3916 114.575 41.4559 114.81 40.5203C114.927 40.2863 114.692 40.0524 114.457 39.9355ZM101.768 31.8653C100.359 30.4618 98.3612 29.6431 96.3639 29.76H96.0115C92.2519 29.76 89.1972 32.801 89.1972 36.5437C89.1972 36.6606 89.1972 36.6606 89.1972 36.7776C89.1972 40.1694 91.5469 43.4442 96.3639 43.4442H96.5989C100.476 43.5612 103.531 40.5203 103.648 36.6606C103.648 34.9062 103.061 33.1518 101.768 31.8653ZM96.5989 42.2746C94.7191 42.2746 91.6644 40.8711 91.6644 36.0758C91.6644 31.2805 94.2492 30.9296 96.0115 30.9296C97.7738 30.9296 101.063 33.3858 101.063 36.6606V37.2454C100.946 39.8185 99.6536 42.2746 96.5989 42.2746ZM145.709 42.0407H145.004L144.299 41.8068C144.181 41.6899 144.064 41.5729 144.064 41.339V32.3331C144.064 31.9823 144.064 31.7483 144.181 31.3975C144.299 31.1635 145.474 31.1635 145.474 31.1635C145.474 31.1635 145.709 31.0466 145.709 30.9296C145.709 30.8127 145.826 30.3448 145.591 30.1109H142.537C141.949 30.1109 141.832 30.4618 141.714 30.8127L137.602 39.4676L134.078 30.8127C133.96 30.3448 133.725 30.1109 133.373 30.1109H129.613L129.261 30.3448C129.261 30.6957 129.143 30.9296 129.496 31.1635H130.67C130.905 31.1635 131.023 31.3975 131.023 31.9823L130.788 40.8711C130.67 41.8068 130.553 42.0407 129.848 42.0407H128.908C128.673 42.3916 128.791 42.7425 129.026 43.0934H133.96C134.195 42.7425 134.195 42.3916 133.96 42.0407H133.02C132.785 42.0407 132.433 41.9238 132.315 41.6899C132.08 41.222 132.08 40.6372 132.198 40.0524V32.684L136.192 42.5086C136.31 42.7425 136.545 42.8594 136.78 42.8594H137.25L141.832 32.9179V40.8711C141.832 41.1051 141.832 41.222 141.832 41.4559C141.832 41.6899 141.714 41.8068 141.597 41.9238L140.892 42.1577H139.952C139.717 42.5086 139.717 42.8594 139.952 43.2103H145.826C146.061 42.8594 146.061 42.3916 145.709 42.0407ZM128.086 30.1109H123.151C122.916 30.3448 122.799 30.6957 123.034 31.0466H124.561C124.796 31.3975 124.796 35.1401 124.796 37.1284C124.796 39.1168 122.916 41.8068 121.154 41.8068C119.392 41.8068 117.629 40.4033 117.629 37.1284V32.801C117.629 31.2805 117.629 31.1635 118.452 31.1635H119.157C119.392 31.0466 119.509 30.9296 119.392 30.5787C119.274 30.2279 119.274 30.1109 119.039 30.1109H113.635C113.517 30.2279 113.4 30.4618 113.4 30.6957C113.4 30.9296 113.517 31.0466 113.635 31.1635H114.457C115.279 31.1635 115.279 31.1635 115.279 33.0349V37.5963C115.162 39.3507 115.867 41.1051 117.159 42.2746C118.217 42.9764 119.392 43.4442 120.684 43.4442H121.036C122.564 43.4442 123.974 42.8594 125.148 41.9238C126.323 40.6372 126.441 39.4676 126.441 37.1284C126.441 35.2571 126.558 33.2688 126.676 31.3975C126.793 31.2805 127.028 31.1635 127.263 31.1635H128.086C128.321 31.0466 128.321 30.9296 128.321 30.5787C128.321 30.3448 128.203 30.2279 128.086 30.1109ZM87.1999 11.7483C87.9048 11.7483 88.0223 11.8653 88.0223 13.5027V21.9238C88.0223 24.146 88.0223 24.146 86.9649 24.3799H86.26C86.025 24.6138 85.9075 24.9647 86.1425 25.3156H92.2519C96.5989 25.3156 99.0662 23.5612 99.0662 20.5203C98.9487 18.6489 97.5388 17.0115 95.659 16.7776C96.9514 16.3097 97.7738 15.1401 97.7738 13.7366C97.6563 12.567 97.0689 11.6314 96.0115 11.0466C94.8366 10.5787 93.6617 10.3448 92.3694 10.3448H91.7819L86.495 10.5787C86.3775 10.5787 86.1425 10.8127 86.1425 10.9296C86.025 11.2805 86.1425 11.5144 86.3775 11.7483H87.1999ZM96.3639 21.4559C96.3639 23.6782 94.4841 24.146 92.8393 24.146H92.6043C92.1344 24.146 91.5469 24.029 91.1945 23.6782C90.842 23.0934 90.7245 22.2746 90.7245 21.5729V18.298H91.7819C95.7765 18.0641 96.3639 20.2863 96.3639 21.4559ZM90.7245 11.8653H91.8994C93.4267 11.8653 95.1891 12.567 95.1891 14.4384C95.1891 16.3097 94.6016 16.7776 91.6644 16.8945H90.7245V12.0992C90.7245 11.9823 90.7245 11.9823 90.7245 11.8653ZM88.0223 38.8828H87.4349C86.8474 40.7542 85.0851 41.9238 83.2053 41.9238H82.9703C79.0932 41.9238 76.5085 38.9998 76.5085 34.7893C76.2735 31.3975 78.9757 28.4735 82.3829 28.2396C82.5004 28.2396 82.5004 28.2396 82.6179 28.2396C85.5551 28.2396 86.495 29.2922 86.9649 31.2805H88.3748C88.1398 30.2279 88.0223 29.0583 88.0223 28.0056V27.6548H87.1999C85.9075 27.3039 84.4977 27.07 83.0878 27.07H82.6179C80.3856 27.07 78.2708 27.7717 76.5085 29.0583C74.6287 30.5787 73.4538 33.0349 73.5713 35.491C73.4538 38.0641 74.7462 40.6372 76.9784 42.0407C78.6233 43.0934 80.5031 43.6782 82.5004 43.6782H82.8528C84.1452 43.6782 85.4376 43.4442 86.6124 43.0934L87.3174 42.8594H87.5523C88.1398 41.8068 88.6097 40.7542 88.7272 39.5846C88.7272 39.2337 88.3748 38.8828 88.0223 38.8828ZM155.813 35.8419C157.223 35.2571 157.928 33.6197 157.34 32.2162C156.988 31.3975 156.4 30.8127 155.695 30.5787C154.52 30.2279 153.346 30.1109 152.171 30.1109H147.119L146.766 30.3448C146.649 30.5787 146.649 30.9296 146.884 31.1635H147.824C148.529 31.1635 148.529 31.2805 148.529 32.684V40.0524C148.529 41.9238 148.529 41.9238 147.706 42.0407H147.119C147.001 42.1577 146.884 42.2746 146.884 42.5086C146.884 42.7425 147.001 42.9764 147.119 43.0934H152.641C157.575 43.0934 158.75 42.0407 158.75 38.8828C158.515 37.3624 157.223 36.0758 155.695 35.8419H155.813ZM150.996 31.1635H152.053C153.463 31.1635 155.108 31.7483 155.108 33.3858C155.108 35.0232 154.403 35.491 151.818 35.491H150.996V31.1635ZM151.466 41.6899C151.113 41.4559 150.878 40.5203 150.878 39.9355V36.7776H152.053C155.343 36.7776 156.048 38.415 156.048 39.8185C156.048 41.222 154.285 42.0407 152.758 42.0407C152.288 42.0407 151.818 41.9238 151.466 41.6899Z" fill="white"/>
</svg>
