<svg width="29" height="18" viewBox="0 0 29 18" fill="none" xmlns="http://www.w3.org/2000/svg">
<path d="M19.3456 7.41305C18.9822 3.69421 15.8327 0.774902 12.017 0.774902C8.85536 0.774902 6.0572 2.80998 5.05178 5.76564C2.66544 6.11691 0.824219 8.1641 0.824219 10.6474C0.824219 13.3729 3.04094 15.5896 5.7786 15.5896H18.4492C20.7386 15.5896 22.6041 13.7363 22.6041 11.4468C22.6041 9.47231 21.1989 7.81279 19.3456 7.41305ZM18.4492 13.7362H5.7786C4.0706 13.7362 2.67756 12.3553 2.67756 10.6473C2.67756 8.93931 4.0706 7.55838 5.7786 7.55838C6.60228 7.55838 7.37757 7.88541 7.95901 8.4669C8.83239 9.34028 10.1523 8.01946 9.27939 7.14652C8.63736 6.51661 7.84999 6.08055 7.00207 5.8625C7.87423 3.92438 9.83663 2.62824 12.017 2.62824C15.0575 2.62824 17.5286 5.09937 17.5286 8.1277C17.5286 8.7213 17.4317 9.30269 17.25 9.85994C16.8587 11.0638 18.6558 11.5635 19.0064 10.4414C19.1276 10.078 19.2245 9.70248 19.2851 9.32698C20.133 9.65405 20.7508 10.4777 20.7508 11.4468C20.7508 12.7066 19.7211 13.7362 18.4492 13.7362ZM28.7335 11.4468C28.7335 13.3728 28.1762 15.2262 27.1103 16.813C26.9286 17.0796 26.6379 17.2249 26.335 17.2249C25.6211 17.2249 25.1482 16.4013 25.5719 15.7834C26.4198 14.4994 26.8801 12.9973 26.8801 11.4468C26.8801 9.89629 26.4198 8.39423 25.5719 7.12233C24.887 6.12347 26.4189 5.05558 27.1103 6.09271C28.1763 7.66741 28.7335 9.52079 28.7335 11.4468ZM25.6325 11.4468C25.6325 12.8278 25.2327 14.1602 24.4575 15.311C24.2758 15.5775 23.9851 15.7107 23.6822 15.7107C22.9297 15.7107 22.5 14.8804 22.9191 14.2692C23.4884 13.4334 23.7791 12.4643 23.7791 11.4468C23.7791 10.4414 23.4884 9.4602 22.9191 8.6244C22.2296 7.61876 23.7507 6.56399 24.4575 7.59474C25.2327 8.73338 25.6325 10.0659 25.6325 11.4468Z" fill="black"/>
</svg>
