<svg width="685" height="246" viewBox="0 0 685 246" fill="none" xmlns="http://www.w3.org/2000/svg">
<g clip-path="url(#clip0_563_25764)">
<path d="M286.65 109.57C287.54 111.38 288.38 113.15 289.31 114.84H289.39C290.43 113.03 291.39 111.03 292.35 109.07L295.97 101.72C297.7 98.22 298.82 96.1 298.9 94.33C300.21 94.45 301.02 94.45 301.79 94.45C302.75 94.45 304.02 94.41 305.22 94.33C305.45 94.48 305.45 95.14 305.26 95.29L304.45 95.37C302.02 95.6 301.72 96.33 301.76 99.03C301.84 103.11 301.88 110.23 302.18 115.78C302.3 117.7 302.26 118.74 304.07 118.9L305.3 119.02C305.53 119.25 305.49 119.83 305.22 119.98C303.64 119.9 302.06 119.86 300.68 119.86C299.3 119.86 297.6 119.9 296.02 119.98C295.75 119.79 295.71 119.25 295.94 119.02L297.06 118.9C298.95 118.71 298.95 118.09 298.95 115.63L298.83 99.58H298.75C298.48 100 297.02 103.08 296.25 104.58L292.82 111.32C291.09 114.71 289.36 118.33 288.66 120.1C288.58 120.22 288.43 120.25 288.28 120.25C288.2 120.25 288.01 120.21 287.93 120.1C287.28 118.06 285.43 114.29 284.54 112.4L281.08 104.97C280.27 103.2 279.46 101.2 278.62 99.43H278.54C278.39 101.82 278.27 104.05 278.16 106.28C278.04 108.63 277.89 112.05 277.89 115.33C277.89 118.18 278.12 118.79 279.62 118.91L281.08 119.03C281.35 119.26 281.31 119.88 281.04 119.99C279.73 119.91 278.23 119.87 276.77 119.87C275.54 119.87 274.15 119.91 272.84 119.99C272.61 119.8 272.53 119.22 272.76 119.03L273.61 118.91C275.23 118.68 275.77 118.45 276 115.75C276.23 113.21 276.42 111.09 276.65 107.28C276.84 104.08 277 100.81 277.07 98.7C277.15 96.27 276.84 95.7 274.49 95.39L273.87 95.31C273.68 95.08 273.72 94.5 274.02 94.35C275.18 94.43 276.1 94.47 277.06 94.47C277.95 94.47 278.98 94.47 280.26 94.35C280.11 95.85 281.07 98.24 282.26 100.7L286.65 109.59V109.57Z" fill="#234075"/>
<path d="M309.71 108.8C309.71 107.3 309.71 107.11 308.67 106.41L308.32 106.18C308.17 106.03 308.17 105.6 308.36 105.49C309.24 105.18 311.44 104.18 312.32 103.6C312.51 103.6 312.67 103.68 312.7 103.83C312.62 105.18 312.55 107.03 312.55 108.6V115.53C312.55 118.3 312.63 118.69 314.01 118.88L314.82 119C315.09 119.19 315.01 119.85 314.74 119.96C313.58 119.88 312.47 119.84 311.12 119.84C309.77 119.84 308.58 119.88 307.5 119.96C307.23 119.84 307.15 119.19 307.42 119L308.23 118.88C309.65 118.69 309.69 118.3 309.69 115.53V108.79L309.71 108.8ZM312.91 97.83C312.91 99.22 311.95 99.83 310.87 99.83C309.68 99.83 308.91 98.94 308.91 97.91C308.91 96.64 309.83 95.83 310.99 95.83C312.15 95.83 312.91 96.75 312.91 97.83Z" fill="#234075"/>
<path d="M319.22 108.8C319.22 107.3 319.22 107.11 318.18 106.41L317.83 106.18C317.68 106.03 317.68 105.6 317.87 105.49C318.75 105.18 320.95 104.18 321.72 103.6C321.87 103.6 322.07 103.68 322.14 103.87C322.06 104.76 322.06 105.33 322.06 105.68C322.06 105.91 322.21 106.1 322.48 106.1C324.1 105.1 325.91 104.14 327.87 104.14C331.07 104.14 332.37 106.33 332.37 108.91V115.53C332.37 118.3 332.45 118.69 333.83 118.88L334.68 119C334.95 119.19 334.87 119.85 334.6 119.96C333.44 119.88 332.33 119.84 330.98 119.84C329.63 119.84 328.44 119.88 327.4 119.96C327.13 119.84 327.05 119.19 327.32 119L328.05 118.88C329.47 118.65 329.51 118.3 329.51 115.53V109.79C329.51 107.6 328.51 105.98 325.89 105.98C324.43 105.98 323.16 106.6 322.62 107.33C322.12 107.98 322.04 108.52 322.04 109.64V115.53C322.04 118.3 322.12 118.65 323.5 118.88L324.19 119C324.46 119.19 324.38 119.85 324.11 119.96C323.07 119.88 321.95 119.84 320.61 119.84C319.27 119.84 318.07 119.88 316.99 119.96C316.72 119.84 316.64 119.19 316.91 119L317.72 118.88C319.14 118.69 319.18 118.3 319.18 115.53V108.79L319.22 108.8Z" fill="#234075"/>
<path d="M339.05 108.8C339.05 107.3 339.05 107.11 338.01 106.41L337.66 106.18C337.51 106.03 337.51 105.6 337.7 105.49C338.58 105.18 340.78 104.18 341.66 103.6C341.85 103.6 342.01 103.68 342.04 103.83C341.96 105.18 341.89 107.03 341.89 108.6V115.53C341.89 118.3 341.97 118.69 343.35 118.88L344.16 119C344.43 119.19 344.35 119.85 344.08 119.96C342.92 119.88 341.81 119.84 340.46 119.84C339.11 119.84 337.92 119.88 336.84 119.96C336.57 119.84 336.49 119.19 336.76 119L337.57 118.88C338.99 118.69 339.03 118.3 339.03 115.53V108.79L339.05 108.8ZM342.25 97.83C342.25 99.22 341.29 99.83 340.21 99.83C339.02 99.83 338.25 98.94 338.25 97.91C338.25 96.64 339.17 95.83 340.33 95.83C341.49 95.83 342.25 96.75 342.25 97.83Z" fill="#234075"/>
<path d="M355.33 104.84C355.68 105.69 355.95 106.92 355.95 107.96C355.8 108.23 355.22 108.31 355.03 108.08C354.38 106.39 353.22 105.27 351.64 105.27C350.06 105.27 349.18 106.23 349.18 107.62C349.18 109.2 350.8 110.04 352.14 110.82C354.18 111.98 356.07 113.28 356.07 116.02C356.07 118.95 353.37 120.41 350.53 120.41C348.72 120.41 347.37 120.03 346.41 119.25C346.1 118.52 345.87 116.63 345.95 115.36C346.14 115.13 346.64 115.09 346.83 115.32C347.49 117.44 348.72 119.29 350.91 119.29C352.3 119.29 353.49 118.48 353.49 116.83C353.49 115.06 351.95 114.1 350.53 113.29C348.3 112.02 346.72 110.67 346.72 108.55C346.72 105.74 349.03 104.16 351.96 104.16C353.58 104.16 355 104.54 355.35 104.85L355.33 104.84Z" fill="#234075"/>
<path d="M363.77 106.3C363.12 106.3 363.08 106.42 363.08 107.22V114.42C363.08 116.65 363.35 118.69 365.89 118.69C366.27 118.69 366.62 118.61 366.93 118.5C367.28 118.38 367.78 117.96 367.89 117.96C368.2 117.96 368.35 118.38 368.27 118.61C367.58 119.42 366.19 120.38 364.23 120.38C360.92 120.38 360.23 118.53 360.23 116.22V107.4C360.23 106.36 360.19 106.28 359.42 106.28H358.34C358.11 106.13 358.07 105.7 358.22 105.47C359.34 105.12 360.3 104.62 360.68 104.28C361.18 103.82 361.91 102.78 362.3 102.01C362.49 101.93 362.95 101.93 363.11 102.2V103.93C363.11 104.62 363.15 104.66 363.8 104.66H368.07C368.53 105.01 368.45 106.05 368.11 106.28H363.76L363.77 106.3Z" fill="#234075"/>
<path d="M372.04 108.8C372.04 107.3 372.04 107.11 371 106.41L370.65 106.18C370.5 106.03 370.5 105.6 370.69 105.49C371.57 105.18 373.62 104.18 374.58 103.6C374.77 103.64 374.89 103.72 374.89 103.87V106.1C374.89 106.29 374.93 106.41 375.01 106.45C376.36 105.33 377.82 104.14 379.24 104.14C380.2 104.14 380.97 104.76 380.97 105.68C380.97 106.95 379.93 107.45 379.31 107.45C378.93 107.45 378.73 107.33 378.46 107.18C377.88 106.8 377.3 106.56 376.77 106.56C376.15 106.56 375.69 106.91 375.38 107.33C375 107.87 374.88 108.99 374.88 110.29V115.53C374.88 118.3 374.96 118.76 376.42 118.88L377.81 119C378.08 119.19 378 119.85 377.73 119.96C375.92 119.88 374.8 119.84 373.46 119.84C372.12 119.84 370.92 119.88 369.92 119.96C369.65 119.84 369.57 119.19 369.84 119L370.57 118.88C371.99 118.65 372.03 118.3 372.03 115.53V108.79L372.04 108.8Z" fill="#234075"/>
<path d="M382.28 127.78C382.28 126.74 382.97 126.24 383.82 126.24H384.55C385.17 126.24 385.55 125.97 385.82 125.55C386.94 123.82 387.71 122.2 388.05 121.28C388.17 120.97 388.44 120.16 388.44 119.62C388.44 118.85 388.29 118.39 387.78 116.96L384.78 108.72C384.12 106.91 383.86 105.99 382.51 105.72L381.55 105.53C381.32 105.34 381.36 104.68 381.67 104.57C382.9 104.65 384.06 104.69 385.33 104.69C386.37 104.69 387.45 104.65 388.68 104.57C388.99 104.69 389.03 105.34 388.76 105.53L387.8 105.72C387.26 105.84 386.95 105.95 386.95 106.22C386.95 106.68 387.84 109.18 388.07 109.84L389.3 113.38C389.53 114 390.26 116.04 390.42 116.11C390.54 116.03 391.15 114.84 391.84 113.26L393.15 110.22C394 108.22 394.5 106.79 394.5 106.37C394.5 106.1 394.27 105.83 393.58 105.72L392.39 105.53C392.12 105.34 392.16 104.68 392.47 104.57C393.7 104.65 394.86 104.69 395.86 104.69C396.86 104.69 397.71 104.65 398.79 104.57C399.1 104.72 399.14 105.3 398.87 105.53L398.21 105.65C396.94 105.88 396.25 107 394.94 109.73L392.78 114.16C391.51 116.74 388.35 123.44 386.47 127.63C385.82 129.09 384.89 129.44 384.01 129.44C382.89 129.44 382.32 128.75 382.32 127.78H382.28Z" fill="#234075"/>
<path d="M424.44 112.11C424.44 116.92 421.13 120.39 416.32 120.39C411.89 120.39 408.43 117.27 408.43 112.46C408.43 107.65 412.09 104.14 416.63 104.14C421.17 104.14 424.44 107.37 424.44 112.11ZM416.16 105.3C413.62 105.3 411.73 107.72 411.73 111.96C411.73 115.46 413.31 119.24 416.7 119.24C420.09 119.24 421.13 115.7 421.13 112.73C421.13 109.46 419.82 105.3 416.16 105.3Z" fill="#234075"/>
<path d="M432.56 106.3C431.91 106.3 431.91 106.38 431.91 107.42V115.54C431.91 118.31 431.99 118.77 433.37 118.89L434.76 119.01C435.03 119.2 434.95 119.86 434.68 119.97C432.95 119.89 431.83 119.85 430.48 119.85C429.13 119.85 427.94 119.89 426.78 119.97C426.51 119.85 426.43 119.2 426.7 119.01L427.59 118.89C429.01 118.7 429.05 118.31 429.05 115.54V107.42C429.05 106.38 429.05 106.3 428.28 106.3H426.93C426.7 106.15 426.66 105.8 426.81 105.57L428.47 104.76C428.78 104.61 429.05 104.37 429.05 103.99C429.05 101.76 429.32 99.37 430.24 97.21C431.2 95.02 433.36 92.32 437.17 92.32C439.21 92.32 440.94 93.24 440.94 94.63C440.94 95.4 440.21 96.02 439.48 96.02C439.06 96.02 438.83 95.87 438.56 95.56C437.83 94.71 436.75 93.87 435.48 93.87C434.29 93.87 433.32 94.6 432.75 95.99C432.06 97.76 431.9 100.57 431.9 102.5V103.62C431.9 104.66 431.9 104.7 432.55 104.7H436.94C437.36 105.08 437.09 106.16 436.67 106.32H432.55L432.56 106.3Z" fill="#234075"/>
<path d="M276.6 138.72C276.6 134.72 276.52 134.14 274.25 133.87L273.63 133.79C273.4 133.64 273.48 132.94 273.71 132.83C275.37 132.91 276.67 132.95 278.25 132.95H285.49C287.95 132.95 290.23 132.95 290.69 132.83C290.92 133.48 291.15 136.26 291.31 137.95C291.16 138.18 290.54 138.26 290.35 138.03C289.77 136.22 289.43 134.87 287.42 134.37C286.61 134.18 285.38 134.14 283.69 134.14H280.92C279.77 134.14 279.77 134.22 279.77 135.68V143.38C279.77 144.46 279.89 144.46 281.04 144.46H283.27C284.89 144.46 286.08 144.38 286.54 144.23C287 144.08 287.27 143.85 287.46 142.88L287.77 141.3C287.96 141.07 288.62 141.07 288.77 141.34C288.77 142.26 288.62 143.76 288.62 145.23C288.62 146.62 288.77 148.08 288.77 148.93C288.62 149.2 287.96 149.2 287.77 148.97L287.42 147.47C287.27 146.78 287 146.2 286.23 146.01C285.69 145.86 284.77 145.82 283.27 145.82H281.04C279.89 145.82 279.77 145.86 279.77 146.86V152.29C279.77 154.33 279.89 155.64 280.5 156.29C280.96 156.75 281.77 157.18 285.16 157.18C288.12 157.18 289.24 157.03 290.09 156.6C290.78 156.21 291.82 154.87 292.82 152.87C293.09 152.68 293.63 152.79 293.78 153.14C293.51 154.49 292.55 157.45 292.05 158.49C288.59 158.41 285.16 158.37 281.73 158.37H278.27C276.61 158.37 275.31 158.41 273.03 158.49C272.8 158.37 272.72 157.76 272.95 157.53L274.22 157.41C276.41 157.22 276.61 156.64 276.61 152.6V138.74L276.6 138.72Z" fill="#234075"/>
<path d="M317.72 148.46C317.72 145.84 316.56 144.49 314.14 144.49C312.68 144.49 311.48 145.14 310.94 145.84C310.48 146.42 310.36 146.8 310.36 148.15V154.04C310.36 156.81 310.44 157.2 311.82 157.39L312.63 157.51C312.9 157.7 312.82 158.36 312.55 158.47C311.4 158.39 310.28 158.35 308.93 158.35C307.58 158.35 306.5 158.39 305.43 158.47C305.16 158.35 305.08 157.7 305.35 157.51L306.04 157.39C307.46 157.16 307.5 156.81 307.5 154.04V148.46C307.5 145.88 306.34 144.49 303.96 144.49C302.38 144.49 301.3 145.18 300.73 145.88C300.34 146.34 300.15 146.84 300.15 148.07V154.04C300.15 156.81 300.23 157.16 301.61 157.39L302.3 157.51C302.57 157.7 302.49 158.36 302.22 158.47C301.18 158.39 300.06 158.35 298.72 158.35C297.38 158.35 296.18 158.39 294.99 158.47C294.72 158.35 294.64 157.7 294.91 157.51L295.83 157.39C297.25 157.2 297.29 156.81 297.29 154.04V147.3C297.29 145.8 297.29 145.61 296.25 144.91L295.9 144.68C295.75 144.53 295.75 144.1 295.94 143.99C296.83 143.68 299.02 142.68 299.79 142.1C299.94 142.1 300.14 142.18 300.21 142.37C300.13 143.26 300.13 143.83 300.13 144.18C300.13 144.41 300.28 144.6 300.55 144.6C302.01 143.56 303.82 142.64 305.67 142.64C307.52 142.64 308.67 143.33 309.75 144.91C310.1 144.99 310.37 144.83 310.71 144.6C312.25 143.52 314.14 142.64 315.95 142.64C319.03 142.64 320.53 144.76 320.53 147.41V154.03C320.53 156.8 320.61 157.19 321.99 157.38L322.91 157.5C323.18 157.69 323.1 158.35 322.83 158.46C321.56 158.38 320.44 158.34 319.1 158.34C317.76 158.34 316.67 158.38 315.6 158.46C315.33 158.34 315.25 157.69 315.52 157.5L316.21 157.38C317.63 157.15 317.67 156.8 317.67 154.03V148.45L317.72 148.46Z" fill="#234075"/>
<path d="M328.46 148.49C327.46 148.49 327.42 148.57 327.42 149.53C327.42 153.42 329.69 156.73 333.81 156.73C335.08 156.73 336.16 156.35 337.35 154.84C337.74 154.72 338 154.96 338.04 155.3C336.77 157.92 334 158.88 332 158.88C329.5 158.88 327.53 157.8 326.42 156.34C325.27 154.84 324.8 153.03 324.8 151.34C324.8 146.6 327.92 142.64 332.54 142.64C335.85 142.64 338.01 144.91 338.01 147.22C338.01 147.76 337.93 148.07 337.86 148.22C337.74 148.45 337.21 148.49 335.59 148.49H328.47H328.46ZM330.85 147.33C333.7 147.33 334.55 147.18 334.85 146.95C334.97 146.87 335.08 146.72 335.08 146.22C335.08 145.14 334.35 143.8 332.12 143.8C329.89 143.8 327.89 145.88 327.85 147.15C327.85 147.23 327.85 147.34 328.12 147.34H330.85V147.33Z" fill="#234075"/>
<path d="M342.09 147.3C342.09 145.8 342.09 145.61 341.05 144.91L340.7 144.68C340.55 144.53 340.55 144.1 340.74 143.99C341.62 143.68 343.67 142.68 344.63 142.1C344.82 142.14 344.94 142.22 344.94 142.37V144.6C344.94 144.79 344.98 144.91 345.06 144.95C346.41 143.83 347.87 142.64 349.29 142.64C350.25 142.64 351.02 143.26 351.02 144.18C351.02 145.45 349.98 145.95 349.36 145.95C348.98 145.95 348.78 145.83 348.51 145.68C347.93 145.3 347.35 145.06 346.82 145.06C346.2 145.06 345.74 145.41 345.43 145.83C345.05 146.37 344.93 147.49 344.93 148.79V154.03C344.93 156.8 345.01 157.26 346.47 157.38L347.86 157.5C348.13 157.69 348.05 158.35 347.78 158.46C345.97 158.38 344.85 158.34 343.51 158.34C342.17 158.34 340.97 158.38 339.97 158.46C339.7 158.34 339.62 157.69 339.89 157.5L340.62 157.38C342.04 157.15 342.08 156.8 342.08 154.03V147.29L342.09 147.3Z" fill="#234075"/>
<path d="M367.88 144.03C368.3 144.22 368.23 145.53 367.65 145.61H364.88C364.96 146.27 364.96 146.92 364.96 147.57C364.96 150.23 363.38 153.69 358.49 153.69C357.8 153.69 357.26 153.61 356.8 153.57C356.34 153.84 355.11 154.57 355.11 155.69C355.11 156.58 356 157.31 357.81 157.31C359.12 157.31 360.7 157.19 362.39 157.19C364.55 157.19 367.78 157.58 367.78 161.43C367.78 165.63 363.2 168.71 358.19 168.71C353.45 168.71 351.8 166.17 351.8 164.25C351.8 163.63 351.95 163.13 352.22 162.83C352.88 162.14 353.95 161.14 354.84 160.25C355.19 159.9 355.49 159.56 355.15 159.33C353.65 158.94 352.34 157.64 352.34 156.29C352.34 156.1 352.49 155.94 352.92 155.64C353.57 155.22 354.31 154.56 354.96 153.87C355.15 153.64 355.35 153.33 355.35 153.14C354.04 152.45 352.46 150.95 352.46 148.48C352.46 145.17 355.31 142.67 358.74 142.67C360.2 142.67 361.55 143.05 362.44 143.44C363.67 143.98 363.94 144.06 364.79 144.06H367.91L367.88 144.03ZM359.83 159.58C358.6 159.58 357.06 159.66 356.52 160C355.6 160.58 354.67 161.77 354.67 163.23C354.67 165.31 356.33 167.04 359.83 167.04C363.33 167.04 365.53 165.12 365.53 162.92C365.53 160.57 363.91 159.57 361.14 159.57H359.83V159.58ZM362.22 148.57C362.22 145.95 361.14 143.76 358.79 143.76C356.94 143.76 355.56 145.45 355.56 148.07C355.56 150.69 357.22 152.57 359.06 152.57C361.14 152.57 362.22 150.91 362.22 148.57Z" fill="#234075"/>
<path d="M372.51 148.49C371.51 148.49 371.47 148.57 371.47 149.53C371.47 153.42 373.74 156.73 377.86 156.73C379.13 156.73 380.21 156.35 381.4 154.84C381.79 154.72 382.05 154.96 382.09 155.3C380.82 157.92 378.05 158.88 376.05 158.88C373.55 158.88 371.58 157.8 370.47 156.34C369.32 154.84 368.85 153.03 368.85 151.34C368.85 146.6 371.97 142.64 376.59 142.64C379.9 142.64 382.06 144.91 382.06 147.22C382.06 147.76 381.98 148.07 381.91 148.22C381.79 148.45 381.26 148.49 379.64 148.49H372.52H372.51ZM374.9 147.33C377.75 147.33 378.6 147.18 378.9 146.95C379.02 146.87 379.13 146.72 379.13 146.22C379.13 145.14 378.4 143.8 376.17 143.8C373.94 143.8 371.94 145.88 371.9 147.15C371.9 147.23 371.9 147.34 372.17 147.34H374.9V147.33Z" fill="#234075"/>
<path d="M386.13 147.3C386.13 145.8 386.13 145.61 385.09 144.91L384.74 144.68C384.59 144.53 384.59 144.1 384.78 143.99C385.66 143.68 387.86 142.68 388.63 142.1C388.78 142.1 388.98 142.18 389.05 142.37C388.97 143.26 388.97 143.83 388.97 144.18C388.97 144.41 389.12 144.6 389.39 144.6C391.01 143.6 392.82 142.64 394.78 142.64C397.98 142.64 399.28 144.83 399.28 147.41V154.03C399.28 156.8 399.36 157.19 400.74 157.38L401.59 157.5C401.86 157.69 401.78 158.35 401.51 158.46C400.35 158.38 399.24 158.34 397.89 158.34C396.54 158.34 395.35 158.38 394.31 158.46C394.04 158.34 393.96 157.69 394.23 157.5L394.96 157.38C396.38 157.15 396.42 156.8 396.42 154.03V148.29C396.42 146.1 395.42 144.48 392.8 144.48C391.34 144.48 390.07 145.1 389.53 145.83C389.03 146.48 388.95 147.02 388.95 148.14V154.03C388.95 156.8 389.03 157.15 390.41 157.38L391.1 157.5C391.37 157.69 391.29 158.35 391.02 158.46C389.98 158.38 388.86 158.34 387.52 158.34C386.18 158.34 384.98 158.38 383.9 158.46C383.63 158.34 383.55 157.69 383.82 157.5L384.63 157.38C386.05 157.19 386.09 156.8 386.09 154.03V147.29L386.13 147.3Z" fill="#234075"/>
<path d="M416.32 143.3C416.63 143.57 416.9 144.19 416.9 144.84C416.9 145.53 416.52 146.26 416.05 146.26C415.86 146.26 415.67 146.18 415.51 145.99C414.66 144.95 413.24 143.95 411.66 143.95C408.96 143.95 406.35 146.07 406.35 150.15C406.35 153.15 408.43 156.73 412.55 156.73C414.78 156.73 415.94 155.73 416.82 154.42C417.13 154.34 417.47 154.61 417.51 154.96C416.2 157.81 413.31 158.89 411.08 158.89C409.04 158.89 407.15 158.24 405.81 156.93C404.46 155.62 403.58 153.73 403.58 151.23C403.58 147.07 406.51 142.65 412.9 142.65C413.79 142.65 415.29 142.84 416.33 143.3H416.32Z" fill="#234075"/>
<path d="M418.13 166.28C418.13 165.24 418.82 164.74 419.67 164.74H420.4C421.02 164.74 421.4 164.47 421.67 164.05C422.79 162.32 423.56 160.7 423.9 159.78C424.02 159.47 424.29 158.66 424.29 158.12C424.29 157.35 424.14 156.89 423.63 155.46L420.63 147.22C419.97 145.41 419.71 144.49 418.36 144.22L417.4 144.03C417.17 143.84 417.21 143.18 417.52 143.07C418.75 143.15 419.91 143.19 421.18 143.19C422.22 143.19 423.3 143.15 424.53 143.07C424.84 143.19 424.88 143.84 424.61 144.03L423.65 144.22C423.11 144.34 422.8 144.45 422.8 144.72C422.8 145.18 423.69 147.68 423.92 148.34L425.15 151.88C425.38 152.5 426.11 154.54 426.27 154.61C426.39 154.53 427 153.34 427.69 151.76L429 148.72C429.85 146.72 430.35 145.29 430.35 144.87C430.35 144.6 430.12 144.33 429.43 144.22L428.24 144.03C427.97 143.84 428.01 143.18 428.32 143.07C429.55 143.15 430.71 143.19 431.71 143.19C432.71 143.19 433.56 143.15 434.64 143.07C434.95 143.22 434.99 143.8 434.72 144.03L434.06 144.15C432.79 144.38 432.1 145.5 430.79 148.23L428.63 152.66C427.36 155.24 424.2 161.94 422.32 166.13C421.67 167.59 420.74 167.94 419.86 167.94C418.74 167.94 418.17 167.25 418.17 166.28H418.13Z" fill="#234075"/>
<path d="M457.9 148.07C458.79 149.88 459.63 151.65 460.56 153.34H460.64C461.68 151.53 462.64 149.53 463.6 147.57L467.22 140.22C468.95 136.72 470.07 134.6 470.15 132.83C471.46 132.95 472.27 132.95 473.04 132.95C474 132.95 475.27 132.91 476.47 132.83C476.7 132.98 476.7 133.64 476.51 133.79L475.7 133.87C473.27 134.1 472.97 134.83 473 137.53C473.08 141.61 473.12 148.73 473.42 154.28C473.54 156.2 473.5 157.24 475.31 157.4L476.54 157.52C476.77 157.75 476.73 158.33 476.46 158.48C474.88 158.4 473.3 158.36 471.92 158.36C470.54 158.36 468.84 158.4 467.26 158.48C466.99 158.29 466.95 157.75 467.18 157.52L468.3 157.4C470.19 157.21 470.19 156.59 470.19 154.13L470.07 138.08H469.99C469.72 138.5 468.26 141.58 467.49 143.08L464.06 149.82C462.33 153.21 460.6 156.83 459.9 158.6C459.82 158.72 459.67 158.75 459.52 158.75C459.44 158.75 459.25 158.71 459.17 158.6C458.52 156.56 456.67 152.79 455.78 150.9L452.32 143.47C451.51 141.7 450.7 139.7 449.86 137.93H449.78C449.63 140.32 449.51 142.55 449.4 144.78C449.28 147.13 449.13 150.55 449.13 153.83C449.13 156.68 449.36 157.29 450.86 157.41L452.32 157.53C452.59 157.76 452.55 158.38 452.28 158.49C450.97 158.41 449.47 158.37 448.01 158.37C446.78 158.37 445.39 158.41 444.08 158.49C443.85 158.3 443.77 157.72 444 157.53L444.85 157.41C446.47 157.18 447.01 156.95 447.24 154.25C447.47 151.71 447.66 149.59 447.89 145.78C448.08 142.58 448.24 139.31 448.31 137.2C448.39 134.77 448.08 134.2 445.73 133.89L445.11 133.81C444.92 133.58 444.96 133 445.26 132.85C446.41 132.93 447.34 132.97 448.3 132.97C449.19 132.97 450.22 132.97 451.5 132.85C451.35 134.35 452.31 136.74 453.5 139.2L457.89 148.09L457.9 148.07Z" fill="#234075"/>
<path d="M486.31 150.38C486.89 150.19 486.96 149.84 486.96 149.26L487 147.49C487.04 146.07 486.58 144.14 484.19 144.14C483.11 144.14 481.8 144.68 481.73 145.87C481.69 146.49 481.65 146.95 481.35 147.18C480.77 147.64 479.73 147.91 479.16 147.91C478.81 147.91 478.62 147.72 478.62 147.37C478.62 145.37 482.97 142.63 485.78 142.63C488.59 142.63 489.9 144.25 489.78 147.13L489.55 153.83C489.47 155.6 489.82 157.18 491.32 157.18C491.7 157.18 492.05 157.06 492.28 156.95C492.47 156.83 492.67 156.68 492.78 156.68C492.93 156.68 493.05 156.91 493.05 157.18C493.05 157.37 491.7 158.87 489.82 158.87C488.9 158.87 487.97 158.52 487.32 157.68C487.17 157.45 486.94 157.14 486.7 157.14C486.43 157.14 485.97 157.49 485.2 157.91C484.35 158.37 483.51 158.87 482.43 158.87C481.35 158.87 480.39 158.56 479.74 157.98C479.01 157.33 478.55 156.36 478.55 155.29C478.55 153.79 479.28 152.9 481.75 152.02L486.33 150.36L486.31 150.38ZM483.92 157.16C484.69 157.16 485.88 156.58 486.27 156.2C486.73 155.74 486.73 155.2 486.77 154.39L486.85 152.12C486.85 151.7 486.7 151.62 486.47 151.62C486.24 151.62 485.58 151.77 484.89 152C482.62 152.77 481.5 153.35 481.5 154.85C481.5 155.5 481.96 157.16 483.93 157.16H483.92Z" fill="#234075"/>
<path d="M496.13 147.3C496.13 145.8 496.13 145.61 495.09 144.91L494.74 144.68C494.59 144.53 494.59 144.1 494.78 143.99C495.66 143.68 497.86 142.68 498.63 142.1C498.78 142.1 498.98 142.18 499.05 142.37C498.97 143.26 498.97 143.83 498.97 144.18C498.97 144.41 499.12 144.6 499.39 144.6C501.01 143.6 502.82 142.64 504.78 142.64C507.98 142.64 509.28 144.83 509.28 147.41V154.03C509.28 156.8 509.36 157.19 510.74 157.38L511.59 157.5C511.86 157.69 511.78 158.35 511.51 158.46C510.35 158.38 509.24 158.34 507.89 158.34C506.54 158.34 505.35 158.38 504.31 158.46C504.04 158.34 503.96 157.69 504.23 157.5L504.96 157.38C506.38 157.15 506.42 156.8 506.42 154.03V148.29C506.42 146.1 505.42 144.48 502.8 144.48C501.34 144.48 500.07 145.1 499.53 145.83C499.03 146.48 498.95 147.02 498.95 148.14V154.03C498.95 156.8 499.03 157.15 500.41 157.38L501.1 157.5C501.37 157.69 501.29 158.35 501.02 158.46C499.98 158.38 498.86 158.34 497.52 158.34C496.18 158.34 494.98 158.38 493.9 158.46C493.63 158.34 493.55 157.69 493.82 157.5L494.63 157.38C496.05 157.19 496.09 156.8 496.09 154.03V147.29L496.13 147.3Z" fill="#234075"/>
<path d="M521.31 150.38C521.89 150.19 521.96 149.84 521.96 149.26L522 147.49C522.04 146.07 521.58 144.14 519.19 144.14C518.11 144.14 516.8 144.68 516.73 145.87C516.69 146.49 516.65 146.95 516.35 147.18C515.77 147.64 514.73 147.91 514.16 147.91C513.81 147.91 513.62 147.72 513.62 147.37C513.62 145.37 517.97 142.63 520.78 142.63C523.59 142.63 524.9 144.25 524.78 147.13L524.55 153.83C524.47 155.6 524.82 157.18 526.32 157.18C526.7 157.18 527.05 157.06 527.28 156.95C527.47 156.83 527.67 156.68 527.78 156.68C527.93 156.68 528.05 156.91 528.05 157.18C528.05 157.37 526.7 158.87 524.82 158.87C523.9 158.87 522.97 158.52 522.32 157.68C522.17 157.45 521.94 157.14 521.7 157.14C521.43 157.14 520.97 157.49 520.2 157.91C519.35 158.37 518.51 158.87 517.43 158.87C516.35 158.87 515.39 158.56 514.74 157.98C514.01 157.33 513.55 156.36 513.55 155.29C513.55 153.79 514.28 152.9 516.75 152.02L521.33 150.36L521.31 150.38ZM518.92 157.16C519.69 157.16 520.88 156.58 521.27 156.2C521.73 155.74 521.73 155.2 521.77 154.39L521.85 152.12C521.85 151.7 521.7 151.62 521.47 151.62C521.24 151.62 520.58 151.77 519.89 152C517.62 152.77 516.5 153.35 516.5 154.85C516.5 155.5 516.96 157.16 518.93 157.16H518.92Z" fill="#234075"/>
<path d="M544.52 144.03C544.94 144.22 544.87 145.53 544.29 145.61H541.52C541.6 146.27 541.6 146.92 541.6 147.57C541.6 150.23 540.02 153.69 535.13 153.69C534.44 153.69 533.9 153.61 533.44 153.57C532.98 153.84 531.75 154.57 531.75 155.69C531.75 156.58 532.64 157.31 534.45 157.31C535.76 157.31 537.34 157.19 539.03 157.19C541.19 157.19 544.42 157.58 544.42 161.43C544.42 165.63 539.84 168.71 534.83 168.71C530.09 168.71 528.44 166.17 528.44 164.25C528.44 163.63 528.59 163.13 528.86 162.83C529.52 162.14 530.59 161.14 531.48 160.25C531.83 159.9 532.13 159.56 531.79 159.33C530.29 158.94 528.98 157.64 528.98 156.29C528.98 156.1 529.13 155.94 529.56 155.64C530.21 155.22 530.95 154.56 531.6 153.87C531.79 153.64 531.99 153.33 531.99 153.14C530.68 152.45 529.1 150.95 529.1 148.48C529.1 145.17 531.95 142.67 535.38 142.67C536.84 142.67 538.19 143.05 539.08 143.44C540.31 143.98 540.58 144.06 541.43 144.06H544.55L544.52 144.03ZM536.47 159.58C535.24 159.58 533.7 159.66 533.16 160C532.24 160.58 531.31 161.77 531.31 163.23C531.31 165.31 532.97 167.04 536.47 167.04C539.97 167.04 542.17 165.12 542.17 162.92C542.17 160.57 540.55 159.57 537.78 159.57H536.47V159.58ZM538.86 148.57C538.86 145.95 537.78 143.76 535.43 143.76C533.58 143.76 532.2 145.45 532.2 148.07C532.2 150.69 533.86 152.57 535.7 152.57C537.78 152.57 538.86 150.91 538.86 148.57Z" fill="#234075"/>
<path d="M549.14 148.49C548.14 148.49 548.1 148.57 548.1 149.53C548.1 153.42 550.37 156.73 554.49 156.73C555.76 156.73 556.84 156.35 558.03 154.84C558.42 154.72 558.68 154.96 558.72 155.3C557.45 157.92 554.68 158.88 552.68 158.88C550.18 158.88 548.21 157.8 547.1 156.34C545.95 154.84 545.48 153.03 545.48 151.34C545.48 146.6 548.6 142.64 553.22 142.64C556.53 142.64 558.69 144.91 558.69 147.22C558.69 147.76 558.61 148.07 558.54 148.22C558.42 148.45 557.89 148.49 556.27 148.49H549.15H549.14ZM551.53 147.33C554.38 147.33 555.23 147.18 555.53 146.95C555.65 146.87 555.76 146.72 555.76 146.22C555.76 145.14 555.03 143.8 552.8 143.8C550.57 143.8 548.57 145.88 548.53 147.15C548.53 147.23 548.53 147.34 548.8 147.34H551.53V147.33Z" fill="#234075"/>
<path d="M583.17 148.46C583.17 145.84 582.01 144.49 579.59 144.49C578.13 144.49 576.93 145.14 576.39 145.84C575.93 146.42 575.81 146.8 575.81 148.15V154.04C575.81 156.81 575.89 157.2 577.27 157.39L578.08 157.51C578.35 157.7 578.27 158.36 578 158.47C576.85 158.39 575.73 158.35 574.38 158.35C573.03 158.35 571.95 158.39 570.88 158.47C570.61 158.35 570.53 157.7 570.8 157.51L571.49 157.39C572.91 157.16 572.95 156.81 572.95 154.04V148.46C572.95 145.88 571.79 144.49 569.41 144.49C567.83 144.49 566.75 145.18 566.18 145.88C565.8 146.34 565.6 146.84 565.6 148.07V154.04C565.6 156.81 565.68 157.16 567.06 157.39L567.75 157.51C568.02 157.7 567.94 158.36 567.67 158.47C566.63 158.39 565.51 158.35 564.17 158.35C562.83 158.35 561.63 158.39 560.44 158.47C560.17 158.35 560.09 157.7 560.36 157.51L561.28 157.39C562.7 157.2 562.74 156.81 562.74 154.04V147.3C562.74 145.8 562.74 145.61 561.7 144.91L561.35 144.68C561.2 144.53 561.2 144.1 561.39 143.99C562.27 143.68 564.47 142.68 565.24 142.1C565.39 142.1 565.59 142.18 565.66 142.37C565.58 143.26 565.58 143.83 565.58 144.18C565.58 144.41 565.73 144.6 566 144.6C567.46 143.56 569.27 142.64 571.12 142.64C572.97 142.64 574.12 143.33 575.2 144.91C575.55 144.99 575.82 144.83 576.16 144.6C577.7 143.52 579.59 142.64 581.4 142.64C584.48 142.64 585.98 144.76 585.98 147.41V154.03C585.98 156.8 586.06 157.19 587.44 157.38L588.36 157.5C588.63 157.69 588.55 158.35 588.28 158.46C587.01 158.38 585.89 158.34 584.55 158.34C583.21 158.34 582.12 158.38 581.05 158.46C580.78 158.34 580.7 157.69 580.97 157.5L581.66 157.38C583.08 157.15 583.12 156.8 583.12 154.03V148.45L583.17 148.46Z" fill="#234075"/>
<path d="M593.92 148.49C592.92 148.49 592.88 148.57 592.88 149.53C592.88 153.42 595.15 156.73 599.27 156.73C600.54 156.73 601.62 156.35 602.81 154.84C603.2 154.72 603.46 154.96 603.5 155.3C602.23 157.92 599.46 158.88 597.46 158.88C594.96 158.88 592.99 157.8 591.88 156.34C590.73 154.84 590.26 153.03 590.26 151.34C590.26 146.6 593.38 142.64 598 142.64C601.31 142.64 603.47 144.91 603.47 147.22C603.47 147.76 603.39 148.07 603.32 148.22C603.2 148.45 602.67 148.49 601.05 148.49H593.93H593.92ZM596.31 147.33C599.16 147.33 600.01 147.18 600.31 146.95C600.43 146.87 600.54 146.72 600.54 146.22C600.54 145.14 599.81 143.8 597.58 143.8C595.35 143.8 593.35 145.88 593.31 147.15C593.31 147.23 593.31 147.34 593.58 147.34H596.31V147.33Z" fill="#234075"/>
<path d="M607.54 147.3C607.54 145.8 607.54 145.61 606.5 144.91L606.15 144.68C606 144.53 606 144.1 606.19 143.99C607.07 143.68 609.27 142.68 610.04 142.1C610.19 142.1 610.39 142.18 610.46 142.37C610.38 143.26 610.38 143.83 610.38 144.18C610.38 144.41 610.53 144.6 610.8 144.6C612.42 143.6 614.23 142.64 616.19 142.64C619.39 142.64 620.69 144.83 620.69 147.41V154.03C620.69 156.8 620.77 157.19 622.15 157.38L623 157.5C623.27 157.69 623.19 158.35 622.92 158.46C621.76 158.38 620.65 158.34 619.3 158.34C617.95 158.34 616.76 158.38 615.72 158.46C615.45 158.34 615.37 157.69 615.64 157.5L616.37 157.38C617.79 157.15 617.83 156.8 617.83 154.03V148.29C617.83 146.1 616.83 144.48 614.21 144.48C612.75 144.48 611.48 145.1 610.94 145.83C610.44 146.48 610.36 147.02 610.36 148.14V154.03C610.36 156.8 610.44 157.15 611.82 157.38L612.51 157.5C612.78 157.69 612.7 158.35 612.43 158.46C611.39 158.38 610.27 158.34 608.93 158.34C607.59 158.34 606.39 158.38 605.31 158.46C605.04 158.34 604.96 157.69 605.23 157.5L606.04 157.38C607.46 157.19 607.5 156.8 607.5 154.03V147.29L607.54 147.3Z" fill="#234075"/>
<path d="M630.53 144.8C629.88 144.8 629.84 144.92 629.84 145.72V152.92C629.84 155.15 630.11 157.19 632.65 157.19C633.03 157.19 633.38 157.11 633.69 157C634.04 156.88 634.54 156.46 634.65 156.46C634.96 156.46 635.11 156.88 635.03 157.11C634.34 157.92 632.95 158.88 630.99 158.88C627.68 158.88 626.99 157.03 626.99 154.72V145.9C626.99 144.86 626.95 144.78 626.18 144.78H625.1C624.87 144.63 624.83 144.2 624.98 143.97C626.1 143.62 627.06 143.12 627.44 142.78C627.94 142.32 628.67 141.28 629.06 140.51C629.25 140.43 629.71 140.43 629.87 140.7V142.43C629.87 143.12 629.91 143.16 630.56 143.16H634.83C635.29 143.51 635.21 144.55 634.87 144.78H630.52L630.53 144.8Z" fill="#234075"/>
<path d="M280.8 188.88C281.38 188.69 281.45 188.34 281.45 187.76L281.49 185.99C281.53 184.57 281.07 182.64 278.68 182.64C277.6 182.64 276.29 183.18 276.22 184.37C276.18 184.99 276.14 185.45 275.83 185.68C275.25 186.14 274.21 186.41 273.64 186.41C273.29 186.41 273.1 186.22 273.1 185.87C273.1 183.87 277.45 181.13 280.26 181.13C283.07 181.13 284.38 182.75 284.26 185.63L284.03 192.33C283.95 194.1 284.3 195.68 285.8 195.68C286.18 195.68 286.53 195.56 286.76 195.45C286.95 195.33 287.14 195.18 287.26 195.18C287.41 195.18 287.53 195.41 287.53 195.68C287.53 195.87 286.18 197.37 284.3 197.37C283.38 197.37 282.45 197.02 281.8 196.18C281.65 195.95 281.41 195.64 281.18 195.64C280.91 195.64 280.45 195.99 279.68 196.41C278.83 196.87 277.99 197.37 276.91 197.37C275.83 197.37 274.87 197.06 274.22 196.48C273.49 195.83 273.03 194.86 273.03 193.79C273.03 192.29 273.76 191.4 276.23 190.52L280.81 188.86L280.8 188.88ZM278.41 195.66C279.18 195.66 280.37 195.08 280.76 194.7C281.22 194.24 281.22 193.7 281.26 192.89L281.34 190.62C281.34 190.2 281.19 190.12 280.95 190.12C280.71 190.12 280.06 190.27 279.37 190.5C277.1 191.27 275.98 191.85 275.98 193.35C275.98 194 276.44 195.66 278.41 195.66Z" fill="#234075"/>
<path d="M290.62 185.8C290.62 184.3 290.62 184.11 289.58 183.41L289.23 183.18C289.08 183.03 289.08 182.6 289.27 182.49C290.16 182.18 292.35 181.18 293.12 180.6C293.27 180.6 293.47 180.68 293.54 180.87C293.46 181.76 293.46 182.33 293.46 182.68C293.46 182.91 293.61 183.1 293.88 183.1C295.5 182.1 297.31 181.14 299.27 181.14C302.47 181.14 303.77 183.33 303.77 185.91V192.53C303.77 195.3 303.85 195.69 305.23 195.88L306.08 196C306.35 196.19 306.27 196.85 306 196.96C304.84 196.88 303.73 196.84 302.38 196.84C301.03 196.84 299.84 196.88 298.8 196.96C298.53 196.84 298.45 196.19 298.72 196L299.45 195.88C300.87 195.65 300.91 195.3 300.91 192.53V186.79C300.91 184.6 299.91 182.98 297.29 182.98C295.83 182.98 294.56 183.6 294.02 184.33C293.52 184.98 293.44 185.52 293.44 186.64V192.53C293.44 195.3 293.52 195.65 294.9 195.88L295.59 196C295.86 196.19 295.78 196.85 295.51 196.96C294.47 196.88 293.35 196.84 292.01 196.84C290.67 196.84 289.47 196.88 288.39 196.96C288.12 196.84 288.04 196.19 288.31 196L289.12 195.88C290.54 195.69 290.58 195.3 290.58 192.53V185.79L290.62 185.8Z" fill="#234075"/>
<path d="M322.99 191.23C322.99 194.27 323.03 195.7 324.11 195.7C324.53 195.7 325.19 195.51 325.77 195.32C326.04 195.4 326.08 196.36 325.73 196.55C324.11 196.78 321.73 197.36 320.65 197.78C320.42 197.78 320.23 197.66 320.23 197.47V196.82C320.23 196.24 320.23 195.78 320.15 195.63H320C318.31 196.79 317 197.4 315.15 197.4C310.88 197.4 308.03 194.05 308.03 190.01C308.03 184.62 312.11 181.16 317.35 181.16C318.66 181.16 319.51 181.35 319.93 181.51C320.12 181.51 320.16 181.28 320.16 180.97V175.16C320.16 172.89 320.12 172.66 318.97 171.96L318.58 171.73C318.39 171.61 318.39 171.07 318.58 170.96C319.54 170.65 321.35 170.07 322.74 169.34C322.89 169.34 323.05 169.42 323.12 169.57C323.08 170.73 323 172.65 323 174.34V191.24L322.99 191.23ZM320.14 185.46C320.14 184.69 319.99 184.34 319.72 183.96C319.14 183.15 317.99 182.34 316.49 182.34C312.99 182.34 311.18 185.38 311.18 188.73C311.18 192.08 313.14 195.54 316.92 195.54C317.96 195.54 319.27 195.08 319.88 194.46C320.11 194.23 320.15 193.65 320.15 193.04V185.46H320.14Z" fill="#234075"/>
<path d="M341.67 174.1C344.48 171.91 348.06 170.83 352.06 170.83C354.14 170.83 357.06 171.25 358.87 171.75C359.33 171.87 359.6 171.94 359.95 171.9C359.99 172.78 360.18 175.21 360.49 177.56C360.3 177.83 359.72 177.87 359.45 177.64C358.87 175.02 357.14 172.02 351.56 172.02C345.67 172.02 340.67 175.75 340.67 183.72C340.67 191.69 345.79 196.27 352.1 196.27C357.07 196.27 359.26 193.04 360.15 190.76C360.42 190.57 361 190.64 361.15 190.91C360.88 192.91 359.88 195.45 359.3 196.18C358.84 196.26 358.38 196.41 357.95 196.56C357.1 196.87 354.33 197.45 351.87 197.45C348.41 197.45 345.09 196.76 342.28 194.87C339.2 192.75 336.81 189.25 336.81 184.28C336.81 180.01 338.73 176.35 341.66 174.08L341.67 174.1Z" fill="#234075"/>
<path d="M367.77 192.54C367.77 195.31 367.85 195.7 369.23 195.89L370.15 196.01C370.42 196.2 370.34 196.86 370.07 196.97C368.8 196.89 367.68 196.85 366.34 196.85C365 196.85 363.8 196.89 362.64 196.97C362.37 196.85 362.29 196.2 362.56 196.01L363.45 195.89C364.87 195.7 364.91 195.31 364.91 192.54V175.14C364.91 172.87 364.87 172.64 363.72 171.94L363.34 171.71C363.15 171.59 363.15 171.05 363.34 170.94C364.3 170.63 366.11 170.05 367.5 169.32C367.65 169.32 367.81 169.4 367.89 169.55C367.85 170.71 367.77 172.63 367.77 174.32V192.53V192.54Z" fill="#234075"/>
<path d="M374.43 185.8C374.43 184.3 374.43 184.11 373.39 183.41L373.04 183.18C372.89 183.03 372.89 182.6 373.08 182.49C373.96 182.18 376.16 181.18 377.04 180.6C377.23 180.6 377.39 180.68 377.42 180.83C377.34 182.18 377.27 184.03 377.27 185.6V192.53C377.27 195.3 377.35 195.69 378.73 195.88L379.54 196C379.81 196.19 379.73 196.85 379.46 196.96C378.3 196.88 377.19 196.84 375.84 196.84C374.49 196.84 373.3 196.88 372.22 196.96C371.95 196.84 371.87 196.19 372.14 196L372.95 195.88C374.37 195.69 374.41 195.3 374.41 192.53V185.79L374.43 185.8ZM377.63 174.83C377.63 176.22 376.67 176.83 375.59 176.83C374.4 176.83 373.63 175.94 373.63 174.91C373.63 173.64 374.55 172.83 375.71 172.83C376.87 172.83 377.63 173.75 377.63 174.83Z" fill="#234075"/>
<path d="M404.34 186.96C404.34 184.34 403.18 182.99 400.76 182.99C399.3 182.99 398.1 183.64 397.56 184.34C397.1 184.92 396.98 185.3 396.98 186.65V192.54C396.98 195.31 397.06 195.7 398.44 195.89L399.25 196.01C399.52 196.2 399.44 196.86 399.17 196.97C398.02 196.89 396.9 196.85 395.55 196.85C394.2 196.85 393.12 196.89 392.05 196.97C391.78 196.85 391.7 196.2 391.97 196.01L392.66 195.89C394.08 195.66 394.12 195.31 394.12 192.54V186.96C394.12 184.38 392.96 182.99 390.58 182.99C389 182.99 387.92 183.68 387.35 184.38C386.97 184.84 386.77 185.34 386.77 186.57V192.54C386.77 195.31 386.85 195.66 388.23 195.89L388.92 196.01C389.19 196.2 389.11 196.86 388.84 196.97C387.8 196.89 386.68 196.85 385.34 196.85C384 196.85 382.8 196.89 381.61 196.97C381.34 196.85 381.26 196.2 381.53 196.01L382.45 195.89C383.87 195.7 383.91 195.31 383.91 192.54V185.8C383.91 184.3 383.91 184.11 382.87 183.41L382.52 183.18C382.37 183.03 382.37 182.6 382.56 182.49C383.44 182.18 385.64 181.18 386.41 180.6C386.56 180.6 386.76 180.68 386.83 180.87C386.75 181.76 386.75 182.33 386.75 182.68C386.75 182.91 386.9 183.1 387.17 183.1C388.63 182.06 390.44 181.14 392.29 181.14C394.14 181.14 395.29 181.83 396.37 183.41C396.72 183.49 396.99 183.33 397.33 183.1C398.87 182.02 400.76 181.14 402.57 181.14C405.65 181.14 407.15 183.26 407.15 185.91V192.53C407.15 195.3 407.23 195.69 408.61 195.88L409.53 196C409.8 196.19 409.72 196.85 409.45 196.96C408.18 196.88 407.06 196.84 405.72 196.84C404.38 196.84 403.29 196.88 402.22 196.96C401.95 196.84 401.87 196.19 402.14 196L402.83 195.88C404.25 195.65 404.29 195.3 404.29 192.53V186.95L404.34 186.96Z" fill="#234075"/>
<path d="M419.2 188.88C419.78 188.69 419.85 188.34 419.85 187.76L419.89 185.99C419.93 184.57 419.47 182.64 417.08 182.64C416 182.64 414.69 183.18 414.62 184.37C414.58 184.99 414.54 185.45 414.24 185.68C413.66 186.14 412.62 186.41 412.05 186.41C411.7 186.41 411.51 186.22 411.51 185.87C411.51 183.87 415.86 181.13 418.67 181.13C421.48 181.13 422.79 182.75 422.67 185.63L422.44 192.33C422.36 194.1 422.71 195.68 424.21 195.68C424.59 195.68 424.94 195.56 425.17 195.45C425.36 195.33 425.56 195.18 425.67 195.18C425.82 195.18 425.94 195.41 425.94 195.68C425.94 195.87 424.59 197.37 422.71 197.37C421.79 197.37 420.86 197.02 420.21 196.18C420.06 195.95 419.83 195.64 419.59 195.64C419.32 195.64 418.86 195.99 418.09 196.41C417.24 196.87 416.4 197.37 415.32 197.37C414.24 197.37 413.28 197.06 412.63 196.48C411.9 195.83 411.44 194.86 411.44 193.79C411.44 192.29 412.17 191.4 414.64 190.52L419.22 188.86L419.2 188.88ZM416.81 195.66C417.58 195.66 418.77 195.08 419.16 194.7C419.62 194.24 419.62 193.7 419.66 192.89L419.74 190.62C419.74 190.2 419.59 190.12 419.36 190.12C419.13 190.12 418.47 190.27 417.78 190.5C415.51 191.27 414.39 191.85 414.39 193.35C414.39 194 414.85 195.66 416.82 195.66H416.81Z" fill="#234075"/>
<path d="M432.18 183.3C431.53 183.3 431.49 183.42 431.49 184.22V191.42C431.49 193.65 431.76 195.69 434.3 195.69C434.68 195.69 435.03 195.61 435.34 195.5C435.69 195.38 436.19 194.96 436.3 194.96C436.61 194.96 436.76 195.38 436.68 195.61C435.99 196.42 434.6 197.38 432.64 197.38C429.33 197.38 428.64 195.53 428.64 193.22V184.4C428.64 183.36 428.6 183.28 427.83 183.28H426.75C426.52 183.13 426.48 182.7 426.63 182.47C427.75 182.12 428.71 181.62 429.09 181.28C429.59 180.82 430.32 179.78 430.71 179.01C430.9 178.93 431.36 178.93 431.52 179.2V180.93C431.52 181.62 431.56 181.66 432.21 181.66H436.48C436.94 182.01 436.86 183.05 436.52 183.28H432.17L432.18 183.3Z" fill="#234075"/>
<path d="M441.69 186.99C440.69 186.99 440.65 187.07 440.65 188.03C440.65 191.92 442.92 195.23 447.04 195.23C448.31 195.23 449.39 194.85 450.58 193.34C450.97 193.22 451.23 193.46 451.27 193.8C450 196.42 447.23 197.38 445.23 197.38C442.73 197.38 440.76 196.3 439.65 194.84C438.5 193.34 438.03 191.53 438.03 189.84C438.03 185.1 441.15 181.14 445.77 181.14C449.08 181.14 451.24 183.41 451.24 185.72C451.24 186.26 451.16 186.57 451.09 186.72C450.97 186.95 450.44 186.99 448.82 186.99H441.7H441.69ZM444.08 185.83C446.93 185.83 447.78 185.68 448.08 185.45C448.2 185.37 448.31 185.22 448.31 184.72C448.31 183.64 447.58 182.3 445.35 182.3C443.12 182.3 441.12 184.38 441.08 185.65C441.08 185.73 441.08 185.84 441.35 185.84H444.08V185.83Z" fill="#234075"/>
<path d="M465.71 177.25C465.71 173.59 465.59 172.94 464.02 172.75L462.79 172.6C462.52 172.41 462.52 171.79 462.83 171.64C464.99 171.45 467.64 171.33 471.41 171.33C473.8 171.33 476.07 171.52 477.84 172.49C479.69 173.45 481.04 175.18 481.04 177.88C481.04 181.54 478.15 183.54 476.23 184.31C476.04 184.54 476.23 184.93 476.42 185.23C479.5 190.2 481.54 193.28 484.16 195.47C484.81 196.05 485.78 196.47 486.82 196.55C487.01 196.63 487.05 196.93 486.86 197.09C486.51 197.21 485.9 197.28 485.17 197.28C481.9 197.28 479.93 196.32 477.2 192.43C476.2 191.01 474.62 188.35 473.43 186.62C472.85 185.77 472.24 185.39 470.7 185.39C468.97 185.39 468.89 185.43 468.89 186.24V191.09C468.89 195.13 468.97 195.59 471.2 195.9L472.01 196.02C472.24 196.21 472.16 196.87 471.93 196.98C470.2 196.9 468.89 196.86 467.35 196.86C465.73 196.86 464.35 196.9 462.54 196.98C462.31 196.86 462.23 196.29 462.46 196.02L463.42 195.9C465.65 195.63 465.73 195.13 465.73 191.09V177.27L465.71 177.25ZM468.87 182.76C468.87 183.45 468.87 183.88 468.99 184.03C469.11 184.15 469.68 184.22 471.65 184.22C473.04 184.22 474.5 184.07 475.61 183.22C476.65 182.41 477.54 181.06 477.54 178.45C477.54 175.41 475.65 172.52 471.38 172.52C468.99 172.52 468.88 172.67 468.88 173.75V182.76H468.87Z" fill="#234075"/>
<path d="M489.77 186.99C488.77 186.99 488.73 187.07 488.73 188.03C488.73 191.92 491 195.23 495.12 195.23C496.39 195.23 497.47 194.85 498.66 193.34C499.05 193.22 499.31 193.46 499.35 193.8C498.08 196.42 495.31 197.38 493.31 197.38C490.81 197.38 488.84 196.3 487.73 194.84C486.58 193.34 486.11 191.53 486.11 189.84C486.11 185.1 489.23 181.14 493.85 181.14C497.16 181.14 499.32 183.41 499.32 185.72C499.32 186.26 499.24 186.57 499.17 186.72C499.05 186.95 498.52 186.99 496.9 186.99H489.78H489.77ZM492.16 185.83C495.01 185.83 495.86 185.68 496.16 185.45C496.28 185.37 496.39 185.22 496.39 184.72C496.39 183.64 495.66 182.3 493.43 182.3C491.2 182.3 489.2 184.38 489.16 185.65C489.16 185.73 489.16 185.84 489.43 185.84H492.16V185.83Z" fill="#234075"/>
<path d="M508.75 188.88C509.33 188.69 509.4 188.34 509.4 187.76L509.44 185.99C509.48 184.57 509.02 182.64 506.63 182.64C505.55 182.64 504.24 183.18 504.17 184.37C504.13 184.99 504.09 185.45 503.79 185.68C503.21 186.14 502.17 186.41 501.6 186.41C501.25 186.41 501.06 186.22 501.06 185.87C501.06 183.87 505.41 181.13 508.22 181.13C511.03 181.13 512.34 182.75 512.22 185.63L511.99 192.33C511.91 194.1 512.26 195.68 513.76 195.68C514.14 195.68 514.49 195.56 514.72 195.45C514.91 195.33 515.11 195.18 515.22 195.18C515.37 195.18 515.49 195.41 515.49 195.68C515.49 195.87 514.14 197.37 512.26 197.37C511.34 197.37 510.41 197.02 509.76 196.18C509.61 195.95 509.38 195.64 509.14 195.64C508.87 195.64 508.41 195.99 507.64 196.41C506.79 196.87 505.95 197.37 504.87 197.37C503.79 197.37 502.83 197.06 502.18 196.48C501.45 195.83 500.99 194.86 500.99 193.79C500.99 192.29 501.72 191.4 504.19 190.52L508.77 188.86L508.75 188.88ZM506.36 195.66C507.13 195.66 508.32 195.08 508.71 194.7C509.17 194.24 509.17 193.7 509.21 192.89L509.29 190.62C509.29 190.2 509.14 190.12 508.91 190.12C508.68 190.12 508.02 190.27 507.33 190.5C505.06 191.27 503.94 191.85 503.94 193.35C503.94 194 504.4 195.66 506.37 195.66H506.36Z" fill="#234075"/>
<path d="M531.12 191.23C531.12 194.27 531.16 195.7 532.24 195.7C532.66 195.7 533.32 195.51 533.9 195.32C534.17 195.4 534.21 196.36 533.86 196.55C532.24 196.78 529.86 197.36 528.78 197.78C528.55 197.78 528.36 197.66 528.36 197.47V196.82C528.36 196.24 528.36 195.78 528.28 195.63H528.13C526.44 196.79 525.13 197.4 523.28 197.4C519.01 197.4 516.16 194.05 516.16 190.01C516.16 184.62 520.24 181.16 525.48 181.16C526.79 181.16 527.64 181.35 528.06 181.51C528.25 181.51 528.29 181.28 528.29 180.97V175.16C528.29 172.89 528.25 172.66 527.1 171.96L526.71 171.73C526.52 171.61 526.52 171.07 526.71 170.96C527.67 170.65 529.48 170.07 530.87 169.34C531.02 169.34 531.18 169.42 531.25 169.57C531.21 170.73 531.13 172.65 531.13 174.34V191.24L531.12 191.23ZM528.27 185.46C528.27 184.69 528.12 184.34 527.85 183.96C527.27 183.15 526.12 182.34 524.62 182.34C521.12 182.34 519.31 185.38 519.31 188.73C519.31 192.08 521.27 195.54 525.05 195.54C526.09 195.54 527.4 195.08 528.01 194.46C528.24 194.23 528.28 193.65 528.28 193.04V185.46H528.27Z" fill="#234075"/>
<path d="M537.78 185.8C537.78 184.3 537.78 184.11 536.74 183.41L536.39 183.18C536.24 183.03 536.24 182.6 536.43 182.49C537.31 182.18 539.51 181.18 540.39 180.6C540.58 180.6 540.74 180.68 540.77 180.83C540.69 182.18 540.62 184.03 540.62 185.6V192.53C540.62 195.3 540.7 195.69 542.08 195.88L542.89 196C543.16 196.19 543.08 196.85 542.81 196.96C541.65 196.88 540.54 196.84 539.19 196.84C537.84 196.84 536.65 196.88 535.57 196.96C535.3 196.84 535.22 196.19 535.49 196L536.3 195.88C537.72 195.69 537.76 195.3 537.76 192.53V185.79L537.78 185.8ZM540.98 174.83C540.98 176.22 540.02 176.83 538.94 176.83C537.75 176.83 536.98 175.94 536.98 174.91C536.98 173.64 537.9 172.83 539.06 172.83C540.22 172.83 540.98 173.75 540.98 174.83Z" fill="#234075"/>
<path d="M547.29 185.8C547.29 184.3 547.29 184.11 546.25 183.41L545.9 183.18C545.75 183.03 545.75 182.6 545.94 182.49C546.82 182.18 549.02 181.18 549.79 180.6C549.94 180.6 550.14 180.68 550.21 180.87C550.13 181.76 550.13 182.33 550.13 182.68C550.13 182.91 550.28 183.1 550.55 183.1C552.17 182.1 553.98 181.14 555.94 181.14C559.14 181.14 560.44 183.33 560.44 185.91V192.53C560.44 195.3 560.52 195.69 561.9 195.88L562.75 196C563.02 196.19 562.94 196.85 562.67 196.96C561.51 196.88 560.4 196.84 559.05 196.84C557.7 196.84 556.51 196.88 555.47 196.96C555.2 196.84 555.12 196.19 555.39 196L556.12 195.88C557.54 195.65 557.58 195.3 557.58 192.53V186.79C557.58 184.6 556.58 182.98 553.96 182.98C552.5 182.98 551.23 183.6 550.69 184.33C550.19 184.98 550.11 185.52 550.11 186.64V192.53C550.11 195.3 550.19 195.65 551.57 195.88L552.26 196C552.53 196.19 552.45 196.85 552.18 196.96C551.14 196.88 550.02 196.84 548.68 196.84C547.34 196.84 546.14 196.88 545.06 196.96C544.79 196.84 544.71 196.19 544.98 196L545.79 195.88C547.21 195.69 547.25 195.3 547.25 192.53V185.79L547.29 185.8Z" fill="#234075"/>
<path d="M568.35 186.99C567.35 186.99 567.31 187.07 567.31 188.03C567.31 191.92 569.58 195.23 573.7 195.23C574.97 195.23 576.05 194.85 577.24 193.34C577.63 193.22 577.89 193.46 577.93 193.8C576.66 196.42 573.89 197.38 571.89 197.38C569.39 197.38 567.42 196.3 566.31 194.84C565.16 193.34 564.69 191.53 564.69 189.84C564.69 185.1 567.81 181.14 572.43 181.14C575.74 181.14 577.9 183.41 577.9 185.72C577.9 186.26 577.82 186.57 577.75 186.72C577.63 186.95 577.1 186.99 575.48 186.99H568.36H568.35ZM570.74 185.83C573.59 185.83 574.44 185.68 574.74 185.45C574.86 185.37 574.97 185.22 574.97 184.72C574.97 183.64 574.24 182.3 572.01 182.3C569.78 182.3 567.78 184.38 567.74 185.65C567.74 185.73 567.74 185.84 568.01 185.84H570.74V185.83Z" fill="#234075"/>
<path d="M588.76 181.84C589.11 182.69 589.38 183.92 589.38 184.96C589.23 185.23 588.65 185.31 588.46 185.08C587.81 183.39 586.65 182.27 585.07 182.27C583.49 182.27 582.61 183.23 582.61 184.62C582.61 186.2 584.23 187.04 585.57 187.82C587.61 188.98 589.5 190.28 589.5 193.02C589.5 195.95 586.8 197.41 583.96 197.41C582.15 197.41 580.8 197.03 579.84 196.25C579.53 195.52 579.3 193.63 579.38 192.36C579.57 192.13 580.07 192.09 580.26 192.32C580.92 194.44 582.15 196.29 584.34 196.29C585.73 196.29 586.92 195.48 586.92 193.83C586.92 192.06 585.38 191.1 583.96 190.29C581.73 189.02 580.15 187.67 580.15 185.55C580.15 182.74 582.46 181.16 585.39 181.16C587.01 181.16 588.43 181.54 588.78 181.85L588.76 181.84Z" fill="#234075"/>
<path d="M600.81 181.84C601.16 182.69 601.43 183.92 601.43 184.96C601.28 185.23 600.7 185.31 600.51 185.08C599.86 183.39 598.7 182.27 597.12 182.27C595.54 182.27 594.66 183.23 594.66 184.62C594.66 186.2 596.28 187.04 597.62 187.82C599.66 188.98 601.55 190.28 601.55 193.02C601.55 195.95 598.85 197.41 596.01 197.41C594.2 197.41 592.85 197.03 591.89 196.25C591.58 195.52 591.35 193.63 591.43 192.36C591.62 192.13 592.12 192.09 592.31 192.32C592.97 194.44 594.2 196.29 596.39 196.29C597.78 196.29 598.97 195.48 598.97 193.83C598.97 192.06 597.43 191.1 596.01 190.29C593.78 189.02 592.2 187.67 592.2 185.55C592.2 182.74 594.51 181.16 597.44 181.16C599.06 181.16 600.48 181.54 600.83 181.85L600.81 181.84Z" fill="#234075"/>
<path d="M73.1199 148.62C73.1199 145.95 72.9299 145.24 71.1299 145.1L69.8799 145.01C69.6799 144.85 69.7299 144.12 69.9199 144.11C72.0799 143.92 74.8099 143.82 78.5399 143.82C81.0599 143.82 83.4699 144 85.2699 144.83C86.9899 145.59 88.3199 147.03 88.3199 149.34C88.3199 151.94 86.6399 153.28 84.2299 154.28C84.2299 154.64 84.5499 154.75 84.9899 154.82C87.1499 155.18 90.3599 156.99 90.3599 160.85C90.3599 165.04 86.9099 167.86 79.6999 167.86C78.5399 167.86 76.5699 167.75 74.8899 167.75C73.2099 167.75 71.7599 167.82 70.2799 167.86C70.0399 167.75 69.9599 167.17 70.1999 166.96L70.9199 166.85C73.0399 166.52 73.1199 166.13 73.1199 162.34V148.62ZM76.4099 153.42C76.4099 154.43 76.4499 154.5 78.4899 154.43C82.5799 154.28 84.7799 153.2 84.7799 149.81C84.7799 146.42 81.8499 144.94 78.8099 144.94C77.9299 144.94 77.3299 145.01 76.9699 145.16C76.5699 145.27 76.4099 145.45 76.4099 146.1V153.43V153.42ZM76.4099 161.8C76.4099 163.1 76.4899 164.94 77.2499 165.74C78.0099 166.57 79.2099 166.75 80.4199 166.75C83.9899 166.75 86.7099 165.31 86.7099 161.7C86.7099 158.85 85.1099 155.52 78.7299 155.52C76.5699 155.52 76.4099 155.74 76.4099 156.46V161.8Z" fill="#234075"/>
<path d="M118.21 152.17C118.21 148.9 118.14 148.38 116.12 148.22L115.26 148.16C115.06 148.04 115.12 147.48 115.33 147.39C117.04 147.45 118.21 147.48 119.64 147.48C121.07 147.48 122.17 147.45 123.88 147.39C124.09 147.48 124.15 148.04 123.95 148.16L123.09 148.22C121.07 148.38 121 148.9 121 152.17V163.15C121 166.42 121.07 166.85 123.09 167.07L123.95 167.16C124.16 167.28 124.09 167.84 123.88 167.93C122.17 167.87 121 167.84 119.64 167.84C118.2 167.84 117.04 167.87 115.33 167.93C115.13 167.84 115.06 167.35 115.26 167.16L116.12 167.07C118.14 166.86 118.21 166.42 118.21 163.15V152.17Z" fill="#234075"/>
<path d="M137.21 163.21C137.21 166.45 137.27 166.91 139.13 167.07L140.16 167.16C140.35 167.28 140.29 167.84 140.1 167.93C138.27 167.87 137.18 167.84 135.9 167.84C134.62 167.84 133.49 167.87 131.44 167.93C131.25 167.84 131.18 167.31 131.44 167.16L132.6 167.07C134.43 166.91 134.59 166.45 134.59 163.21V149.42C134.59 148.47 134.59 148.44 133.63 148.44H131.87C130.49 148.44 128.73 148.5 127.92 149.21C127.15 149.89 126.83 150.57 126.48 151.34C126.22 151.53 125.78 151.37 125.65 151.13C126.16 149.74 126.65 147.77 126.87 146.53C126.97 146.47 127.38 146.44 127.48 146.53C127.67 147.52 128.73 147.49 130.21 147.49H143.2C144.93 147.49 145.22 147.43 145.7 146.63C145.86 146.57 146.21 146.6 146.28 146.72C145.93 147.98 145.7 150.48 145.8 151.41C145.67 151.66 145.13 151.66 144.97 151.47C144.87 150.7 144.65 149.56 144.17 149.22C143.43 148.7 142.21 148.45 140.45 148.45H138.17C137.21 148.45 137.24 148.48 137.24 149.5V163.22L137.21 163.21Z" fill="#234075"/>
<path d="M150.95 152.17C150.95 148.9 150.88 148.38 148.86 148.22L148 148.16C147.79 148.04 147.86 147.48 148.07 147.39C149.78 147.45 150.95 147.48 152.38 147.48C153.81 147.48 154.91 147.45 156.62 147.39C156.83 147.48 156.89 148.04 156.69 148.16L155.83 148.22C153.81 148.38 153.74 148.9 153.74 152.17V163.15C153.74 166.42 153.81 166.85 155.83 167.07L156.69 167.16C156.89 167.28 156.83 167.84 156.62 167.93C154.91 167.87 153.74 167.84 152.38 167.84C150.94 167.84 149.78 167.87 148.07 167.93C147.86 167.84 147.8 167.35 148 167.16L148.86 167.07C150.88 166.86 150.95 166.42 150.95 163.15V152.17Z" fill="#234075"/>
<path d="M166.3 168.25C163.24 168.25 161.31 167.45 160.62 167.11C160.18 166.43 159.71 164.24 159.64 162.79C159.82 162.57 160.37 162.51 160.51 162.7C161.05 164.27 162.55 167.29 166.77 167.29C169.83 167.29 171.32 165.6 171.32 163.75C171.32 162.39 170.99 160.88 168.34 159.43L164.88 157.52C163.06 156.5 160.95 154.74 160.95 152.21C160.95 149.28 163.64 146.91 168.37 146.91C169.5 146.91 170.81 147.1 171.75 147.31C172.22 147.43 172.73 147.49 173.02 147.49C173.35 148.23 173.68 149.96 173.68 151.25C173.53 151.44 172.95 151.53 172.77 151.34C172.3 149.86 171.31 147.85 167.82 147.85C164.33 147.85 163.49 149.85 163.49 151.27C163.49 153.06 165.24 154.36 166.58 155.06L169.49 156.6C171.78 157.8 174.04 159.59 174.04 162.52C174.04 165.91 171.02 168.23 166.29 168.23L166.3 168.25Z" fill="#234075"/>
<path d="M184.61 157.88C183.02 157.88 182.95 157.94 182.95 158.87V163.22C182.95 166.46 183.12 166.89 184.97 167.08L185.93 167.17C186.13 167.29 186.06 167.85 185.86 167.94C184.07 167.88 182.94 167.85 181.64 167.85C180.21 167.85 179.08 167.91 177.79 167.94C177.59 167.85 177.52 167.36 177.72 167.17L178.28 167.08C180.14 166.77 180.2 166.46 180.2 163.22V152.12C180.2 148.88 179.97 148.36 178.24 148.23L177.38 148.17C177.18 148.05 177.25 147.49 177.45 147.4C179.08 147.43 180.2 147.49 181.63 147.49C182.92 147.49 184.05 147.46 185.48 147.4C185.68 147.49 185.75 148.05 185.55 148.17L184.92 148.23C182.99 148.42 182.93 148.88 182.93 152.12V155.66C182.93 156.62 183 156.65 184.59 156.65H194.08C195.67 156.65 195.74 156.62 195.74 155.66V152.12C195.74 148.88 195.67 148.42 193.71 148.23L193.08 148.17C192.88 148.05 192.95 147.49 193.15 147.4C194.68 147.46 195.81 147.49 197.17 147.49C198.53 147.49 199.59 147.46 201.09 147.4C201.29 147.49 201.36 148.05 201.16 148.17L200.46 148.23C198.54 148.42 198.47 148.88 198.47 152.12V163.22C198.47 166.46 198.54 166.86 200.46 167.08L201.26 167.17C201.46 167.29 201.39 167.85 201.19 167.94C199.6 167.88 198.47 167.85 197.17 167.85C195.81 167.85 194.62 167.88 193.15 167.94C192.95 167.85 192.88 167.36 193.08 167.17L193.71 167.08C195.74 166.77 195.74 166.46 195.74 163.22V158.87C195.74 157.95 195.67 157.88 194.08 157.88H184.59H184.61Z" fill="#234075"/>
<path d="M54.1299 174.71C56.8599 172.59 60.3299 171.55 64.2199 171.55C66.2399 171.55 69.0799 171.96 70.8399 172.44C71.2899 172.55 71.5499 172.63 71.8899 172.59C71.9299 173.45 72.1099 175.79 72.4099 178.06C72.2199 178.32 71.6599 178.36 71.3999 178.13C70.8399 175.6 69.1599 172.69 63.7399 172.69C58.0199 172.69 53.1699 176.3 53.1699 184.01C53.1699 191.72 58.1399 196.15 64.2699 196.15C69.0899 196.15 71.2199 193.02 72.0799 190.82C72.3399 190.63 72.8999 190.71 73.0499 190.97C72.7899 192.91 71.8199 195.36 71.2599 196.07C70.8099 196.15 70.3599 196.29 69.9499 196.44C69.1299 196.74 66.4399 197.3 64.0499 197.3C60.6899 197.3 57.4699 196.63 54.7499 194.8C51.7599 192.75 49.4399 189.36 49.4399 184.56C49.4399 180.43 51.3099 176.89 54.1499 174.69L54.1299 174.71Z" fill="#234075"/>
<path d="M74.5698 186.75C74.5698 180.58 79.4298 175.86 86.0998 175.86C93.5798 175.86 97.3398 181.01 97.3398 186.44C97.3398 192.67 92.3498 197.2 86.0998 197.2C78.9098 197.2 74.5698 192.3 74.5698 186.75ZM94.0998 187.4C94.0998 182.31 91.7398 176.82 85.5498 176.82C82.1798 176.82 77.8098 179.01 77.8098 185.77C77.8098 190.33 80.1398 196.26 86.5198 196.26C90.4098 196.26 94.0998 193.48 94.0998 187.41V187.4Z" fill="#234075"/>
<path d="M133.87 184.1C133.87 182.19 133.8 178.64 133.25 177.72C133.02 177.35 132.43 177.13 131.62 177.07L130.8 177.01C130.6 176.79 130.67 176.39 130.86 176.27C132.1 176.33 133.31 176.36 134.59 176.36C135.96 176.36 136.85 176.33 138.02 176.27C138.28 176.42 138.25 176.82 138.09 177.01L137.3 177.07C136.48 177.13 135.86 177.41 135.67 177.81C135.21 178.83 135.21 182.37 135.21 184.1V187.59C135.21 190.27 134.75 193.11 132.92 194.96C131.51 196.41 129.09 197.21 126.67 197.21C124.41 197.21 122.16 196.81 120.56 195.51C118.83 194.15 118.01 191.9 118.01 188.23V180.95C118.01 177.74 117.94 177.22 116.05 177.07L115.23 177.01C115.03 176.89 115.1 176.36 115.3 176.27C116.93 176.33 118.05 176.36 119.35 176.36C120.65 176.36 121.77 176.33 123.37 176.27C123.57 176.36 123.63 176.89 123.44 177.01L122.65 177.07C120.75 177.22 120.69 177.75 120.69 180.95V187.61C120.69 192.58 122.32 195.85 127.33 195.85C132.07 195.85 133.87 192.33 133.87 187.65V184.1Z" fill="#234075"/>
<path d="M171.87 180.25C171.87 177.95 171.72 177.35 170.1 177.23L168.94 177.12C168.81 177 168.74 176.38 168.98 176.36C170.93 176.21 173.39 176.11 176.75 176.11C179.03 176.11 181.19 176.27 182.82 176.98C184.37 177.63 185.56 178.88 185.56 180.87C185.56 183.11 184.04 184.27 181.88 185.14C181.88 185.45 182.17 185.55 182.57 185.61C184.52 185.92 187.41 187.48 187.41 190.81C187.41 194.42 184.3 196.85 177.8 196.85C176.75 196.85 174.98 196.76 173.47 196.76C171.96 196.76 170.65 196.82 169.31 196.85C169.09 196.76 169.02 196.26 169.24 196.07L169.89 195.97C171.81 195.69 171.88 195.35 171.88 192.08V180.24L171.87 180.25ZM174.83 184.39C174.83 185.26 174.87 185.32 176.71 185.26C180.4 185.14 182.38 184.2 182.38 181.27C182.38 178.34 179.74 177.07 177 177.07C176.2 177.07 175.66 177.13 175.34 177.26C174.98 177.35 174.84 177.51 174.84 178.07V184.39H174.83ZM174.83 191.62C174.83 192.74 174.9 194.33 175.59 195.01C176.28 195.73 177.36 195.88 178.44 195.88C181.66 195.88 184.11 194.63 184.11 191.52C184.11 189.06 182.66 186.19 176.92 186.19C174.97 186.19 174.82 186.38 174.82 187V191.61L174.83 191.62Z" fill="#234075"/>
<path d="M112.98 167.16L112.12 167.09C111.95 167.07 111.79 167.05 111.65 167.03C110.4 166.81 109.9 165.69 109.31 164.66L106.35 159.5C105.84 158.64 105.29 157.48 104.12 157.32C107.15 156.96 109.89 155.2 109.89 152.2C109.89 148.73 106.45 147.18 102.98 147.18C100.9 147.18 98.9999 147.24 96.8799 147.24C95.7099 147.24 94.3199 147.18 93.1499 147.18C92.4999 147.18 92.4899 147.31 92.4899 147.68C92.4899 148.22 92.7199 148.07 93.3999 148.1C95.8699 148.24 95.7699 148.7 95.7699 150.81V164.33C95.7699 166.26 95.9399 166.84 93.9099 167.02C93.9099 167.02 93.5999 167.05 93.4199 167.07L92.5599 167.16C92.3499 167.34 92.4199 167.84 92.6299 167.93C93.0899 167.91 93.8999 167.88 93.8999 167.88C95.0199 167.85 96.1499 167.76 97.2699 167.76C98.3899 167.76 99.4799 167.85 100.59 167.88C100.99 167.9 101.4 167.91 101.86 167.93C102.07 167.84 102.13 167.34 101.93 167.16L101.06 167.08C100.88 167.06 100.58 167.03 100.58 167.03C98.5299 166.89 98.6499 166.31 98.6499 164.33V159.24C98.6499 158.94 98.6099 158.15 98.8299 157.92C99.0099 157.72 99.3399 157.76 99.6299 157.76C102.41 157.76 102.37 158.02 103.69 160.34L107.27 166.79C107.56 167.29 107.78 167.91 108.51 167.91H111.62C112.01 167.92 112.43 167.93 112.88 167.95C113.09 167.86 113.15 167.37 112.95 167.18L112.98 167.16ZM100.5 157.03C99.8799 157.03 98.6299 157.26 98.6299 156.44V150.52C98.6299 148.21 98.7099 147.88 101.48 147.88C104.73 147.88 106.74 149.53 106.74 152.57C106.74 153.89 106.26 155.11 105.06 155.94C103.67 156.9 102.17 157.03 100.49 157.03H100.5Z" fill="#234075"/>
<path d="M101.17 181.06C101.17 177.82 101.1 177.33 98.9699 177.17L98.1199 177.11C97.9199 176.99 97.9799 176.43 98.1899 176.34C100.09 176.4 101.24 176.43 102.6 176.43C103.96 176.43 105.08 176.4 106.77 176.34C106.97 176.43 107.04 176.99 106.84 177.11L106.03 177.17C104.03 177.32 103.96 177.82 103.96 181.06V191.79C103.96 193.73 104.06 194.53 104.67 195.12C105.04 195.46 105.69 195.83 108.37 195.83C111.25 195.83 111.97 195.71 112.51 195.43C113.19 195.06 114.07 193.95 114.75 192.38C114.95 192.23 115.6 192.35 115.6 192.57C115.6 192.91 114.65 196.06 114.18 196.89C112.45 196.83 109.23 196.8 105.73 196.8H102.61C101.19 196.8 100.1 196.83 98.1999 196.89C97.9999 196.8 97.9299 196.3 98.1299 196.12L99.1499 196.03C101.12 195.84 101.19 195.41 101.19 192.17V181.07L101.17 181.06Z" fill="#234075"/>
<path d="M192.06 181.12C192.06 177.85 191.99 177.33 190.03 177.17L189.2 177.11C189 176.99 189.07 176.43 189.27 176.34C190.94 176.4 192.07 176.43 193.47 176.43C194.87 176.43 195.94 176.4 197.6 176.34C197.8 176.43 197.87 176.99 197.67 177.11L196.84 177.17C194.88 177.32 194.81 177.85 194.81 181.12V192.1C194.81 195.37 194.88 195.8 196.84 196.02L197.67 196.11C197.87 196.23 197.8 196.79 197.6 196.88C195.93 196.82 194.8 196.79 193.47 196.79C192.07 196.79 190.94 196.82 189.27 196.88C189.07 196.79 189 196.29 189.2 196.11L190.03 196.02C192 195.81 192.06 195.37 192.06 192.1V181.12Z" fill="#234075"/>
<path d="M165.44 196.01C165.27 195.99 164.95 195.96 164.95 195.96C164.6 195.92 164.28 195.88 164.03 195.6C163.6 195.14 163.63 193.83 163.63 193.31V179.79C163.63 179.2 163.49 177.93 163.92 177.47C164.14 177.23 164.59 177.19 164.99 177.16C165.23 177.14 165.24 177.14 165.45 177.13L166.31 177.07C166.52 176.95 166.45 176.39 166.24 176.3C165.78 176.32 165.37 176.31 164.97 176.32H161.33C160.93 176.32 160.57 176.32 160.36 176.75L152.94 192.2L146.39 177.28C146.17 176.75 146.14 176.33 145.45 176.33H141.66C141.27 176.32 140.83 176.33 140.37 176.31C140.16 176.4 140.1 176.96 140.3 177.08L141.16 177.14C141.34 177.15 141.66 177.18 141.66 177.18C143.08 177.27 143.17 177.59 143.04 179.08L141.93 193.58C141.83 195.03 141.75 195.8 140.23 195.95C140.23 195.95 139.91 195.99 139.73 196.01L138.87 196.1C138.66 196.28 138.73 196.78 138.94 196.87C139.39 196.85 140.19 196.83 140.19 196.83C140.96 196.79 141.75 196.72 142.54 196.72C143.39 196.72 144.24 196.8 145.09 196.83C145.48 196.84 145.9 196.86 146.36 196.87C146.56 196.78 146.63 196.29 146.43 196.1L145.57 196.01C145.34 195.99 145.09 195.97 145.09 195.97C142.89 195.82 142.94 194.27 143.08 192.37L144.12 178.89H144.37L151.46 195.48C151.53 195.71 151.64 196.1 152 196.1C152.33 196.1 152.43 195.74 152.54 195.51L160.53 178.49H160.78V193.32C160.78 193.91 160.85 195.12 160.24 195.58C159.92 195.82 158.88 195.96 158.88 195.96C158.74 195.98 158.59 196 158.42 196.02L157.56 196.11C157.35 196.29 157.42 196.79 157.63 196.88C158.08 196.87 158.88 196.84 158.88 196.84C160.04 196.81 161.22 196.72 162.4 196.72C163.25 196.72 164.91 196.8 164.91 196.8C165.3 196.81 165.76 196.85 166.21 196.87C166.42 196.78 166.48 196.28 166.28 196.1L165.43 196.01H165.44Z" fill="#234075"/>
<path d="M221.07 196.1L220.96 196.01C220.79 195.99 220.64 195.97 220.49 195.95C219.16 195.65 218.64 194.04 218.14 192.9L211.28 176.65C211.21 176.46 211.08 176.04 210.8 176.04C210.43 176.04 210.32 176.49 210.22 176.75L203.66 192.96C203.42 193.57 202.81 195.06 202.37 195.51C202.03 195.86 201.59 195.92 201.12 195.97C201.12 195.97 200.75 196.01 200.57 196.02L199.76 196.1C199.55 196.28 199.62 196.78 199.83 196.87C200.29 196.86 201.1 196.83 201.1 196.83C202 196.82 202.89 196.71 203.79 196.71C204.54 196.71 205.3 196.79 206.06 196.82C206.06 196.82 206.87 196.85 207.33 196.87C207.54 196.78 207.6 196.28 207.4 196.1L206.54 196.01C206.37 195.99 206.08 195.96 206.08 195.96C205.29 195.87 204.31 195.73 204.31 194.87C204.31 194.29 204.58 193.61 204.79 193.09L205.81 190.66C206.32 189.5 206.12 189.36 207.47 189.36H212.09C213.72 189.36 213.48 189.36 214.2 191.01L215.29 193.47C215.46 193.89 215.77 194.6 215.77 195.06C215.77 195.87 214.88 195.93 214.05 196C214.05 196 213.78 196.02 213.54 196.04L212.72 196.1C212.51 196.28 212.58 196.78 212.79 196.87C213.25 196.85 214.06 196.82 214.06 196.82C215.03 196.78 216 196.71 216.93 196.71C218.12 196.71 219.31 196.79 220.5 196.82C220.89 196.83 220.56 196.85 221.01 196.86C221.21 196.77 221.28 196.27 221.08 196.09L221.07 196.1ZM212.08 188.46H208.08C207.94 188.46 206.83 188.59 206.83 188.26C206.83 188.16 206.9 187.97 206.93 187.87L209.33 181.92C209.4 181.76 209.64 180.94 209.92 180.94C210.13 180.94 210.41 181.79 210.48 181.92L212.85 187.48C212.85 187.55 213.09 188.07 213.09 188.2C213.09 188.56 212.29 188.46 212.08 188.46Z" fill="#234075"/>
<path d="M87.3 125.79C108.98 125.79 138.97 138 160.73 138C176.26 138 191.41 133.86 200.04 127.75C200.64 124.17 200.96 120.49 200.96 116.73C200.96 80.29 171.42 50.75 134.98 50.75C98.54 50.75 69 80.29 69 116.73C69 120.44 69.31 124.08 69.9 127.62C72.28 127.18 80.36 125.78 87.29 125.78L87.3 125.79Z" fill="white"/>
<path d="M177.61 101.48L180.22 102.56L186 98.53L177.61 101.48Z" fill="#E3A82B"/>
<path d="M80.4001 96.97L73.5401 94.56L73.8801 93.72L81.6001 96.3L81.6301 96.28L82.6501 95.7L83.0601 95.45L74.6401 91.87L75.0001 90.99L93.8001 98.59L94.4201 98.33L75.7801 89.25L76.2001 88.4L95.9501 97.59L96.2201 97.45L77.0701 86.59L77.4601 85.77L105.12 100.82C105.35 100.4 105.82 99.64 106.07 99.23C95.5501 89.34 85.4101 81.92 85.4101 81.92C85.4101 81.92 95.8501 88.91 108.73 95.41C109.16 94.88 109.5 94.45 109.96 93.95L86.3601 73.18L86.9901 72.53L106.04 88.76L88.4001 71.09L89.0601 70.41L108.87 89.55L90.4301 69.08L91.1401 68.44L108.18 86.69L92.6301 67.09L93.3001 66.48L113.24 90.75C113.75 90.3 114.18 89.97 114.72 89.56C108.69 76.51 102.1 65.89 102.1 65.89C102.1 65.89 109.11 76.21 118.57 87.02C119.15 86.7 119.73 86.38 120.33 86.09L120.23 86.02L106.26 58.13L107.09 57.76L118.67 79.94L108.93 56.95L109.8 56.56L121 81.73L111.57 55.85L112.46 55.52L121.43 78.83L114.35 54.83L115.2 54.52L124.52 84.29L124.5 84.37H124.52C125.14 84.15 125.77 83.97 126.4 83.8C125.69 69.5 123.58 57.27 123.58 57.27C123.58 57.27 126.2 69.39 130.89 82.91C131.54 82.83 132.2 82.76 132.87 82.72L132.85 82.69H132.93L132.88 82.62L130.37 51.53L131.28 51.5L133.7 76.41L133.28 51.44L134.23 51.41L135.18 78.94L136.13 51.41L137.08 51.44L136.66 76.41L139.08 51.5L139.99 51.53L137.48 82.62L137.43 82.69H137.47C138.12 82.73 138.76 82.8 139.4 82.87C144.09 69.37 146.7 57.26 146.7 57.26C146.7 57.26 144.59 69.45 143.88 83.72C144.52 83.89 145.15 84.08 145.78 84.28L155.07 54.62L155.92 54.93L148.84 78.93L157.81 55.63L158.7 55.96L149.27 81.84L160.46 56.67L161.33 57.06L151.59 80.05L163.17 57.87L164 58.24L150.08 86.03H150.1C150.67 86.32 151.24 86.62 151.79 86.93C161.21 76.16 168.18 65.9 168.18 65.9C168.18 65.9 161.64 76.44 155.62 89.43C156.16 89.84 156.68 90.26 157.19 90.69L176.89 66.69L177.56 67.3L162 86.9L179.04 68.65L179.74 69.29L161.3 89.76L181.11 70.61L181.77 71.29L164.13 88.96L183.17 72.73L183.8 73.38L160.49 93.92H160.5C160.91 94.39 161.3 94.86 161.68 95.33C174.48 88.86 184.82 81.93 184.82 81.93C184.82 81.93 174.77 89.28 164.31 99.1C164.6 99.58 165.06 100.4 165.32 100.89L192.59 86.04L192.99 86.86L171.22 99.2L193.86 88.66L194.27 89.51L173.18 99.78L173.59 99.92L195.05 91.24L195.41 92.12L175.47 100.6L175.84 100.75L189.13 96.32L191.13 94.92L191.79 95.43L196.16 93.97L196.5 94.81L192.72 96.14L198.19 100.31L199.94 101.29C192.91 71.91 166.48 50.07 134.95 50.07C103.42 50.07 76.0601 72.69 69.6101 102.85C69.6901 102.81 69.7701 102.77 69.8601 102.73L70.6601 102.37L71.1501 102.14L80.3701 96.97H80.4001Z" fill="#E3A82B"/>
<path d="M69.2599 129.05C69.2599 129.05 79.1199 127.08 87.3499 127.08C109.03 127.08 139.02 139.29 160.78 139.29C176.74 139.29 192.31 134.91 200.8 128.53C201.46 124.75 201.81 120.87 201.81 116.9C201.81 111.53 201.17 106.3 199.97 101.3L190.9 96.24L180.26 103.71L173.1 100.92C170.68 102.14 155.72 112.15 155.72 112.15L149.98 108L143.82 106.78L135.61 100.8L126.19 107.27C126.19 107.27 115.68 113.37 115.32 113.37C114.96 113.37 102.64 103.61 102.64 103.61L96.9699 97.63C95.9999 98.24 92.1399 100.01 92.1399 100.01L91.9399 100.06L88.2099 98.9L83.6699 96.49L69.8899 102.74C69.8099 102.78 69.7299 102.82 69.6399 102.86C68.6699 107.39 68.1599 112.09 68.1599 116.91C68.1599 121.06 68.5399 125.12 69.2699 129.06L69.2599 129.05Z" fill="#234075"/>
<path d="M248.32 49.79H246.77V196.92H248.32V49.79Z" fill="#E3A82B"/>
</g>
<defs>
<clipPath id="clip0_563_25764">
<rect width="684.32" height="245.93" fill="white"/>
</clipPath>
</defs>
</svg>
