<svg width="225" height="199" viewBox="0 0 225 199" fill="none" xmlns="http://www.w3.org/2000/svg">
<g clip-path="url(#clip0_563_25761)">
<path d="M77.6201 84.12C77.6201 82.6 77.5101 82.2 76.4901 82.11L75.7801 82.06C75.6601 81.97 75.7001 81.56 75.8001 81.55C77.0301 81.44 78.5801 81.39 80.7001 81.39C82.1401 81.39 83.5101 81.49 84.5301 81.97C85.5101 82.4 86.2601 83.22 86.2601 84.54C86.2601 86.02 85.3001 86.78 83.9301 87.35C83.9301 87.56 84.1101 87.62 84.3601 87.66C85.5901 87.87 87.4201 88.89 87.4201 91.09C87.4201 93.47 85.4601 95.08 81.3501 95.08C80.6901 95.08 79.5701 95.02 78.6101 95.02C77.6501 95.02 76.8301 95.06 75.9901 95.08C75.8501 95.02 75.8101 94.69 75.9401 94.57L76.3501 94.51C77.5601 94.33 77.6001 94.1 77.6001 91.94V84.13L77.6201 84.12ZM79.4901 86.85C79.4901 87.43 79.5101 87.47 80.6801 87.43C83.0101 87.35 84.2601 86.73 84.2601 84.8C84.2601 82.87 82.5901 82.03 80.8601 82.03C80.3601 82.03 80.0201 82.07 79.8101 82.15C79.5801 82.21 79.4901 82.31 79.4901 82.68V86.85ZM79.4901 91.62C79.4901 92.36 79.5401 93.41 79.9701 93.86C80.4001 94.33 81.0901 94.44 81.7701 94.44C83.8001 94.44 85.3501 93.62 85.3501 91.56C85.3501 89.94 84.4401 88.05 80.8101 88.05C79.5801 88.05 79.4901 88.17 79.4901 88.58V91.62Z" fill="white"/>
<path d="M103.28 86.14C103.28 84.28 103.24 83.98 102.09 83.89L101.6 83.85C101.48 83.78 101.52 83.46 101.64 83.41C102.61 83.45 103.28 83.46 104.1 83.46C104.92 83.46 105.54 83.44 106.52 83.41C106.64 83.46 106.68 83.78 106.56 83.85L106.07 83.89C104.92 83.98 104.88 84.28 104.88 86.14V92.39C104.88 94.25 104.92 94.5 106.07 94.62L106.56 94.67C106.68 94.74 106.64 95.05 106.52 95.11C105.55 95.07 104.88 95.06 104.1 95.06C103.28 95.06 102.62 95.08 101.64 95.11C101.52 95.06 101.48 94.78 101.6 94.67L102.09 94.62C103.24 94.5 103.28 94.25 103.28 92.39V86.14Z" fill="white"/>
<path d="M114.09 92.42C114.09 94.26 114.13 94.53 115.18 94.62L115.77 94.67C115.88 94.74 115.84 95.05 115.73 95.11C114.69 95.07 114.07 95.06 113.34 95.06C112.61 95.06 111.97 95.08 110.8 95.11C110.69 95.06 110.65 94.76 110.8 94.67L111.46 94.62C112.5 94.53 112.59 94.27 112.59 92.42V84.57C112.59 84.03 112.59 84.01 112.04 84.01H111.04C110.25 84.01 109.25 84.05 108.79 84.45C108.35 84.84 108.17 85.22 107.97 85.66C107.82 85.77 107.57 85.68 107.49 85.54C107.78 84.75 108.06 83.63 108.18 82.92C108.24 82.88 108.47 82.87 108.53 82.92C108.64 83.48 109.24 83.46 110.08 83.46H117.47C118.46 83.46 118.62 83.42 118.89 82.97C118.98 82.93 119.18 82.95 119.22 83.02C119.02 83.74 118.89 85.16 118.95 85.69C118.88 85.83 118.57 85.83 118.48 85.73C118.43 85.29 118.3 84.64 118.02 84.45C117.6 84.15 116.91 84.01 115.9 84.01H114.6C114.05 84.01 114.07 84.03 114.07 84.61V92.42H114.09Z" fill="white"/>
<path d="M121.91 86.14C121.91 84.28 121.87 83.98 120.72 83.89L120.23 83.85C120.11 83.78 120.15 83.46 120.27 83.41C121.24 83.45 121.91 83.46 122.73 83.46C123.55 83.46 124.17 83.44 125.15 83.41C125.27 83.46 125.3 83.78 125.19 83.85L124.7 83.89C123.55 83.98 123.51 84.28 123.51 86.14V92.39C123.51 94.25 123.55 94.5 124.7 94.62L125.19 94.67C125.31 94.74 125.27 95.05 125.15 95.11C124.18 95.07 123.51 95.06 122.73 95.06C121.91 95.06 121.25 95.08 120.27 95.11C120.15 95.06 120.11 94.78 120.23 94.67L120.72 94.62C121.87 94.5 121.91 94.25 121.91 92.39V86.14Z" fill="white"/>
<path d="M130.64 95.29C128.9 95.29 127.8 94.83 127.41 94.64C127.16 94.25 126.89 93.01 126.85 92.18C126.96 92.06 127.26 92.02 127.35 92.13C127.66 93.03 128.51 94.74 130.91 94.74C132.65 94.74 133.5 93.78 133.5 92.72C133.5 91.95 133.31 91.09 131.8 90.26L129.83 89.17C128.79 88.59 127.59 87.59 127.59 86.15C127.59 84.48 129.13 83.13 131.81 83.13C132.45 83.13 133.2 83.24 133.74 83.36C134.01 83.43 134.3 83.47 134.46 83.47C134.65 83.89 134.83 84.87 134.83 85.61C134.75 85.71 134.42 85.77 134.31 85.66C134.04 84.82 133.48 83.68 131.49 83.68C129.5 83.68 129.03 84.82 129.03 85.63C129.03 86.65 130.02 87.39 130.79 87.79L132.45 88.67C133.75 89.35 135.04 90.37 135.04 92.04C135.04 93.97 133.32 95.29 130.63 95.29H130.64Z" fill="white"/>
<path d="M141.07 89.39C140.16 89.39 140.13 89.43 140.13 89.95V92.42C140.13 94.26 140.22 94.51 141.28 94.62L141.83 94.67C141.94 94.74 141.91 95.05 141.79 95.11C140.77 95.07 140.13 95.06 139.39 95.06C138.58 95.06 137.93 95.1 137.2 95.11C137.09 95.06 137.05 94.78 137.16 94.67L137.48 94.62C138.54 94.44 138.57 94.27 138.57 92.42V86.1C138.57 84.26 138.44 83.96 137.46 83.89L136.97 83.85C136.86 83.78 136.9 83.46 137.01 83.41C137.94 83.43 138.58 83.46 139.39 83.46C140.13 83.46 140.77 83.44 141.58 83.41C141.7 83.46 141.73 83.78 141.62 83.85L141.26 83.89C140.16 84 140.13 84.26 140.13 86.1V88.12C140.13 88.66 140.17 88.68 141.07 88.68H146.47C147.38 88.68 147.42 88.66 147.42 88.12V86.1C147.42 84.26 147.38 83.99 146.27 83.89L145.91 83.85C145.8 83.78 145.83 83.46 145.95 83.41C146.82 83.45 147.46 83.46 148.24 83.46C149.02 83.46 149.62 83.44 150.47 83.41C150.59 83.46 150.62 83.78 150.51 83.85L150.11 83.89C149.02 84 148.98 84.26 148.98 86.1V92.42C148.98 94.26 149.02 94.49 150.11 94.62L150.56 94.67C150.68 94.74 150.64 95.05 150.52 95.11C149.61 95.07 148.97 95.06 148.23 95.06C147.45 95.06 146.77 95.08 145.94 95.11C145.83 95.06 145.79 94.78 145.9 94.67L146.26 94.62C147.41 94.44 147.41 94.27 147.41 92.42V89.95C147.41 89.42 147.37 89.39 146.46 89.39H141.06H141.07Z" fill="white"/>
<path d="M66.8101 98.96C68.3601 97.75 70.3401 97.16 72.5501 97.16C73.7001 97.16 75.3101 97.39 76.3101 97.67C76.5701 97.73 76.7101 97.78 76.9001 97.75C76.9201 98.24 77.0301 99.57 77.2001 100.87C77.0901 101.02 76.7801 101.04 76.6301 100.91C76.3101 99.47 75.3501 97.81 72.2701 97.81C69.0201 97.81 66.2501 99.87 66.2501 104.25C66.2501 108.63 69.0801 111.16 72.5701 111.16C75.3101 111.16 76.5301 109.38 77.0101 108.13C77.1601 108.02 77.4801 108.07 77.5601 108.22C77.4101 109.32 76.8601 110.72 76.5401 111.12C76.2901 111.16 76.0301 111.25 75.8001 111.33C75.3301 111.5 73.8001 111.82 72.4401 111.82C70.5301 111.82 68.7001 111.44 67.1401 110.4C65.4401 109.24 64.1201 107.31 64.1201 104.57C64.1201 102.22 65.1801 100.2 66.8001 98.95L66.8101 98.96Z" fill="white"/>
<path d="M78.4399 105.82C78.4399 102.31 81.1999 99.62 84.9999 99.62C89.2599 99.62 91.3999 102.55 91.3999 105.64C91.3999 109.19 88.5599 111.77 84.9999 111.77C80.9099 111.77 78.4399 108.98 78.4399 105.82ZM89.5499 106.19C89.5499 103.29 88.1999 100.17 84.6799 100.17C82.7599 100.17 80.2699 101.42 80.2699 105.26C80.2699 107.86 81.5999 111.23 85.2299 111.23C87.4399 111.23 89.5399 109.65 89.5399 106.19H89.5499Z" fill="white"/>
<path d="M112.19 104.31C112.19 103.22 112.15 101.2 111.84 100.68C111.71 100.47 111.37 100.35 110.91 100.31L110.45 100.27C110.34 100.15 110.38 99.92 110.49 99.85C111.2 99.89 111.89 99.9 112.61 99.9C113.39 99.9 113.89 99.88 114.56 99.85C114.71 99.94 114.69 100.17 114.6 100.27L114.15 100.31C113.68 100.35 113.33 100.5 113.22 100.73C112.96 101.31 112.96 103.33 112.96 104.31V106.29C112.96 107.82 112.7 109.43 111.66 110.49C110.86 111.32 109.48 111.77 108.11 111.77C106.82 111.77 105.54 111.54 104.63 110.8C103.64 110.03 103.18 108.75 103.18 106.66V102.52C103.18 100.7 103.14 100.4 102.06 100.31L101.59 100.27C101.48 100.2 101.52 99.9 101.63 99.85C102.56 99.89 103.19 99.9 103.94 99.9C104.69 99.9 105.32 99.88 106.23 99.85C106.34 99.9 106.38 100.2 106.27 100.27L105.82 100.31C104.74 100.4 104.7 100.7 104.7 102.52V106.31C104.7 109.14 105.63 111 108.48 111C111.18 111 112.2 109 112.2 106.33V104.31H112.19Z" fill="white"/>
<path d="M133.81 102.12C133.81 100.81 133.73 100.47 132.8 100.4L132.14 100.34C132.07 100.27 132.02 99.92 132.16 99.91C133.27 99.83 134.67 99.77 136.58 99.77C137.88 99.77 139.11 99.86 140.04 100.27C140.92 100.64 141.6 101.35 141.6 102.49C141.6 103.77 140.74 104.42 139.5 104.92C139.5 105.1 139.67 105.15 139.89 105.19C141 105.37 142.65 106.25 142.65 108.15C142.65 110.21 140.88 111.59 137.18 111.59C136.58 111.59 135.58 111.54 134.71 111.54C133.84 111.54 133.11 111.58 132.34 111.59C132.22 111.54 132.18 111.25 132.3 111.15L132.67 111.1C133.76 110.94 133.8 110.75 133.8 108.88V102.14L133.81 102.12ZM135.5 104.48C135.5 104.98 135.52 105.01 136.57 104.98C138.67 104.91 139.8 104.38 139.8 102.71C139.8 101.04 138.3 100.32 136.74 100.32C136.29 100.32 135.98 100.36 135.79 100.43C135.58 100.48 135.5 100.57 135.5 100.89V104.49V104.48ZM135.5 108.59C135.5 109.23 135.54 110.13 135.93 110.52C136.32 110.93 136.94 111.02 137.55 111.02C139.38 111.02 140.78 110.31 140.78 108.54C140.78 107.14 139.96 105.51 136.69 105.51C135.58 105.51 135.5 105.62 135.5 105.97V108.59Z" fill="white"/>
<path d="M150.57 116.28H75.8604V117.16H150.57V116.28Z" fill="#E3A82B"/>
<path d="M100.3 94.67L99.8101 94.63C99.7101 94.62 99.6201 94.61 99.5401 94.59C98.8301 94.46 98.5401 93.83 98.2101 93.24L96.5201 90.31C96.2301 89.82 95.9201 89.16 95.2501 89.07C96.9801 88.86 98.5401 87.86 98.5401 86.15C98.5401 84.18 96.5801 83.29 94.6101 83.29C93.4201 83.29 92.3401 83.32 91.1401 83.32C90.4801 83.32 89.6801 83.29 89.0201 83.29C88.6501 83.29 88.6501 83.37 88.6501 83.57C88.6501 83.88 88.7801 83.79 89.1701 83.81C90.5801 83.89 90.5201 84.15 90.5201 85.35V93.04C90.5201 94.14 90.6201 94.47 89.4601 94.58C89.4601 94.58 89.2801 94.6 89.1801 94.61L88.6901 94.66C88.5701 94.76 88.6101 95.04 88.7301 95.1C88.9901 95.1 89.4501 95.07 89.4501 95.07C90.0901 95.05 90.7301 95 91.3701 95C92.0101 95 92.6301 95.05 93.2601 95.07C93.4901 95.07 93.7201 95.09 93.9801 95.1C94.1001 95.05 94.1401 94.77 94.0201 94.66L93.5301 94.61C93.4301 94.6 93.2601 94.58 93.2601 94.58C92.0901 94.5 92.1601 94.17 92.1601 93.04V90.14C92.1601 89.97 92.1401 89.52 92.2601 89.39C92.3601 89.28 92.5501 89.3 92.7201 89.3C94.3001 89.3 94.2801 89.45 95.0301 90.77L97.0701 94.44C97.2401 94.72 97.3601 95.08 97.7801 95.08H99.5501C99.7701 95.08 100.01 95.1 100.27 95.1C100.39 95.05 100.43 94.77 100.31 94.66L100.3 94.67ZM93.2001 88.9C92.8501 88.9 92.1401 89.03 92.1401 88.56V85.19C92.1401 83.87 92.1801 83.69 93.7601 83.69C95.6101 83.69 96.7601 84.63 96.7601 86.36C96.7601 87.11 96.4901 87.81 95.8001 88.28C95.0101 88.83 94.1601 88.9 93.2001 88.9Z" fill="white"/>
<path d="M93.58 102.58C93.58 100.74 93.54 100.46 92.32 100.37L91.84 100.34C91.72 100.27 91.76 99.95 91.88 99.9C92.96 99.94 93.62 99.95 94.39 99.95C95.16 99.95 95.8 99.93 96.77 99.9C96.89 99.95 96.92 100.27 96.81 100.34L96.35 100.37C95.21 100.46 95.17 100.74 95.17 102.58V108.69C95.17 109.8 95.23 110.25 95.58 110.59C95.79 110.78 96.16 110.99 97.68 110.99C99.32 110.99 99.73 110.92 100.04 110.76C100.43 110.55 100.93 109.92 101.31 109.02C101.43 108.93 101.79 109 101.79 109.13C101.79 109.32 101.25 111.11 100.98 111.59C100 111.55 98.16 111.54 96.17 111.54H94.39C93.58 111.54 92.96 111.56 91.88 111.59C91.76 111.54 91.73 111.26 91.84 111.15L92.42 111.1C93.54 111 93.58 110.75 93.58 108.91V102.59V102.58Z" fill="white"/>
<path d="M145.31 102.61C145.31 100.75 145.27 100.45 144.15 100.36L143.68 100.33C143.57 100.26 143.6 99.94 143.72 99.89C144.67 99.93 145.31 99.94 146.11 99.94C146.91 99.94 147.51 99.92 148.46 99.89C148.58 99.94 148.61 100.26 148.5 100.33L148.03 100.36C146.91 100.45 146.87 100.75 146.87 102.61V108.86C146.87 110.72 146.91 110.97 148.03 111.09L148.5 111.14C148.62 111.21 148.58 111.53 148.46 111.58C147.51 111.54 146.87 111.53 146.11 111.53C145.35 111.53 144.67 111.55 143.72 111.58C143.6 111.53 143.57 111.25 143.68 111.14L144.15 111.09C145.27 110.97 145.31 110.72 145.31 108.86V102.61Z" fill="white"/>
<path d="M130.16 111.09C130.06 111.08 129.88 111.06 129.88 111.06C129.68 111.04 129.5 111.01 129.36 110.86C129.11 110.6 129.13 109.85 129.13 109.56V101.87C129.13 101.54 129.05 100.81 129.29 100.55C129.41 100.41 129.67 100.39 129.9 100.38C130.04 100.37 130.04 100.37 130.16 100.36L130.65 100.32C130.77 100.25 130.73 99.93 130.61 99.88C130.35 99.88 130.11 99.88 129.89 99.89H127.82C127.59 99.89 127.39 99.89 127.27 100.13L123.05 108.92L119.32 100.43C119.2 100.13 119.18 99.89 118.79 99.89H116.63C116.41 99.89 116.16 99.89 115.9 99.88C115.78 99.93 115.74 100.25 115.86 100.32L116.35 100.36C116.45 100.36 116.63 100.38 116.63 100.38C117.44 100.43 117.49 100.61 117.42 101.46L116.79 109.71C116.74 110.54 116.69 110.98 115.82 111.06C115.82 111.06 115.64 111.08 115.54 111.1L115.05 111.15C114.93 111.26 114.97 111.54 115.09 111.59C115.35 111.59 115.8 111.57 115.8 111.57C116.24 111.55 116.69 111.51 117.14 111.51C117.62 111.51 118.11 111.56 118.59 111.58C118.81 111.58 119.05 111.59 119.31 111.61C119.43 111.56 119.47 111.28 119.35 111.17L118.86 111.12C118.73 111.11 118.59 111.1 118.59 111.1C117.34 111.02 117.37 110.13 117.44 109.05L118.04 101.38H118.18L122.22 110.82C122.26 110.95 122.32 111.17 122.53 111.17C122.72 111.17 122.78 110.96 122.83 110.83L127.38 101.15H127.52V109.59C127.52 109.92 127.56 110.61 127.21 110.87C127.03 111.01 126.44 111.09 126.44 111.09C126.36 111.1 126.27 111.11 126.18 111.13L125.69 111.18C125.57 111.29 125.61 111.57 125.73 111.62C125.99 111.62 126.44 111.6 126.44 111.6C127.1 111.58 127.77 111.53 128.44 111.53C128.92 111.53 129.87 111.58 129.87 111.58C130.1 111.58 130.35 111.61 130.61 111.62C130.73 111.57 130.76 111.29 130.65 111.18L130.16 111.13V111.09Z" fill="white"/>
<path d="M161.81 111.14L161.75 111.09C161.65 111.08 161.57 111.07 161.48 111.05C160.72 110.88 160.43 109.97 160.14 109.31L156.24 100.06C156.2 99.95 156.12 99.71 155.97 99.71C155.76 99.71 155.7 99.97 155.64 100.12L151.91 109.35C151.77 109.7 151.43 110.55 151.17 110.81C150.98 111.01 150.73 111.05 150.46 111.07C150.46 111.07 150.25 111.09 150.15 111.1L149.69 111.15C149.57 111.26 149.61 111.54 149.73 111.59C149.99 111.59 150.45 111.56 150.45 111.56C150.96 111.56 151.47 111.49 151.98 111.49C152.41 111.49 152.84 111.54 153.27 111.56C153.27 111.56 153.73 111.58 153.99 111.59C154.11 111.54 154.15 111.26 154.03 111.15L153.54 111.1C153.44 111.09 153.27 111.07 153.27 111.07C152.82 111.02 152.26 110.94 152.26 110.45C152.26 110.12 152.41 109.73 152.53 109.44L153.11 108.06C153.4 107.4 153.29 107.32 154.06 107.32H156.69C157.62 107.32 157.48 107.32 157.89 108.26L158.51 109.66C158.61 109.9 158.78 110.31 158.78 110.56C158.78 111.02 158.28 111.05 157.8 111.09C157.8 111.09 157.64 111.1 157.51 111.11L157.04 111.15C156.92 111.25 156.96 111.54 157.08 111.59C157.34 111.59 157.8 111.56 157.8 111.56C158.35 111.54 158.9 111.5 159.43 111.5C160.11 111.5 160.79 111.55 161.46 111.57C161.68 111.57 161.5 111.58 161.75 111.59C161.87 111.54 161.91 111.26 161.79 111.15L161.81 111.14ZM156.69 106.8H154.41C154.33 106.8 153.7 106.87 153.7 106.69C153.7 106.63 153.74 106.52 153.76 106.47L155.13 103.08C155.17 102.99 155.31 102.52 155.47 102.52C155.59 102.52 155.75 103 155.79 103.08L157.14 106.24C157.14 106.24 157.28 106.58 157.28 106.65C157.28 106.86 156.82 106.8 156.71 106.8H156.69Z" fill="white"/>
<path d="M85.68 71.12C98.02 71.12 115.09 78.07 127.47 78.07C136.31 78.07 144.93 75.71 149.84 72.24C150.18 70.2 150.37 68.11 150.37 65.97C150.37 45.23 133.56 28.42 112.82 28.42C92.08 28.42 75.27 45.23 75.27 65.97C75.27 68.08 75.45 70.15 75.78 72.17C77.13 71.92 81.74 71.13 85.68 71.13V71.12Z" fill="white"/>
<path d="M137.08 57.29L138.56 57.9L141.86 55.61L137.08 57.29Z" fill="#E3A82B"/>
<path d="M81.7501 54.72L77.8501 53.35L78.0501 52.87L82.4501 54.34H82.4701L83.0501 54L83.2801 53.85L78.4901 51.81L78.6901 51.31L89.3901 55.64L89.7401 55.49L79.1301 50.32L79.3701 49.83L90.6101 55.06L90.7701 54.98L79.8701 48.8L80.0901 48.34L95.8301 56.91C95.9601 56.67 96.2301 56.24 96.3701 56C90.3801 50.37 84.6101 46.15 84.6101 46.15C84.6101 46.15 90.5501 50.13 97.8801 53.83C98.1201 53.53 98.3201 53.29 98.5801 53L85.1501 41.18L85.5101 40.81L96.3501 50.05L86.3101 39.99L86.6901 39.6L97.9601 50.5L87.4601 38.85L87.8601 38.49L97.5601 48.88L88.7101 37.72L89.0901 37.37L100.44 51.18C100.73 50.93 100.98 50.74 101.28 50.5C97.8501 43.07 94.1001 37.03 94.1001 37.03C94.1001 37.03 98.0901 42.9 103.47 49.05C103.8 48.86 104.13 48.69 104.47 48.52L104.41 48.48L96.4601 32.61L96.9301 32.4L103.52 45.03L97.9801 31.94L98.4701 31.72L104.84 46.05L99.4701 31.32L99.9801 31.13L105.08 44.39L101.05 30.73L101.53 30.55L106.84 47.49V47.54C107.19 47.42 107.55 47.32 107.91 47.22C107.51 39.08 106.3 32.12 106.3 32.12C106.3 32.12 107.79 39.02 110.46 46.71C110.83 46.66 111.21 46.63 111.58 46.6V46.58H111.61L111.58 46.54L110.15 28.84L110.67 28.82L112.05 43L111.81 28.79L112.35 28.77L112.89 44.44L113.43 28.77L113.97 28.79L113.73 43L115.11 28.83L115.63 28.85L114.2 46.55L114.17 46.59H114.19C114.56 46.61 114.93 46.65 115.29 46.69C117.96 39 119.45 32.11 119.45 32.11C119.45 32.11 118.25 39.05 117.84 47.17C118.2 47.27 118.56 47.37 118.92 47.49L124.21 30.61L124.7 30.79L120.67 44.45L125.77 31.19L126.28 31.38L120.91 46.11L127.28 31.78L127.77 32L122.23 45.09L128.82 32.47L129.29 32.68L121.37 48.5H121.38C121.71 48.66 122.02 48.83 122.34 49.01C127.7 42.88 131.67 37.04 131.67 37.04C131.67 37.04 127.95 43.04 124.52 50.43C124.82 50.66 125.13 50.9 125.42 51.15L136.63 37.49L137.01 37.84L128.16 49L137.86 38.61L138.26 38.97L127.76 50.62L139.04 39.72L139.42 40.11L129.38 50.17L140.22 40.93L140.58 41.3L127.31 52.99C127.54 53.26 127.76 53.52 127.98 53.79C135.27 50.11 141.15 46.17 141.15 46.17C141.15 46.17 135.43 50.35 129.48 55.94C129.64 56.21 129.91 56.68 130.06 56.96L145.58 48.51L145.8 48.98L133.41 56.01L146.29 50.01L146.53 50.5L134.53 56.35L134.76 56.43L146.97 51.49L147.17 51.99L135.82 56.82L136.03 56.91L143.59 54.39L144.73 53.59L145.11 53.88L147.6 53.05L147.8 53.53L145.65 54.29L148.76 56.66L149.76 57.22C145.76 40.5 130.72 28.07 112.77 28.07C94.8201 28.07 79.2501 40.94 75.5801 58.11C75.6301 58.09 75.6701 58.07 75.7201 58.04L76.1801 57.83L76.4601 57.7L81.7101 54.76L81.7501 54.72Z" fill="#E3A82B"/>
<path d="M75.42 72.98C75.42 72.98 81.03 71.86 85.71 71.86C98.05 71.86 115.12 78.81 127.5 78.81C136.59 78.81 145.45 76.32 150.28 72.68C150.66 70.53 150.85 68.32 150.85 66.06C150.85 63 150.49 60.03 149.81 57.18L144.65 54.3L138.59 58.55L134.52 56.96C133.14 57.66 124.63 63.35 124.63 63.35L121.36 60.99L117.85 60.3L113.18 56.9L107.82 60.58C107.82 60.58 101.84 64.05 101.63 64.05C101.42 64.05 94.41 58.49 94.41 58.49L91.18 55.09C90.63 55.44 88.43 56.45 88.43 56.45L88.32 56.48L86.19 55.82L83.61 54.45L75.77 58.01C75.77 58.01 75.68 58.05 75.63 58.08C75.08 60.66 74.79 63.33 74.79 66.07C74.79 68.43 75.01 70.74 75.42 72.99V72.98Z" fill="#7B8CAC"/>
<path d="M80.1398 129.2C80.5498 130.05 80.9498 130.87 81.3798 131.67H81.4198C81.9098 130.82 82.3598 129.89 82.8098 128.97L84.4998 125.53C85.3098 123.89 85.8298 122.9 85.8698 122.07C86.4798 122.12 86.8598 122.12 87.2198 122.12C87.6698 122.12 88.2598 122.1 88.8198 122.07C88.9298 122.14 88.9298 122.45 88.8398 122.52L88.4598 122.56C87.3298 122.67 87.1798 123.01 87.1998 124.27C87.2398 126.18 87.2498 129.51 87.3998 132.1C87.4498 133 87.4398 133.49 88.2798 133.56L88.8598 133.61C88.9698 133.72 88.9498 133.99 88.8198 134.06C88.0798 134.02 87.3398 134.01 86.6998 134.01C86.0598 134.01 85.2598 134.03 84.5198 134.06C84.3898 133.97 84.3798 133.72 84.4798 133.61L84.9998 133.56C85.8798 133.47 85.8798 133.18 85.8798 132.03L85.8298 124.52H85.7898C85.6598 124.72 84.9798 126.16 84.6198 126.86L83.0198 130.01C82.2098 131.59 81.3998 133.29 81.0798 134.12C81.0398 134.17 80.9698 134.19 80.8998 134.19C80.8598 134.19 80.7698 134.17 80.7398 134.12C80.4298 133.16 79.5698 131.4 79.1598 130.52L77.5398 127.05C77.1598 126.22 76.7798 125.29 76.3898 124.46H76.3498C76.2798 125.58 76.2198 126.62 76.1698 127.67C76.1198 128.77 76.0398 130.37 76.0398 131.9C76.0398 133.23 76.1498 133.52 76.8498 133.57L77.5298 133.62C77.6598 133.73 77.6398 134.02 77.5098 134.07C76.8998 134.03 76.1998 134.02 75.5098 134.02C74.9298 134.02 74.2898 134.04 73.6698 134.07C73.5598 133.98 73.5298 133.71 73.6298 133.62L74.0298 133.57C74.7898 133.46 75.0398 133.35 75.1498 132.09C75.2598 130.9 75.3498 129.91 75.4598 128.13C75.5498 126.64 75.6198 125.1 75.6598 124.11C75.6998 122.98 75.5498 122.71 74.4498 122.56L74.1598 122.52C74.0698 122.41 74.0898 122.14 74.2298 122.07C74.7698 122.11 75.1998 122.12 75.6498 122.12C76.0598 122.12 76.5498 122.12 77.1398 122.07C77.0698 122.77 77.5198 123.89 78.0798 125.04L80.1298 129.2H80.1398Z" fill="white"/>
<path d="M91.23 128.84C91.23 128.14 91.23 128.05 90.74 127.72L90.58 127.61C90.51 127.54 90.51 127.34 90.6 127.29C91.01 127.15 92.04 126.68 92.45 126.41C92.54 126.41 92.61 126.45 92.63 126.52C92.59 127.15 92.56 128.01 92.56 128.75V131.99C92.56 133.29 92.6 133.47 93.24 133.56L93.62 133.61C93.75 133.7 93.71 134.01 93.58 134.06C93.04 134.02 92.52 134.01 91.89 134.01C91.26 134.01 90.7 134.03 90.2 134.06C90.07 134.01 90.04 133.7 90.16 133.61L90.54 133.56C91.21 133.47 91.22 133.29 91.22 131.99V128.84H91.23ZM92.72 123.71C92.72 124.36 92.27 124.65 91.77 124.65C91.21 124.65 90.85 124.24 90.85 123.75C90.85 123.16 91.28 122.78 91.82 122.78C92.36 122.78 92.72 123.21 92.72 123.72V123.71Z" fill="white"/>
<path d="M95.7601 128.84C95.7601 128.14 95.7601 128.05 95.2701 127.72L95.1101 127.61C95.0401 127.54 95.0401 127.34 95.1301 127.29C95.5401 127.15 96.5701 126.68 96.9301 126.41C97.0001 126.41 97.0901 126.45 97.1301 126.54C97.0901 126.95 97.0901 127.22 97.0901 127.39C97.0901 127.5 97.1601 127.59 97.2901 127.59C98.0501 127.12 98.8901 126.67 99.8101 126.67C101.3 126.67 101.92 127.7 101.92 128.9V132C101.92 133.3 101.96 133.48 102.6 133.57L103 133.62C103.13 133.71 103.09 134.02 102.96 134.07C102.42 134.03 101.9 134.02 101.27 134.02C100.64 134.02 100.08 134.04 99.6001 134.07C99.4701 134.02 99.4401 133.71 99.5601 133.62L99.9001 133.57C100.57 133.46 100.58 133.3 100.58 132V129.32C100.58 128.29 100.11 127.54 98.8901 127.54C98.2101 127.54 97.6101 127.83 97.3601 128.17C97.1301 128.48 97.0901 128.73 97.0901 129.25V132C97.0901 133.3 97.1301 133.46 97.7701 133.57L98.0901 133.62C98.2201 133.71 98.1801 134.02 98.0501 134.07C97.5601 134.03 97.0401 134.02 96.4101 134.02C95.7801 134.02 95.2201 134.04 94.7201 134.07C94.5901 134.02 94.5601 133.71 94.6801 133.62L95.0601 133.57C95.7301 133.48 95.7401 133.3 95.7401 132V128.85L95.7601 128.84Z" fill="white"/>
<path d="M105.14 128.84C105.14 128.14 105.14 128.05 104.65 127.72L104.49 127.61C104.42 127.54 104.42 127.34 104.51 127.29C104.92 127.15 105.95 126.68 106.36 126.41C106.45 126.41 106.52 126.45 106.54 126.52C106.5 127.15 106.47 128.01 106.47 128.75V131.99C106.47 133.29 106.51 133.47 107.15 133.56L107.53 133.61C107.66 133.7 107.62 134.01 107.49 134.06C106.95 134.02 106.43 134.01 105.8 134.01C105.17 134.01 104.61 134.03 104.11 134.06C103.98 134.01 103.95 133.7 104.07 133.61L104.45 133.56C105.12 133.47 105.13 133.29 105.13 131.99V128.84H105.14ZM106.63 123.71C106.63 124.36 106.18 124.65 105.68 124.65C105.12 124.65 104.76 124.24 104.76 123.75C104.76 123.16 105.19 122.78 105.73 122.78C106.27 122.78 106.63 123.21 106.63 123.72V123.71Z" fill="white"/>
<path d="M112.81 126.99C112.97 127.39 113.1 127.96 113.1 128.45C113.03 128.58 112.76 128.61 112.67 128.5C112.36 127.71 111.82 127.19 111.09 127.19C110.36 127.19 109.94 127.64 109.94 128.29C109.94 129.03 110.7 129.42 111.33 129.78C112.28 130.32 113.17 130.93 113.17 132.21C113.17 133.58 111.91 134.26 110.58 134.26C109.73 134.26 109.1 134.08 108.65 133.72C108.51 133.38 108.4 132.5 108.43 131.9C108.52 131.79 108.75 131.77 108.84 131.88C109.15 132.87 109.72 133.73 110.75 133.73C111.4 133.73 111.96 133.35 111.96 132.58C111.96 131.75 111.24 131.3 110.57 130.92C109.53 130.33 108.79 129.7 108.79 128.71C108.79 127.4 109.87 126.66 111.24 126.66C112 126.66 112.66 126.84 112.82 126.98L112.81 126.99Z" fill="white"/>
<path d="M116.71 127.67C116.4 127.67 116.39 127.72 116.39 128.1V131.47C116.39 132.51 116.52 133.47 117.7 133.47C117.88 133.47 118.04 133.43 118.19 133.38C118.35 133.33 118.59 133.13 118.64 133.13C118.78 133.13 118.86 133.33 118.82 133.44C118.5 133.82 117.85 134.27 116.93 134.27C115.38 134.27 115.06 133.41 115.06 132.33V128.21C115.06 127.72 115.04 127.69 114.68 127.69H114.18C114.07 127.62 114.05 127.42 114.13 127.31C114.65 127.15 115.1 126.91 115.28 126.75C115.51 126.53 115.86 126.05 116.04 125.69C116.13 125.65 116.35 125.65 116.42 125.78V126.59C116.42 126.91 116.44 126.93 116.74 126.93H118.74C118.96 127.09 118.92 127.58 118.76 127.69H116.73L116.71 127.67Z" fill="white"/>
<path d="M120.74 128.84C120.74 128.14 120.74 128.05 120.25 127.72L120.09 127.61C120.02 127.54 120.02 127.34 120.11 127.29C120.52 127.15 121.48 126.68 121.93 126.41C122.02 126.43 122.07 126.46 122.07 126.54V127.58C122.07 127.67 122.09 127.72 122.12 127.74C122.75 127.22 123.43 126.66 124.1 126.66C124.55 126.66 124.91 126.95 124.91 127.38C124.91 127.97 124.42 128.21 124.14 128.21C123.96 128.21 123.87 128.16 123.74 128.08C123.47 127.9 123.2 127.79 122.95 127.79C122.66 127.79 122.45 127.95 122.3 128.15C122.12 128.4 122.07 128.92 122.07 129.54V131.99C122.07 133.29 122.11 133.5 122.79 133.56L123.44 133.61C123.57 133.7 123.53 134.01 123.4 134.06C122.55 134.02 122.03 134.01 121.4 134.01C120.77 134.01 120.21 134.03 119.74 134.06C119.61 134.01 119.58 133.7 119.7 133.61L120.04 133.56C120.71 133.45 120.72 133.29 120.72 131.99V128.84H120.74Z" fill="white"/>
<path d="M125.77 137.72C125.77 137.23 126.09 137 126.49 137H126.83C127.12 137 127.3 136.87 127.42 136.68C127.94 135.87 128.3 135.11 128.46 134.68C128.51 134.54 128.64 134.16 128.64 133.91C128.64 133.55 128.57 133.33 128.33 132.67L126.93 128.82C126.62 127.97 126.5 127.54 125.87 127.41L125.42 127.32C125.31 127.23 125.33 126.92 125.47 126.87C126.05 126.91 126.59 126.92 127.18 126.92C127.67 126.92 128.17 126.9 128.75 126.87C128.89 126.92 128.91 127.23 128.79 127.32L128.34 127.41C128.09 127.46 127.94 127.52 127.94 127.64C127.94 127.86 128.36 129.03 128.46 129.33L129.04 130.99C129.15 131.28 129.49 132.23 129.56 132.27C129.61 132.23 129.9 131.68 130.23 130.94L130.84 129.52C131.24 128.58 131.47 127.92 131.47 127.72C131.47 127.59 131.36 127.47 131.04 127.41L130.48 127.32C130.35 127.23 130.37 126.92 130.52 126.87C131.1 126.91 131.64 126.92 132.1 126.92C132.56 126.92 132.97 126.9 133.47 126.87C133.61 126.94 133.63 127.21 133.51 127.32L133.2 127.37C132.61 127.48 132.28 128 131.67 129.28L130.66 131.35C130.07 132.56 128.59 135.69 127.71 137.65C127.4 138.33 126.97 138.5 126.56 138.5C126.04 138.5 125.77 138.18 125.77 137.73V137.72Z" fill="white"/>
<path d="M145.48 130.39C145.48 132.64 143.93 134.26 141.68 134.26C139.61 134.26 137.99 132.8 137.99 130.55C137.99 128.3 139.7 126.66 141.83 126.66C143.85 126.66 145.48 128.17 145.48 130.39ZM141.61 127.2C140.42 127.2 139.54 128.33 139.54 130.31C139.54 131.95 140.28 133.71 141.86 133.71C143.44 133.71 143.93 132.05 143.93 130.67C143.93 129.14 143.32 127.2 141.61 127.2Z" fill="white"/>
<path d="M148.95 127.67C148.64 127.67 148.64 127.71 148.64 128.19V131.99C148.64 133.29 148.68 133.5 149.32 133.56L149.97 133.61C150.1 133.7 150.06 134.01 149.93 134.06C149.12 134.02 148.6 134.01 147.97 134.01C147.34 134.01 146.78 134.03 146.24 134.06C146.11 134.01 146.08 133.7 146.2 133.61L146.61 133.56C147.28 133.47 147.29 133.29 147.29 131.99V128.19C147.29 127.7 147.29 127.67 146.93 127.67H146.3C146.19 127.6 146.17 127.44 146.25 127.33L147.02 126.95C147.16 126.88 147.29 126.77 147.29 126.59C147.29 125.55 147.42 124.43 147.85 123.42C148.3 122.39 149.31 121.13 151.09 121.13C152.04 121.13 152.85 121.56 152.85 122.21C152.85 122.57 152.51 122.86 152.17 122.86C151.97 122.86 151.86 122.79 151.74 122.64C151.4 122.24 150.89 121.85 150.3 121.85C149.74 121.85 149.29 122.19 149.02 122.84C148.7 123.67 148.62 124.98 148.62 125.88V126.4C148.62 126.89 148.62 126.9 148.93 126.9H150.98C151.18 127.08 151.05 127.58 150.85 127.66H148.92L148.95 127.67Z" fill="white"/>
<path d="M29.5199 142.83C29.5199 140.96 29.4799 140.69 28.4199 140.56L28.1299 140.52C28.0199 140.45 28.0599 140.12 28.1699 140.07C28.9399 140.11 29.5599 140.12 30.2899 140.12H33.6699C34.8199 140.12 35.8799 140.12 36.0999 140.07C36.2099 140.38 36.3199 141.67 36.3899 142.46C36.3199 142.57 36.0299 142.6 35.9399 142.5C35.6699 141.65 35.5099 141.02 34.5699 140.79C34.1899 140.7 33.6199 140.68 32.8199 140.68H31.5199C30.9799 140.68 30.9799 140.72 30.9799 141.4V145C30.9799 145.5 31.0299 145.5 31.5699 145.5H32.6099C33.3699 145.5 33.9199 145.46 34.1399 145.39C34.3599 145.32 34.4799 145.21 34.5699 144.76L34.7099 144.02C34.7999 143.91 35.1099 143.91 35.1799 144.04C35.1799 144.47 35.1099 145.17 35.1099 145.86C35.1099 146.51 35.1799 147.19 35.1799 147.59C35.1099 147.72 34.7999 147.72 34.7099 147.61L34.5499 146.91C34.4799 146.59 34.3499 146.32 33.9899 146.23C33.7399 146.16 33.3099 146.14 32.5999 146.14H31.5599C31.0199 146.14 30.9699 146.16 30.9699 146.63V149.17C30.9699 150.12 31.0199 150.74 31.3099 151.04C31.5299 151.26 31.8999 151.45 33.4899 151.45C34.8799 151.45 35.3999 151.38 35.7899 151.18C36.1099 151 36.5999 150.37 37.0699 149.43C37.1999 149.34 37.4499 149.39 37.5199 149.56C37.3899 150.19 36.9399 151.58 36.7099 152.06C35.0899 152.02 33.4899 152.01 31.8799 152.01H30.2599C29.4899 152.01 28.8699 152.03 27.8099 152.06C27.6999 152.01 27.6699 151.72 27.7699 151.61L28.3599 151.56C29.3899 151.47 29.4799 151.2 29.4799 149.31V142.83H29.5199Z" fill="white"/>
<path d="M48.8998 147.38C48.8998 146.16 48.3598 145.52 47.2298 145.52C46.5498 145.52 45.9899 145.83 45.7399 146.15C45.5199 146.42 45.4698 146.6 45.4698 147.23V149.98C45.4698 151.28 45.5099 151.46 46.1498 151.55L46.5298 151.6C46.6598 151.69 46.6199 152 46.4899 152.05C45.9499 152.01 45.4298 152 44.7998 152C44.1698 152 43.6698 152.02 43.1598 152.05C43.0298 152 42.9998 151.69 43.1198 151.6L43.4398 151.55C44.1098 151.44 44.1198 151.28 44.1198 149.98V147.37C44.1198 146.16 43.5798 145.51 42.4598 145.51C41.7198 145.51 41.2198 145.83 40.9498 146.16C40.7698 146.38 40.6798 146.61 40.6798 147.19V149.98C40.6798 151.28 40.7198 151.44 41.3598 151.55L41.6798 151.6C41.8098 151.69 41.7698 152 41.6398 152.05C41.1498 152.01 40.6298 152 39.9998 152C39.3698 152 38.8098 152.02 38.2498 152.05C38.1198 152 38.0898 151.69 38.2098 151.6L38.6398 151.55C39.3098 151.46 39.3198 151.28 39.3198 149.98V146.83C39.3198 146.13 39.3199 146.04 38.8299 145.71L38.6698 145.6C38.5998 145.53 38.5998 145.33 38.6898 145.28C39.0998 145.14 40.1299 144.67 40.4899 144.4C40.5599 144.4 40.6498 144.44 40.6898 144.53C40.6498 144.94 40.6499 145.21 40.6499 145.38C40.6499 145.49 40.7198 145.58 40.8498 145.58C41.5298 145.09 42.3798 144.66 43.2498 144.66C44.1198 144.66 44.6498 144.98 45.1598 145.72C45.3198 145.76 45.4498 145.68 45.6098 145.58C46.3298 145.08 47.2098 144.66 48.0598 144.66C49.4998 144.66 50.1998 145.65 50.1998 146.89V149.99C50.1998 151.29 50.2398 151.47 50.8798 151.56L51.3098 151.61C51.4398 151.7 51.3998 152.01 51.2698 152.06C50.6798 152.02 50.1498 152.01 49.5198 152.01C48.8898 152.01 48.3898 152.03 47.8798 152.06C47.7498 152.01 47.7198 151.7 47.8398 151.61L48.1598 151.56C48.8298 151.45 48.8398 151.29 48.8398 149.99V147.38H48.8998Z" fill="white"/>
<path d="M53.6599 147.4C53.1899 147.4 53.1699 147.44 53.1699 147.89C53.1699 149.71 54.2299 151.26 56.1599 151.26C56.7499 151.26 57.2599 151.08 57.8199 150.38C57.9999 150.33 58.1299 150.43 58.1399 150.6C57.5499 151.82 56.2499 152.27 55.3099 152.27C54.1399 152.27 53.2199 151.77 52.6999 151.08C52.1599 150.38 51.9399 149.53 51.9399 148.74C51.9399 146.53 53.3999 144.67 55.5599 144.67C57.1099 144.67 58.1199 145.73 58.1199 146.81C58.1199 147.06 58.0799 147.21 58.0499 147.28C57.9999 147.39 57.7399 147.41 56.9899 147.41H53.6599V147.4ZM54.7799 146.86C56.1099 146.86 56.5099 146.79 56.6499 146.68C56.6999 146.64 56.7599 146.57 56.7599 146.34C56.7599 145.84 56.4199 145.21 55.3699 145.21C54.3199 145.21 53.3899 146.18 53.3699 146.78C53.3699 146.82 53.3699 146.87 53.4999 146.87H54.7799V146.86Z" fill="white"/>
<path d="M59.87 146.84C59.87 146.14 59.87 146.05 59.38 145.72L59.22 145.61C59.15 145.54 59.15 145.34 59.24 145.29C59.65 145.15 60.61 144.68 61.06 144.41C61.15 144.43 61.2 144.46 61.2 144.54V145.58C61.2 145.67 61.22 145.72 61.25 145.74C61.88 145.22 62.56 144.66 63.23 144.66C63.68 144.66 64.04 144.95 64.04 145.38C64.04 145.97 63.55 146.21 63.27 146.21C63.09 146.21 63 146.16 62.87 146.08C62.6 145.9 62.33 145.79 62.08 145.79C61.79 145.79 61.58 145.95 61.43 146.15C61.25 146.4 61.2 146.92 61.2 147.54V149.99C61.2 151.29 61.24 151.5 61.92 151.56L62.57 151.61C62.7 151.7 62.66 152.01 62.53 152.06C61.68 152.02 61.16 152.01 60.53 152.01C59.9 152.01 59.34 152.03 58.87 152.06C58.74 152.01 58.71 151.7 58.83 151.61L59.17 151.56C59.84 151.45 59.85 151.29 59.85 149.99V146.84H59.87Z" fill="white"/>
<path d="M71.8999 145.31C72.0999 145.4 72.0599 146.01 71.7899 146.05H70.4899C70.5299 146.36 70.5299 146.66 70.5299 146.97C70.5299 148.21 69.7899 149.83 67.5099 149.83C67.1899 149.83 66.9299 149.79 66.7199 149.78C66.4999 149.91 65.9299 150.25 65.9299 150.77C65.9299 151.18 66.3399 151.53 67.1899 151.53C67.7999 151.53 68.5399 151.48 69.3299 151.48C70.3399 151.48 71.8499 151.66 71.8499 153.46C71.8499 155.42 69.7099 156.86 67.3699 156.86C65.1599 156.86 64.3799 155.67 64.3799 154.77C64.3799 154.48 64.4499 154.25 64.5799 154.1C64.8899 153.78 65.3899 153.31 65.7999 152.89C65.9599 152.73 66.1099 152.57 65.9399 152.46C65.2399 152.28 64.6299 151.67 64.6299 151.04C64.6299 150.95 64.6999 150.88 64.8999 150.73C65.2099 150.53 65.5499 150.23 65.8499 149.9C65.9399 149.79 66.0299 149.65 66.0299 149.56C65.4199 149.24 64.6799 148.53 64.6799 147.38C64.6799 145.83 66.0099 144.66 67.6199 144.66C68.2999 144.66 68.9299 144.84 69.3499 145.02C69.9299 145.27 70.0499 145.31 70.4499 145.31H71.9099H71.8999ZM68.1399 152.58C67.5599 152.58 66.8399 152.62 66.5899 152.78C66.1599 153.05 65.7299 153.61 65.7299 154.29C65.7299 155.26 66.4999 156.07 68.1399 156.07C69.7799 156.07 70.8099 155.17 70.8099 154.14C70.8099 153.04 70.0499 152.57 68.7599 152.57H68.1499L68.1399 152.58ZM69.2599 147.43C69.2599 146.21 68.7599 145.18 67.6599 145.18C66.7999 145.18 66.1499 145.97 66.1499 147.2C66.1499 148.43 66.9199 149.31 67.7899 149.31C68.7599 149.31 69.2699 148.54 69.2699 147.44L69.2599 147.43Z" fill="white"/>
<path d="M74.0198 147.4C73.5498 147.4 73.5298 147.44 73.5298 147.89C73.5298 149.71 74.5898 151.26 76.5198 151.26C77.1098 151.26 77.6198 151.08 78.1798 150.38C78.3598 150.33 78.4898 150.43 78.4998 150.6C77.9098 151.82 76.6098 152.27 75.6698 152.27C74.4998 152.27 73.5798 151.77 73.0598 151.08C72.5198 150.38 72.2998 149.53 72.2998 148.74C72.2998 146.53 73.7598 144.67 75.9198 144.67C77.4698 144.67 78.4798 145.73 78.4798 146.81C78.4798 147.06 78.4398 147.21 78.4098 147.28C78.3598 147.39 78.0998 147.41 77.3498 147.41H74.0198V147.4ZM75.1398 146.86C76.4698 146.86 76.8698 146.79 77.0098 146.68C77.0598 146.64 77.1198 146.57 77.1198 146.34C77.1198 145.84 76.7798 145.21 75.7298 145.21C74.6798 145.21 73.7498 146.18 73.7298 146.78C73.7298 146.82 73.7298 146.87 73.8598 146.87H75.1398V146.86Z" fill="white"/>
<path d="M80.2498 146.84C80.2498 146.14 80.2498 146.05 79.7598 145.72L79.5998 145.61C79.5298 145.54 79.5298 145.34 79.6198 145.29C80.0298 145.15 81.0598 144.68 81.4198 144.41C81.4898 144.41 81.5798 144.45 81.6198 144.54C81.5798 144.95 81.5798 145.22 81.5798 145.39C81.5798 145.5 81.6498 145.59 81.7798 145.59C82.5398 145.12 83.3798 144.67 84.2998 144.67C85.7898 144.67 86.4098 145.7 86.4098 146.9V150C86.4098 151.3 86.4498 151.48 87.0898 151.57L87.4898 151.62C87.6198 151.71 87.5798 152.02 87.4498 152.07C86.9098 152.03 86.3898 152.02 85.7598 152.02C85.1298 152.02 84.5698 152.04 84.0898 152.07C83.9598 152.02 83.9298 151.71 84.0498 151.62L84.3898 151.57C85.0598 151.46 85.0698 151.3 85.0698 150V147.32C85.0698 146.29 84.5998 145.54 83.3798 145.54C82.6998 145.54 82.0998 145.83 81.8498 146.17C81.6198 146.48 81.5798 146.73 81.5798 147.25V150C81.5798 151.3 81.6198 151.46 82.2598 151.57L82.5798 151.62C82.7098 151.71 82.6698 152.02 82.5398 152.07C82.0498 152.03 81.5298 152.02 80.8998 152.02C80.2698 152.02 79.7098 152.04 79.2098 152.07C79.0798 152.02 79.0498 151.71 79.1698 151.62L79.5498 151.57C80.2198 151.48 80.2298 151.3 80.2298 150V146.85L80.2498 146.84Z" fill="white"/>
<path d="M94.0601 144.97C94.2001 145.1 94.3301 145.38 94.3301 145.69C94.3301 146.01 94.1501 146.36 93.9301 146.36C93.8401 146.36 93.7501 146.32 93.6801 146.23C93.2801 145.74 92.6201 145.27 91.8801 145.27C90.6201 145.27 89.4001 146.26 89.4001 148.17C89.4001 149.57 90.3701 151.25 92.3001 151.25C93.3401 151.25 93.8801 150.78 94.3001 150.17C94.4401 150.13 94.6101 150.26 94.6201 150.42C94.0101 151.75 92.6601 152.26 91.6101 152.26C90.6601 152.26 89.7701 151.95 89.1401 151.34C88.5101 150.73 88.1001 149.85 88.1001 148.67C88.1001 146.73 89.4701 144.66 92.4601 144.66C92.8701 144.66 93.5801 144.75 94.0601 144.97Z" fill="white"/>
<path d="M95.3298 155.72C95.3298 155.23 95.6498 155 96.0498 155H96.3898C96.6798 155 96.8598 154.87 96.9798 154.68C97.4998 153.87 97.8598 153.11 98.0198 152.68C98.0698 152.54 98.1998 152.16 98.1998 151.91C98.1998 151.55 98.1298 151.33 97.8898 150.67L96.4898 146.82C96.1798 145.97 96.0598 145.54 95.4298 145.41L94.9798 145.32C94.8698 145.23 94.8898 144.92 95.0298 144.87C95.6098 144.91 96.1498 144.92 96.7398 144.92C97.2298 144.92 97.7298 144.9 98.3098 144.87C98.4498 144.92 98.4698 145.23 98.3498 145.32L97.8998 145.41C97.6498 145.46 97.4998 145.52 97.4998 145.64C97.4998 145.86 97.9098 147.03 98.0198 147.33L98.5998 148.99C98.7098 149.28 99.0498 150.23 99.1198 150.27C99.1698 150.23 99.4598 149.68 99.7898 148.94L100.4 147.52C100.8 146.58 101.03 145.92 101.03 145.72C101.03 145.59 100.92 145.47 100.6 145.41L100.04 145.32C99.9098 145.23 99.9298 144.92 100.08 144.87C100.66 144.91 101.2 144.92 101.66 144.92C102.12 144.92 102.52 144.9 103.03 144.87C103.17 144.94 103.19 145.21 103.07 145.32L102.76 145.37C102.17 145.48 101.84 146 101.23 147.28L100.22 149.35C99.6298 150.56 98.1498 153.69 97.2698 155.65C96.9598 156.33 96.5298 156.5 96.1198 156.5C95.5998 156.5 95.3298 156.18 95.3298 155.73V155.72Z" fill="white"/>
<path d="M113.92 147.2C114.33 148.05 114.73 148.87 115.16 149.67H115.2C115.69 148.82 116.14 147.89 116.59 146.97L118.28 143.53C119.09 141.89 119.61 140.9 119.65 140.07C120.26 140.12 120.64 140.12 121 140.12C121.45 140.12 122.04 140.1 122.6 140.07C122.71 140.14 122.71 140.45 122.62 140.52L122.24 140.56C121.11 140.67 120.96 141.01 120.98 142.27C121.02 144.18 121.03 147.51 121.18 150.1C121.23 151 121.22 151.49 122.06 151.56L122.64 151.61C122.75 151.72 122.73 151.99 122.6 152.06C121.86 152.02 121.12 152.01 120.48 152.01C119.84 152.01 119.04 152.03 118.3 152.06C118.17 151.97 118.16 151.72 118.26 151.61L118.78 151.56C119.66 151.47 119.66 151.18 119.66 150.03L119.61 142.52H119.57C119.44 142.72 118.76 144.16 118.4 144.86L116.8 148.01C115.99 149.59 115.18 151.29 114.86 152.12C114.82 152.17 114.75 152.19 114.68 152.19C114.64 152.19 114.55 152.17 114.52 152.12C114.21 151.16 113.35 149.4 112.94 148.52L111.32 145.05C110.94 144.22 110.56 143.29 110.17 142.46H110.13C110.06 143.58 110 144.62 109.95 145.67C109.9 146.77 109.82 148.37 109.82 149.9C109.82 151.23 109.93 151.52 110.63 151.57L111.31 151.62C111.44 151.73 111.42 152.02 111.29 152.07C110.68 152.03 109.98 152.02 109.29 152.02C108.71 152.02 108.07 152.04 107.45 152.07C107.34 151.98 107.31 151.71 107.41 151.62L107.81 151.57C108.57 151.46 108.82 151.35 108.93 150.09C109.04 148.9 109.13 147.91 109.24 146.13C109.33 144.64 109.4 143.1 109.44 142.11C109.48 140.98 109.33 140.71 108.23 140.56L107.94 140.52C107.85 140.41 107.87 140.14 108.01 140.07C108.55 140.11 108.98 140.12 109.43 140.12C109.84 140.12 110.33 140.12 110.92 140.07C110.85 140.77 111.3 141.89 111.86 143.04L113.91 147.2H113.92Z" fill="white"/>
<path d="M127.41 148.28C127.68 148.19 127.72 148.03 127.72 147.76L127.74 146.93C127.76 146.26 127.54 145.36 126.43 145.36C125.93 145.36 125.31 145.61 125.28 146.17C125.26 146.46 125.24 146.67 125.1 146.78C124.83 147 124.34 147.12 124.07 147.12C123.91 147.12 123.82 147.03 123.82 146.87C123.82 145.93 125.86 144.66 127.17 144.66C128.48 144.66 129.1 145.42 129.04 146.77L128.93 149.9C128.89 150.73 129.06 151.47 129.76 151.47C129.94 151.47 130.1 151.42 130.21 151.36C130.3 151.31 130.39 151.23 130.44 151.23C130.51 151.23 130.57 151.34 130.57 151.46C130.57 151.55 129.94 152.25 129.06 152.25C128.63 152.25 128.19 152.09 127.89 151.69C127.82 151.58 127.71 151.44 127.6 151.44C127.47 151.44 127.26 151.6 126.9 151.8C126.5 152.02 126.11 152.25 125.6 152.25C125.09 152.25 124.64 152.11 124.34 151.84C124 151.53 123.78 151.08 123.78 150.58C123.78 149.88 124.12 149.46 125.28 149.05L127.42 148.28H127.41ZM126.29 151.45C126.65 151.45 127.21 151.18 127.39 151C127.61 150.78 127.61 150.53 127.62 150.15L127.66 149.09C127.66 148.89 127.59 148.86 127.48 148.86C127.37 148.86 127.07 148.93 126.74 149.04C125.68 149.4 125.16 149.67 125.16 150.37C125.16 150.68 125.38 151.45 126.29 151.45Z" fill="white"/>
<path d="M132.36 146.84C132.36 146.14 132.36 146.05 131.87 145.72L131.71 145.61C131.64 145.54 131.64 145.34 131.73 145.29C132.14 145.15 133.17 144.68 133.53 144.41C133.6 144.41 133.69 144.45 133.73 144.54C133.69 144.95 133.69 145.22 133.69 145.39C133.69 145.5 133.76 145.59 133.89 145.59C134.65 145.12 135.49 144.67 136.41 144.67C137.91 144.67 138.52 145.7 138.52 146.9V150C138.52 151.3 138.56 151.48 139.2 151.57L139.6 151.62C139.73 151.71 139.69 152.02 139.56 152.07C139.02 152.03 138.5 152.02 137.87 152.02C137.24 152.02 136.68 152.04 136.2 152.07C136.07 152.02 136.04 151.71 136.16 151.62L136.5 151.57C137.17 151.46 137.18 151.3 137.18 150V147.32C137.18 146.29 136.71 145.54 135.49 145.54C134.81 145.54 134.21 145.83 133.96 146.17C133.73 146.48 133.69 146.73 133.69 147.25V150C133.69 151.3 133.73 151.46 134.37 151.57L134.69 151.62C134.82 151.71 134.78 152.02 134.65 152.07C134.16 152.03 133.64 152.02 133.01 152.02C132.38 152.02 131.82 152.04 131.32 152.07C131.19 152.02 131.16 151.71 131.28 151.62L131.66 151.57C132.33 151.48 132.34 151.3 132.34 150V146.85L132.36 146.84Z" fill="white"/>
<path d="M144.13 148.28C144.4 148.19 144.44 148.03 144.44 147.76L144.46 146.93C144.48 146.26 144.26 145.36 143.15 145.36C142.65 145.36 142.03 145.61 142 146.17C141.98 146.46 141.96 146.67 141.82 146.78C141.55 147 141.06 147.12 140.79 147.12C140.63 147.12 140.54 147.03 140.54 146.87C140.54 145.93 142.58 144.66 143.89 144.66C145.2 144.66 145.82 145.42 145.76 146.77L145.65 149.9C145.61 150.73 145.78 151.47 146.48 151.47C146.66 151.47 146.82 151.42 146.93 151.36C147.02 151.31 147.11 151.23 147.16 151.23C147.23 151.23 147.29 151.34 147.29 151.46C147.29 151.55 146.66 152.25 145.78 152.25C145.35 152.25 144.92 152.09 144.61 151.69C144.54 151.58 144.43 151.44 144.32 151.44C144.19 151.44 143.98 151.6 143.62 151.8C143.22 152.02 142.83 152.25 142.32 152.25C141.81 152.25 141.37 152.11 141.06 151.84C140.72 151.53 140.5 151.08 140.5 150.58C140.5 149.88 140.84 149.46 142 149.05L144.14 148.28H144.13ZM143.01 151.45C143.37 151.45 143.93 151.18 144.11 151C144.33 150.78 144.33 150.53 144.34 150.15L144.38 149.09C144.38 148.89 144.31 148.86 144.2 148.86C144.09 148.86 143.79 148.93 143.46 149.04C142.4 149.4 141.88 149.67 141.88 150.37C141.88 150.68 142.1 151.45 143.01 151.45Z" fill="white"/>
<path d="M155.27 145.31C155.47 145.4 155.43 146.01 155.16 146.05H153.86C153.9 146.36 153.9 146.66 153.9 146.97C153.9 148.21 153.16 149.83 150.87 149.83C150.55 149.83 150.29 149.79 150.08 149.78C149.86 149.91 149.29 150.25 149.29 150.77C149.29 151.18 149.7 151.53 150.55 151.53C151.16 151.53 151.9 151.48 152.69 151.48C153.7 151.48 155.21 151.66 155.21 153.46C155.21 155.42 153.07 156.86 150.73 156.86C148.52 156.86 147.74 155.67 147.74 154.77C147.74 154.48 147.81 154.25 147.94 154.1C148.25 153.78 148.75 153.31 149.16 152.89C149.32 152.73 149.47 152.57 149.3 152.46C148.6 152.28 147.99 151.67 147.99 151.04C147.99 150.95 148.06 150.88 148.26 150.73C148.57 150.53 148.91 150.23 149.21 149.9C149.3 149.79 149.39 149.65 149.39 149.56C148.78 149.24 148.04 148.53 148.04 147.38C148.04 145.83 149.37 144.66 150.97 144.66C151.65 144.66 152.28 144.84 152.7 145.02C153.28 145.27 153.4 145.31 153.8 145.31H155.26H155.27ZM151.51 152.58C150.93 152.58 150.21 152.62 149.96 152.78C149.53 153.05 149.1 153.61 149.1 154.29C149.1 155.26 149.87 156.07 151.51 156.07C153.15 156.07 154.17 155.17 154.17 154.14C154.17 153.04 153.41 152.57 152.12 152.57H151.51V152.58ZM152.63 147.43C152.63 146.21 152.13 145.18 151.03 145.18C150.17 145.18 149.52 145.97 149.52 147.2C149.52 148.43 150.29 149.31 151.16 149.31C152.13 149.31 152.64 148.54 152.64 147.44L152.63 147.43Z" fill="white"/>
<path d="M157.4 147.4C156.93 147.4 156.91 147.44 156.91 147.89C156.91 149.71 157.97 151.26 159.9 151.26C160.49 151.26 161 151.08 161.56 150.38C161.74 150.33 161.87 150.43 161.88 150.6C161.29 151.82 159.99 152.27 159.05 152.27C157.88 152.27 156.96 151.77 156.44 151.08C155.9 150.38 155.68 149.53 155.68 148.74C155.68 146.53 157.14 144.67 159.3 144.67C160.85 144.67 161.86 145.73 161.86 146.81C161.86 147.06 161.82 147.21 161.79 147.28C161.74 147.39 161.48 147.41 160.73 147.41H157.4V147.4ZM158.52 146.86C159.85 146.86 160.25 146.79 160.39 146.68C160.44 146.64 160.5 146.57 160.5 146.34C160.5 145.84 160.16 145.21 159.11 145.21C158.06 145.21 157.13 146.18 157.11 146.78C157.11 146.82 157.11 146.87 157.24 146.87H158.52V146.86Z" fill="white"/>
<path d="M173.2 147.38C173.2 146.16 172.66 145.52 171.53 145.52C170.85 145.52 170.29 145.83 170.04 146.15C169.82 146.42 169.77 146.6 169.77 147.23V149.98C169.77 151.28 169.81 151.46 170.45 151.55L170.83 151.6C170.96 151.69 170.92 152 170.79 152.05C170.25 152.01 169.73 152 169.1 152C168.47 152 167.97 152.02 167.46 152.05C167.33 152 167.3 151.69 167.42 151.6L167.74 151.55C168.41 151.44 168.42 151.28 168.42 149.98V147.37C168.42 146.16 167.88 145.51 166.76 145.51C166.02 145.51 165.52 145.83 165.25 146.16C165.07 146.38 164.98 146.61 164.98 147.19V149.98C164.98 151.28 165.02 151.44 165.66 151.55L165.98 151.6C166.11 151.69 166.07 152 165.94 152.05C165.45 152.01 164.93 152 164.3 152C163.67 152 163.11 152.02 162.55 152.05C162.42 152 162.39 151.69 162.51 151.6L162.94 151.55C163.61 151.46 163.62 151.28 163.62 149.98V146.83C163.62 146.13 163.62 146.04 163.13 145.71L162.97 145.6C162.9 145.53 162.9 145.33 162.99 145.28C163.4 145.14 164.43 144.67 164.79 144.4C164.86 144.4 164.95 144.44 164.99 144.53C164.95 144.94 164.95 145.21 164.95 145.38C164.95 145.49 165.02 145.58 165.15 145.58C165.83 145.09 166.68 144.66 167.54 144.66C168.4 144.66 168.94 144.98 169.45 145.72C169.61 145.76 169.74 145.68 169.9 145.58C170.62 145.08 171.5 144.66 172.35 144.66C173.79 144.66 174.49 145.65 174.49 146.89V149.99C174.49 151.29 174.53 151.47 175.17 151.56L175.6 151.61C175.73 151.7 175.69 152.01 175.56 152.06C174.97 152.02 174.44 152.01 173.81 152.01C173.18 152.01 172.68 152.03 172.17 152.06C172.04 152.01 172.01 151.7 172.13 151.61L172.45 151.56C173.12 151.45 173.13 151.29 173.13 149.99V147.38H173.2Z" fill="white"/>
<path d="M177.96 147.4C177.49 147.4 177.47 147.44 177.47 147.89C177.47 149.71 178.53 151.26 180.46 151.26C181.05 151.26 181.56 151.08 182.12 150.38C182.3 150.33 182.43 150.43 182.44 150.6C181.85 151.82 180.55 152.27 179.61 152.27C178.44 152.27 177.52 151.77 177 151.08C176.46 150.38 176.24 149.53 176.24 148.74C176.24 146.53 177.7 144.67 179.86 144.67C181.41 144.67 182.42 145.73 182.42 146.81C182.42 147.06 182.38 147.21 182.35 147.28C182.3 147.39 182.04 147.41 181.29 147.41H177.96V147.4ZM179.08 146.86C180.41 146.86 180.81 146.79 180.95 146.68C181 146.64 181.06 146.57 181.06 146.34C181.06 145.84 180.72 145.21 179.67 145.21C178.62 145.21 177.69 146.18 177.67 146.78C177.67 146.82 177.67 146.87 177.8 146.87H179.08V146.86Z" fill="white"/>
<path d="M184.19 146.84C184.19 146.14 184.19 146.05 183.7 145.72L183.54 145.61C183.47 145.54 183.47 145.34 183.56 145.29C183.97 145.15 185 144.68 185.36 144.41C185.43 144.41 185.52 144.45 185.56 144.54C185.52 144.95 185.52 145.22 185.52 145.39C185.52 145.5 185.59 145.59 185.72 145.59C186.48 145.12 187.32 144.67 188.24 144.67C189.74 144.67 190.35 145.7 190.35 146.9V150C190.35 151.3 190.39 151.48 191.03 151.57L191.43 151.62C191.56 151.71 191.52 152.02 191.39 152.07C190.85 152.03 190.33 152.02 189.7 152.02C189.07 152.02 188.51 152.04 188.03 152.07C187.9 152.02 187.87 151.71 187.99 151.62L188.33 151.57C189 151.46 189.01 151.3 189.01 150V147.32C189.01 146.29 188.54 145.54 187.32 145.54C186.64 145.54 186.04 145.83 185.79 146.17C185.56 146.48 185.52 146.73 185.52 147.25V150C185.52 151.3 185.56 151.46 186.2 151.57L186.52 151.62C186.65 151.71 186.61 152.02 186.48 152.07C185.99 152.03 185.47 152.02 184.84 152.02C184.21 152.02 183.65 152.04 183.15 152.07C183.02 152.02 182.99 151.71 183.11 151.62L183.49 151.57C184.16 151.48 184.17 151.3 184.17 150V146.85L184.19 146.84Z" fill="white"/>
<path d="M194.46 145.67C194.15 145.67 194.14 145.72 194.14 146.1V149.47C194.14 150.51 194.27 151.47 195.45 151.47C195.63 151.47 195.79 151.43 195.94 151.38C196.1 151.33 196.34 151.13 196.39 151.13C196.53 151.13 196.61 151.33 196.57 151.44C196.25 151.82 195.6 152.27 194.68 152.27C193.13 152.27 192.81 151.41 192.81 150.33V146.21C192.81 145.72 192.79 145.69 192.43 145.69H191.93C191.82 145.62 191.8 145.42 191.88 145.31C192.4 145.15 192.85 144.91 193.03 144.75C193.26 144.53 193.61 144.05 193.79 143.69C193.88 143.65 194.1 143.65 194.17 143.78V144.59C194.17 144.91 194.19 144.93 194.49 144.93H196.49C196.71 145.09 196.67 145.58 196.51 145.69H194.48L194.46 145.67Z" fill="white"/>
<path d="M38.5499 166.28C38.8199 166.19 38.8599 166.03 38.8599 165.76L38.8799 164.93C38.8999 164.26 38.6799 163.36 37.5699 163.36C37.0699 163.36 36.4499 163.61 36.4199 164.17C36.3999 164.46 36.3799 164.67 36.2399 164.78C35.9699 165 35.4799 165.12 35.2099 165.12C35.0499 165.12 34.9599 165.03 34.9599 164.87C34.9599 163.93 36.9899 162.66 38.3099 162.66C39.6299 162.66 40.2399 163.42 40.1799 164.77L40.0699 167.9C40.0299 168.73 40.1999 169.47 40.8999 169.47C41.0799 169.47 41.2399 169.42 41.3499 169.36C41.4399 169.31 41.5299 169.23 41.5799 169.23C41.6499 169.23 41.7099 169.34 41.7099 169.46C41.7099 169.55 41.0799 170.25 40.1999 170.25C39.7699 170.25 39.3399 170.09 39.0299 169.69C38.9599 169.58 38.8499 169.44 38.7399 169.44C38.6099 169.44 38.3999 169.6 38.0399 169.8C37.6399 170.02 37.2499 170.25 36.7399 170.25C36.2299 170.25 35.7899 170.11 35.4799 169.84C35.1399 169.53 34.9199 169.08 34.9199 168.58C34.9199 167.88 35.2599 167.46 36.4099 167.05L38.5499 166.28ZM37.4299 169.45C37.7899 169.45 38.3499 169.18 38.5299 169C38.7499 168.78 38.7499 168.53 38.7599 168.15L38.7999 167.09C38.7999 166.89 38.7299 166.86 38.6199 166.86C38.5099 166.86 38.2099 166.93 37.8799 167.04C36.8199 167.4 36.2999 167.67 36.2999 168.37C36.2999 168.68 36.5199 169.45 37.4299 169.45Z" fill="white"/>
<path d="M43.4998 164.84C43.4998 164.14 43.4998 164.05 43.0098 163.72L42.8498 163.61C42.7798 163.54 42.7798 163.34 42.8698 163.29C43.2798 163.15 44.3098 162.68 44.6698 162.41C44.7398 162.41 44.8298 162.45 44.8698 162.54C44.8298 162.95 44.8298 163.22 44.8298 163.39C44.8298 163.5 44.8998 163.59 45.0298 163.59C45.7898 163.12 46.6298 162.67 47.5498 162.67C49.0398 162.67 49.6598 163.7 49.6598 164.9V168C49.6598 169.3 49.6998 169.48 50.3398 169.57L50.7398 169.62C50.8698 169.71 50.8298 170.02 50.6998 170.07C50.1598 170.03 49.6398 170.02 49.0098 170.02C48.3798 170.02 47.8198 170.04 47.3398 170.07C47.2098 170.02 47.1798 169.71 47.2998 169.62L47.6398 169.57C48.3098 169.46 48.3198 169.3 48.3198 168V165.32C48.3198 164.29 47.8498 163.54 46.6298 163.54C45.9498 163.54 45.3498 163.83 45.0998 164.17C44.8698 164.48 44.8298 164.73 44.8298 165.25V168C44.8298 169.3 44.8698 169.46 45.5098 169.57L45.8298 169.62C45.9598 169.71 45.9198 170.02 45.7898 170.07C45.2998 170.03 44.7798 170.02 44.1498 170.02C43.5198 170.02 42.9598 170.04 42.4598 170.07C42.3298 170.02 42.2998 169.71 42.4198 169.62L42.7998 169.57C43.4698 169.48 43.4798 169.3 43.4798 168V164.85L43.4998 164.84Z" fill="white"/>
<path d="M58.3398 167.38C58.3398 168.8 58.3598 169.47 58.8598 169.47C59.0598 169.47 59.3598 169.38 59.6298 169.29C59.7598 169.33 59.7698 169.78 59.6098 169.87C58.8498 169.98 57.7398 170.25 57.2298 170.45C57.1198 170.45 57.0298 170.4 57.0298 170.31V170C57.0298 169.73 57.0298 169.51 56.9898 169.44H56.9198C56.1298 169.98 55.5198 170.27 54.6498 170.27C52.6498 170.27 51.3198 168.7 51.3198 166.81C51.3198 164.29 53.2298 162.67 55.6798 162.67C56.2898 162.67 56.6898 162.76 56.8898 162.83C56.9798 162.83 56.9998 162.72 56.9998 162.58V159.86C56.9998 158.8 56.9798 158.69 56.4398 158.37L56.2598 158.26C56.1698 158.21 56.1698 157.95 56.2598 157.9C56.7098 157.76 57.5598 157.49 58.1998 157.14C58.2698 157.14 58.3398 157.18 58.3798 157.25C58.3598 157.79 58.3298 158.69 58.3298 159.48V167.38H58.3398ZM57.0098 164.68C57.0098 164.32 56.9398 164.16 56.8098 163.98C56.5398 163.6 55.9998 163.22 55.2998 163.22C53.6598 163.22 52.8198 164.64 52.8198 166.21C52.8198 167.78 53.7398 169.4 55.4998 169.4C55.9898 169.4 56.5998 169.18 56.8898 168.9C56.9998 168.79 57.0198 168.52 57.0198 168.23V164.68H57.0098Z" fill="white"/>
<path d="M67.0698 159.37C68.3798 158.34 70.0598 157.84 71.9298 157.84C72.8998 157.84 74.2698 158.04 75.1198 158.27C75.3398 158.32 75.4598 158.36 75.6198 158.34C75.6398 158.76 75.7298 159.89 75.8698 160.99C75.7798 161.12 75.5098 161.13 75.3798 161.03C75.1098 159.81 74.2998 158.4 71.6898 158.4C68.9398 158.4 66.5898 160.15 66.5898 163.87C66.5898 167.59 68.9798 169.74 71.9398 169.74C74.2598 169.74 75.2898 168.23 75.6998 167.17C75.8298 167.08 76.0998 167.12 76.1698 167.24C76.0398 168.18 75.5798 169.36 75.3098 169.71C75.0898 169.75 74.8798 169.82 74.6798 169.89C74.2798 170.03 72.9898 170.3 71.8398 170.3C70.2198 170.3 68.6698 169.98 67.3598 169.09C65.9198 168.1 64.7998 166.46 64.7998 164.14C64.7998 162.14 65.6998 160.43 67.0698 159.37Z" fill="white"/>
<path d="M79.2497 167.99C79.2497 169.29 79.2897 169.47 79.9297 169.56L80.3597 169.61C80.4897 169.7 80.4497 170.01 80.3197 170.06C79.7297 170.02 79.1997 170.01 78.5697 170.01C77.9397 170.01 77.3797 170.03 76.8397 170.06C76.7097 170.01 76.6797 169.7 76.7997 169.61L77.2097 169.56C77.8797 169.47 77.8897 169.29 77.8897 167.99V159.85C77.8897 158.79 77.8697 158.68 77.3297 158.36L77.1497 158.25C77.0597 158.2 77.0597 157.94 77.1497 157.89C77.5997 157.75 78.4497 157.48 79.0897 157.13C79.1597 157.13 79.2297 157.17 79.2697 157.24C79.2497 157.78 79.2197 158.68 79.2197 159.47V167.99H79.2497Z" fill="white"/>
<path d="M82.4698 164.84C82.4698 164.14 82.4698 164.05 81.9798 163.72L81.8198 163.61C81.7498 163.54 81.7498 163.34 81.8398 163.29C82.2498 163.15 83.2798 162.68 83.6898 162.41C83.7798 162.41 83.8498 162.45 83.8698 162.52C83.8298 163.15 83.7998 164.01 83.7998 164.75V167.99C83.7998 169.29 83.8398 169.47 84.4798 169.56L84.8598 169.61C84.9898 169.7 84.9498 170.01 84.8198 170.06C84.2798 170.02 83.7598 170.01 83.1298 170.01C82.4998 170.01 81.9398 170.03 81.4398 170.06C81.3098 170.01 81.2798 169.7 81.3998 169.61L81.7798 169.56C82.4498 169.47 82.4598 169.29 82.4598 167.99V164.84H82.4698ZM83.9598 159.71C83.9598 160.36 83.5098 160.65 83.0098 160.65C82.4498 160.65 82.0898 160.24 82.0898 159.75C82.0898 159.16 82.5198 158.78 83.0598 158.78C83.5998 158.78 83.9598 159.21 83.9598 159.72V159.71Z" fill="white"/>
<path d="M96.5698 165.38C96.5698 164.16 96.0298 163.52 94.8998 163.52C94.2198 163.52 93.6598 163.83 93.4098 164.15C93.1898 164.42 93.1398 164.6 93.1398 165.23V167.98C93.1398 169.28 93.1798 169.46 93.8198 169.55L94.1998 169.6C94.3298 169.69 94.2898 170 94.1598 170.05C93.6198 170.01 93.0998 170 92.4698 170C91.8398 170 91.3398 170.02 90.8298 170.05C90.6998 170 90.6698 169.69 90.7898 169.6L91.1098 169.55C91.7798 169.44 91.7898 169.28 91.7898 167.98V165.37C91.7898 164.16 91.2498 163.51 90.1298 163.51C89.3898 163.51 88.8898 163.83 88.6198 164.16C88.4398 164.38 88.3498 164.61 88.3498 165.19V167.98C88.3498 169.28 88.3898 169.44 89.0298 169.55L89.3498 169.6C89.4798 169.69 89.4398 170 89.3098 170.05C88.8198 170.01 88.2998 170 87.6698 170C87.0398 170 86.4798 170.02 85.9198 170.05C85.7898 170 85.7598 169.69 85.8798 169.6L86.3098 169.55C86.9798 169.46 86.9898 169.28 86.9898 167.98V164.83C86.9898 164.13 86.9898 164.04 86.4998 163.71L86.3398 163.6C86.2698 163.53 86.2698 163.33 86.3598 163.28C86.7698 163.14 87.7998 162.67 88.1598 162.4C88.2298 162.4 88.3198 162.44 88.3598 162.53C88.3198 162.94 88.3198 163.21 88.3198 163.38C88.3198 163.49 88.3898 163.58 88.5198 163.58C89.1998 163.09 90.0498 162.66 90.9098 162.66C91.7698 162.66 92.3098 162.98 92.8198 163.72C92.9798 163.76 93.1098 163.68 93.2698 163.58C93.9898 163.08 94.8698 162.66 95.7198 162.66C97.1598 162.66 97.8598 163.65 97.8598 164.89V167.99C97.8598 169.29 97.8998 169.47 98.5398 169.56L98.9698 169.61C99.0998 169.7 99.0598 170.01 98.9298 170.06C98.3398 170.02 97.8098 170.01 97.1798 170.01C96.5498 170.01 96.0498 170.03 95.5398 170.06C95.4098 170.01 95.3798 169.7 95.4998 169.61L95.8198 169.56C96.4898 169.45 96.4998 169.29 96.4998 167.99V165.38H96.5698Z" fill="white"/>
<path d="M103.55 166.28C103.82 166.19 103.86 166.03 103.86 165.76L103.88 164.93C103.9 164.26 103.68 163.36 102.57 163.36C102.07 163.36 101.45 163.61 101.42 164.17C101.4 164.46 101.38 164.67 101.24 164.78C100.97 165 100.48 165.12 100.21 165.12C100.05 165.12 99.9599 165.03 99.9599 164.87C99.9599 163.93 101.99 162.66 103.31 162.66C104.63 162.66 105.24 163.42 105.18 164.77L105.07 167.9C105.03 168.73 105.2 169.47 105.9 169.47C106.08 169.47 106.24 169.42 106.35 169.36C106.44 169.31 106.53 169.23 106.58 169.23C106.65 169.23 106.71 169.34 106.71 169.46C106.71 169.55 106.08 170.25 105.2 170.25C104.77 170.25 104.34 170.09 104.03 169.69C103.96 169.58 103.85 169.44 103.74 169.44C103.61 169.44 103.4 169.6 103.04 169.8C102.64 170.02 102.25 170.25 101.74 170.25C101.23 170.25 100.79 170.11 100.48 169.84C100.14 169.53 99.9199 169.08 99.9199 168.58C99.9199 167.88 100.26 167.46 101.41 167.05L103.55 166.28ZM102.43 169.45C102.79 169.45 103.35 169.18 103.53 169C103.75 168.78 103.75 168.53 103.76 168.15L103.8 167.09C103.8 166.89 103.73 166.86 103.62 166.86C103.51 166.86 103.21 166.93 102.88 167.04C101.82 167.4 101.3 167.67 101.3 168.37C101.3 168.68 101.52 169.45 102.43 169.45Z" fill="white"/>
<path d="M109.44 163.67C109.13 163.67 109.12 163.72 109.12 164.1V167.47C109.12 168.51 109.25 169.47 110.43 169.47C110.61 169.47 110.77 169.43 110.92 169.38C111.08 169.33 111.32 169.13 111.37 169.13C111.51 169.13 111.59 169.33 111.55 169.44C111.23 169.82 110.58 170.27 109.66 170.27C108.11 170.27 107.79 169.41 107.79 168.33V164.21C107.79 163.72 107.77 163.69 107.41 163.69H106.91C106.8 163.62 106.78 163.42 106.86 163.31C107.38 163.15 107.83 162.91 108.01 162.75C108.24 162.53 108.59 162.05 108.77 161.69C108.86 161.65 109.08 161.65 109.15 161.78V162.59C109.15 162.91 109.17 162.93 109.47 162.93H111.47C111.69 163.09 111.65 163.58 111.49 163.69H109.46L109.44 163.67Z" fill="white"/>
<path d="M113.74 165.4C113.27 165.4 113.26 165.44 113.26 165.89C113.26 167.71 114.32 169.26 116.25 169.26C116.84 169.26 117.35 169.08 117.91 168.38C118.09 168.33 118.22 168.43 118.23 168.6C117.64 169.82 116.34 170.27 115.4 170.27C114.23 170.27 113.31 169.77 112.79 169.08C112.25 168.38 112.03 167.53 112.03 166.74C112.03 164.53 113.49 162.67 115.65 162.67C117.2 162.67 118.21 163.73 118.21 164.81C118.21 165.06 118.17 165.21 118.14 165.28C118.09 165.39 117.83 165.41 117.08 165.41H113.75L113.74 165.4ZM114.86 164.86C116.19 164.86 116.59 164.79 116.73 164.68C116.78 164.64 116.84 164.57 116.84 164.34C116.84 163.84 116.5 163.21 115.45 163.21C114.4 163.21 113.47 164.18 113.45 164.78C113.45 164.82 113.45 164.87 113.58 164.87H114.86V164.86Z" fill="white"/>
<path d="M124.97 160.84C124.97 159.13 124.92 158.82 124.18 158.73L123.6 158.66C123.47 158.57 123.47 158.28 123.62 158.21C124.63 158.12 125.87 158.07 127.64 158.07C128.76 158.07 129.82 158.16 130.65 158.61C131.51 159.06 132.14 159.87 132.14 161.13C132.14 162.84 130.79 163.78 129.89 164.14C129.8 164.25 129.89 164.43 129.98 164.57C131.42 166.89 132.37 168.33 133.6 169.36C133.91 169.63 134.36 169.83 134.84 169.86C134.93 169.9 134.95 170.04 134.86 170.11C134.7 170.16 134.41 170.2 134.07 170.2C132.54 170.2 131.62 169.75 130.34 167.93C129.87 167.26 129.13 166.02 128.58 165.21C128.31 164.81 128.02 164.63 127.3 164.63C126.49 164.63 126.45 164.65 126.45 165.03V167.3C126.45 169.19 126.49 169.41 127.53 169.55L127.91 169.6C128.02 169.69 127.98 170 127.87 170.05C127.06 170.01 126.45 170 125.73 170C125.01 170 124.33 170.02 123.48 170.05C123.37 170 123.34 169.73 123.44 169.6L123.89 169.55C124.93 169.42 124.97 169.19 124.97 167.3V160.84ZM126.45 163.42C126.45 163.74 126.45 163.94 126.5 164.01C126.55 164.06 126.82 164.1 127.74 164.1C128.39 164.1 129.07 164.03 129.59 163.63C130.08 163.25 130.49 162.62 130.49 161.4C130.49 159.98 129.61 158.63 127.61 158.63C126.49 158.63 126.44 158.7 126.44 159.21V163.42H126.45Z" fill="white"/>
<path d="M136.5 165.4C136.03 165.4 136.01 165.44 136.01 165.89C136.01 167.71 137.07 169.26 139 169.26C139.59 169.26 140.1 169.08 140.66 168.38C140.84 168.33 140.97 168.43 140.98 168.6C140.39 169.82 139.09 170.27 138.15 170.27C136.98 170.27 136.06 169.77 135.54 169.08C135 168.38 134.78 167.53 134.78 166.74C134.78 164.53 136.24 162.67 138.4 162.67C139.95 162.67 140.96 163.73 140.96 164.81C140.96 165.06 140.92 165.21 140.89 165.28C140.84 165.39 140.58 165.41 139.83 165.41H136.5V165.4ZM137.62 164.86C138.95 164.86 139.35 164.79 139.49 164.68C139.54 164.64 139.6 164.57 139.6 164.34C139.6 163.84 139.26 163.21 138.21 163.21C137.16 163.21 136.23 164.18 136.21 164.78C136.21 164.82 136.21 164.87 136.34 164.87H137.62V164.86Z" fill="white"/>
<path d="M145.5 166.28C145.77 166.19 145.81 166.03 145.81 165.76L145.83 164.93C145.85 164.26 145.63 163.36 144.52 163.36C144.02 163.36 143.4 163.61 143.37 164.17C143.35 164.46 143.33 164.67 143.19 164.78C142.92 165 142.43 165.12 142.16 165.12C142 165.12 141.91 165.03 141.91 164.87C141.91 163.93 143.95 162.66 145.26 162.66C146.57 162.66 147.19 163.42 147.13 164.77L147.02 167.9C146.98 168.73 147.15 169.47 147.85 169.47C148.03 169.47 148.19 169.42 148.3 169.36C148.39 169.31 148.48 169.23 148.53 169.23C148.6 169.23 148.66 169.34 148.66 169.46C148.66 169.55 148.03 170.25 147.15 170.25C146.72 170.25 146.28 170.09 145.98 169.69C145.91 169.58 145.8 169.44 145.69 169.44C145.56 169.44 145.35 169.6 144.99 169.8C144.59 170.02 144.2 170.25 143.69 170.25C143.18 170.25 142.73 170.11 142.43 169.84C142.09 169.53 141.87 169.08 141.87 168.58C141.87 167.88 142.21 167.46 143.37 167.05L145.51 166.28H145.5ZM144.38 169.45C144.74 169.45 145.3 169.18 145.48 169C145.7 168.78 145.7 168.53 145.71 168.15L145.75 167.09C145.75 166.89 145.68 166.86 145.57 166.86C145.46 166.86 145.16 166.93 144.83 167.04C143.77 167.4 143.25 167.67 143.25 168.37C143.25 168.68 143.47 169.45 144.38 169.45Z" fill="white"/>
<path d="M155.95 167.38C155.95 168.8 155.97 169.47 156.47 169.47C156.67 169.47 156.97 169.38 157.24 169.29C157.37 169.33 157.38 169.78 157.22 169.87C156.46 169.98 155.35 170.25 154.84 170.45C154.73 170.45 154.64 170.4 154.64 170.31V170C154.64 169.73 154.64 169.51 154.6 169.44H154.53C153.74 169.98 153.13 170.27 152.26 170.27C150.26 170.27 148.93 168.7 148.93 166.81C148.93 164.29 150.84 162.67 153.29 162.67C153.9 162.67 154.3 162.76 154.5 162.83C154.59 162.83 154.61 162.72 154.61 162.58V159.86C154.61 158.8 154.59 158.69 154.05 158.37L153.87 158.26C153.78 158.21 153.78 157.95 153.87 157.9C154.32 157.76 155.17 157.49 155.81 157.14C155.88 157.14 155.95 157.18 155.99 157.25C155.97 157.79 155.94 158.69 155.94 159.48V167.38H155.95ZM154.62 164.68C154.62 164.32 154.55 164.16 154.42 163.98C154.15 163.6 153.61 163.22 152.91 163.22C151.27 163.22 150.42 164.64 150.42 166.21C150.42 167.78 151.34 169.4 153.1 169.4C153.59 169.4 154.2 169.18 154.49 168.9C154.6 168.79 154.62 168.52 154.62 168.23V164.68Z" fill="white"/>
<path d="M159.3 164.84C159.3 164.14 159.3 164.05 158.81 163.72L158.65 163.61C158.58 163.54 158.58 163.34 158.67 163.29C159.08 163.15 160.11 162.68 160.52 162.41C160.61 162.41 160.68 162.45 160.7 162.52C160.66 163.15 160.63 164.01 160.63 164.75V167.99C160.63 169.29 160.67 169.47 161.31 169.56L161.69 169.61C161.82 169.7 161.78 170.01 161.65 170.06C161.11 170.02 160.59 170.01 159.96 170.01C159.33 170.01 158.77 170.03 158.27 170.06C158.14 170.01 158.11 169.7 158.23 169.61L158.61 169.56C159.28 169.47 159.29 169.29 159.29 167.99V164.84H159.3ZM160.79 159.71C160.79 160.36 160.34 160.65 159.84 160.65C159.28 160.65 158.92 160.24 158.92 159.75C158.92 159.16 159.35 158.78 159.89 158.78C160.43 158.78 160.79 159.21 160.79 159.72V159.71Z" fill="white"/>
<path d="M163.83 164.84C163.83 164.14 163.83 164.05 163.34 163.72L163.18 163.61C163.11 163.54 163.11 163.34 163.2 163.29C163.61 163.15 164.64 162.68 165 162.41C165.07 162.41 165.16 162.45 165.2 162.54C165.16 162.95 165.16 163.22 165.16 163.39C165.16 163.5 165.23 163.59 165.36 163.59C166.12 163.12 166.96 162.67 167.88 162.67C169.38 162.67 169.99 163.7 169.99 164.9V168C169.99 169.3 170.03 169.48 170.67 169.57L171.07 169.62C171.2 169.71 171.16 170.02 171.03 170.07C170.49 170.03 169.97 170.02 169.34 170.02C168.71 170.02 168.15 170.04 167.67 170.07C167.54 170.02 167.51 169.71 167.63 169.62L167.97 169.57C168.64 169.46 168.65 169.3 168.65 168V165.32C168.65 164.29 168.18 163.54 166.96 163.54C166.28 163.54 165.68 163.83 165.43 164.17C165.2 164.48 165.16 164.73 165.16 165.25V168C165.16 169.3 165.2 169.46 165.84 169.57L166.16 169.62C166.29 169.71 166.25 170.02 166.12 170.07C165.63 170.03 165.11 170.02 164.48 170.02C163.85 170.02 163.29 170.04 162.79 170.07C162.66 170.02 162.63 169.71 162.75 169.62L163.13 169.57C163.8 169.48 163.81 169.3 163.81 168V164.85L163.83 164.84Z" fill="white"/>
<path d="M173.38 165.4C172.91 165.4 172.89 165.44 172.89 165.89C172.89 167.71 173.95 169.26 175.88 169.26C176.47 169.26 176.98 169.08 177.54 168.38C177.72 168.33 177.85 168.43 177.86 168.6C177.27 169.82 175.97 170.27 175.03 170.27C173.86 170.27 172.94 169.77 172.42 169.08C171.88 168.38 171.66 167.53 171.66 166.74C171.66 164.53 173.12 162.67 175.28 162.67C176.83 162.67 177.84 163.73 177.84 164.81C177.84 165.06 177.8 165.21 177.77 165.28C177.72 165.39 177.46 165.41 176.71 165.41H173.38V165.4ZM174.5 164.86C175.83 164.86 176.23 164.79 176.37 164.68C176.42 164.64 176.48 164.57 176.48 164.34C176.48 163.84 176.14 163.21 175.09 163.21C174.04 163.21 173.11 164.18 173.09 164.78C173.09 164.82 173.09 164.87 173.22 164.87H174.5V164.86Z" fill="white"/>
<path d="M183.1 162.99C183.26 163.39 183.39 163.96 183.39 164.45C183.32 164.58 183.05 164.61 182.96 164.5C182.65 163.71 182.11 163.19 181.38 163.19C180.65 163.19 180.23 163.64 180.23 164.29C180.23 165.03 180.99 165.42 181.62 165.78C182.57 166.32 183.46 166.93 183.46 168.21C183.46 169.58 182.2 170.26 180.87 170.26C180.02 170.26 179.39 170.08 178.94 169.72C178.8 169.38 178.69 168.5 178.72 167.9C178.81 167.79 179.04 167.77 179.13 167.88C179.44 168.87 180.01 169.73 181.04 169.73C181.69 169.73 182.25 169.35 182.25 168.58C182.25 167.75 181.53 167.3 180.86 166.92C179.82 166.33 179.08 165.7 179.08 164.71C179.08 163.4 180.16 162.66 181.53 162.66C182.29 162.66 182.95 162.84 183.11 162.98L183.1 162.99Z" fill="white"/>
<path d="M188.8 162.99C188.96 163.39 189.09 163.96 189.09 164.45C189.02 164.58 188.75 164.61 188.66 164.5C188.35 163.71 187.81 163.19 187.08 163.19C186.35 163.19 185.93 163.64 185.93 164.29C185.93 165.03 186.69 165.42 187.32 165.78C188.27 166.32 189.16 166.93 189.16 168.21C189.16 169.58 187.9 170.26 186.57 170.26C185.72 170.26 185.09 170.08 184.64 169.72C184.5 169.38 184.39 168.5 184.42 167.9C184.51 167.79 184.74 167.77 184.83 167.88C185.14 168.87 185.71 169.73 186.74 169.73C187.39 169.73 187.95 169.35 187.95 168.58C187.95 167.75 187.23 167.3 186.56 166.92C185.52 166.33 184.78 165.7 184.78 164.71C184.78 163.4 185.86 162.66 187.23 162.66C187.99 162.66 188.65 162.84 188.81 162.98L188.8 162.99Z" fill="white"/>
</g>
<defs>
<clipPath id="clip0_563_25761">
<rect width="224.37" height="198.24" fill="white"/>
</clipPath>
</defs>
</svg>
