<svg width="684" height="229" viewBox="0 0 684 229" fill="white" xmlns="http://www.w3.org/2000/svg">

<path d="M286.65 92.5701C287.54 94.3801 288.38 96.1501 289.31 97.8401H289.39C290.43 96.0301 291.39 94.0301 292.35 92.0701L295.97 84.7201C297.7 81.2201 298.82 79.1001 298.9 77.3301C300.21 77.4501 301.02 77.4501 301.79 77.4501C302.75 77.4501 304.02 77.4101 305.22 77.3301C305.45 77.4801 305.45 78.1401 305.26 78.2901L304.45 78.3701C302.02 78.6001 301.72 79.3301 301.76 82.0301C301.84 86.1101 301.88 93.2301 302.18 98.7801C302.3 100.7 302.26 101.74 304.07 101.9L305.3 102.02C305.53 102.25 305.49 102.83 305.22 102.98C303.64 102.9 302.06 102.86 300.68 102.86C299.3 102.86 297.6 102.9 296.02 102.98C295.75 102.79 295.71 102.25 295.94 102.02L297.06 101.9C298.95 101.71 298.95 101.09 298.95 98.6301L298.83 82.5801H298.75C298.48 83.0001 297.02 86.0801 296.25 87.5801L292.82 94.3201C291.09 97.7101 289.36 101.33 288.66 103.1C288.58 103.22 288.43 103.25 288.28 103.25C288.2 103.25 288.01 103.21 287.93 103.1C287.28 101.06 285.43 97.2901 284.54 95.4001L281.08 87.9701C280.27 86.2001 279.46 84.2001 278.62 82.4301H278.54C278.39 84.8201 278.27 87.0501 278.16 89.2801C278.04 91.6301 277.89 95.0501 277.89 98.3301C277.89 101.18 278.12 101.79 279.62 101.91L281.08 102.03C281.35 102.26 281.31 102.88 281.04 102.99C279.73 102.91 278.23 102.87 276.77 102.87C275.54 102.87 274.15 102.91 272.84 102.99C272.61 102.8 272.53 102.22 272.76 102.03L273.61 101.91C275.23 101.68 275.77 101.45 276 98.7501C276.23 96.2101 276.42 94.0901 276.65 90.2801C276.84 87.0801 277 83.8101 277.07 81.7001C277.15 79.2701 276.84 78.7001 274.49 78.3901L273.87 78.3101C273.68 78.0801 273.72 77.5001 274.02 77.3501C275.18 77.4301 276.1 77.4701 277.06 77.4701C277.95 77.4701 278.98 77.4701 280.26 77.3501C280.11 78.8501 281.07 81.2401 282.26 83.7001L286.65 92.5901V92.5701Z" fill="#234075"/>
<path d="M309.71 91.8001C309.71 90.3001 309.71 90.1101 308.67 89.4101L308.32 89.1801C308.17 89.0301 308.17 88.6001 308.36 88.4901C309.24 88.1801 311.44 87.1801 312.32 86.6001C312.51 86.6001 312.67 86.6801 312.7 86.8301C312.62 88.1801 312.55 90.0301 312.55 91.6001V98.5301C312.55 101.3 312.63 101.69 314.01 101.88L314.82 102C315.09 102.19 315.01 102.85 314.74 102.96C313.58 102.88 312.47 102.84 311.12 102.84C309.77 102.84 308.58 102.88 307.5 102.96C307.23 102.84 307.15 102.19 307.42 102L308.23 101.88C309.65 101.69 309.69 101.3 309.69 98.5301V91.7901L309.71 91.8001ZM312.91 80.8301C312.91 82.2201 311.95 82.8301 310.87 82.8301C309.68 82.8301 308.91 81.9401 308.91 80.9101C308.91 79.6401 309.83 78.8301 310.99 78.8301C312.15 78.8301 312.91 79.7501 312.91 80.8301Z" fill="#234075"/>
<path d="M319.22 91.8001C319.22 90.3001 319.22 90.1101 318.18 89.4101L317.83 89.1801C317.68 89.0301 317.68 88.6001 317.87 88.4901C318.75 88.1801 320.95 87.1801 321.72 86.6001C321.87 86.6001 322.07 86.6801 322.14 86.8701C322.06 87.7601 322.06 88.3301 322.06 88.6801C322.06 88.9101 322.21 89.1001 322.48 89.1001C324.1 88.1001 325.91 87.1401 327.87 87.1401C331.07 87.1401 332.37 89.3301 332.37 91.9101V98.5301C332.37 101.3 332.45 101.69 333.83 101.88L334.68 102C334.95 102.19 334.87 102.85 334.6 102.96C333.44 102.88 332.33 102.84 330.98 102.84C329.63 102.84 328.44 102.88 327.4 102.96C327.13 102.84 327.05 102.19 327.32 102L328.05 101.88C329.47 101.65 329.51 101.3 329.51 98.5301V92.7901C329.51 90.6001 328.51 88.9801 325.89 88.9801C324.43 88.9801 323.16 89.6001 322.62 90.3301C322.12 90.9801 322.04 91.5201 322.04 92.6401V98.5301C322.04 101.3 322.12 101.65 323.5 101.88L324.19 102C324.46 102.19 324.38 102.85 324.11 102.96C323.07 102.88 321.95 102.84 320.61 102.84C319.27 102.84 318.07 102.88 316.99 102.96C316.72 102.84 316.64 102.19 316.91 102L317.72 101.88C319.14 101.69 319.18 101.3 319.18 98.5301V91.7901L319.22 91.8001Z" fill="#234075"/>
<path d="M339.05 91.8001C339.05 90.3001 339.05 90.1101 338.01 89.4101L337.66 89.1801C337.51 89.0301 337.51 88.6001 337.7 88.4901C338.58 88.1801 340.78 87.1801 341.66 86.6001C341.85 86.6001 342.01 86.6801 342.04 86.8301C341.96 88.1801 341.89 90.0301 341.89 91.6001V98.5301C341.89 101.3 341.97 101.69 343.35 101.88L344.16 102C344.43 102.19 344.35 102.85 344.08 102.96C342.92 102.88 341.81 102.84 340.46 102.84C339.11 102.84 337.92 102.88 336.84 102.96C336.57 102.84 336.49 102.19 336.76 102L337.57 101.88C338.99 101.69 339.03 101.3 339.03 98.5301V91.7901L339.05 91.8001ZM342.25 80.8301C342.25 82.2201 341.29 82.8301 340.21 82.8301C339.02 82.8301 338.25 81.9401 338.25 80.9101C338.25 79.6401 339.17 78.8301 340.33 78.8301C341.49 78.8301 342.25 79.7501 342.25 80.8301Z" fill="#234075"/>
<path d="M355.33 87.84C355.68 88.69 355.95 89.92 355.95 90.96C355.8 91.23 355.22 91.31 355.03 91.08C354.38 89.39 353.22 88.27 351.64 88.27C350.06 88.27 349.18 89.23 349.18 90.62C349.18 92.2 350.8 93.04 352.14 93.82C354.18 94.98 356.07 96.28 356.07 99.02C356.07 101.95 353.37 103.41 350.53 103.41C348.72 103.41 347.37 103.03 346.41 102.25C346.1 101.52 345.87 99.63 345.95 98.36C346.14 98.13 346.64 98.09 346.83 98.32C347.49 100.44 348.72 102.29 350.91 102.29C352.3 102.29 353.49 101.48 353.49 99.83C353.49 98.06 351.95 97.1 350.53 96.29C348.3 95.02 346.72 93.67 346.72 91.55C346.72 88.74 349.03 87.16 351.96 87.16C353.58 87.16 355 87.54 355.35 87.85L355.33 87.84Z" fill="#234075"/>
<path d="M363.77 89.3001C363.12 89.3001 363.08 89.4201 363.08 90.2201V97.4201C363.08 99.6501 363.35 101.69 365.89 101.69C366.27 101.69 366.62 101.61 366.93 101.5C367.28 101.38 367.78 100.96 367.89 100.96C368.2 100.96 368.35 101.38 368.27 101.61C367.58 102.42 366.19 103.38 364.23 103.38C360.92 103.38 360.23 101.53 360.23 99.2201V90.4001C360.23 89.3601 360.19 89.2801 359.42 89.2801H358.34C358.11 89.1301 358.07 88.7001 358.22 88.4701C359.34 88.1201 360.3 87.6201 360.68 87.2801C361.18 86.8201 361.91 85.7801 362.3 85.0101C362.49 84.9301 362.95 84.9301 363.11 85.2001V86.9301C363.11 87.6201 363.15 87.6601 363.8 87.6601H368.07C368.53 88.0101 368.45 89.0501 368.11 89.2801H363.76L363.77 89.3001Z" fill="#234075"/>
<path d="M372.04 91.8001C372.04 90.3001 372.04 90.1101 371 89.4101L370.65 89.1801C370.5 89.0301 370.5 88.6001 370.69 88.4901C371.57 88.1801 373.62 87.1801 374.58 86.6001C374.77 86.6401 374.89 86.7201 374.89 86.8701V89.1001C374.89 89.2901 374.93 89.4101 375.01 89.4501C376.36 88.3301 377.82 87.1401 379.24 87.1401C380.2 87.1401 380.97 87.7601 380.97 88.6801C380.97 89.9501 379.93 90.4501 379.31 90.4501C378.93 90.4501 378.73 90.3301 378.46 90.1801C377.88 89.8001 377.3 89.5601 376.77 89.5601C376.15 89.5601 375.69 89.9101 375.38 90.3301C375 90.8701 374.88 91.9901 374.88 93.2901V98.5301C374.88 101.3 374.96 101.76 376.42 101.88L377.81 102C378.08 102.19 378 102.85 377.73 102.96C375.92 102.88 374.8 102.84 373.46 102.84C372.12 102.84 370.92 102.88 369.92 102.96C369.65 102.84 369.57 102.19 369.84 102L370.57 101.88C371.99 101.65 372.03 101.3 372.03 98.5301V91.7901L372.04 91.8001Z" fill="#234075"/>
<path d="M382.28 110.78C382.28 109.74 382.97 109.24 383.82 109.24H384.55C385.17 109.24 385.55 108.97 385.82 108.55C386.94 106.82 387.71 105.2 388.05 104.28C388.17 103.97 388.44 103.16 388.44 102.62C388.44 101.85 388.29 101.39 387.78 99.9601L384.78 91.7201C384.12 89.9101 383.86 88.9901 382.51 88.7201L381.55 88.5301C381.32 88.3401 381.36 87.6801 381.67 87.5701C382.9 87.6501 384.06 87.6901 385.33 87.6901C386.37 87.6901 387.45 87.6501 388.68 87.5701C388.99 87.6901 389.03 88.3401 388.76 88.5301L387.8 88.7201C387.26 88.8401 386.95 88.9501 386.95 89.2201C386.95 89.6801 387.84 92.1801 388.07 92.8401L389.3 96.3801C389.53 97.0001 390.26 99.0401 390.42 99.1101C390.54 99.0301 391.15 97.8401 391.84 96.2601L393.15 93.2201C394 91.2201 394.5 89.7901 394.5 89.3701C394.5 89.1001 394.27 88.8301 393.58 88.7201L392.39 88.5301C392.12 88.3401 392.16 87.6801 392.47 87.5701C393.7 87.6501 394.86 87.6901 395.86 87.6901C396.86 87.6901 397.71 87.6501 398.79 87.5701C399.1 87.7201 399.14 88.3001 398.87 88.5301L398.21 88.6501C396.94 88.8801 396.25 90.0001 394.94 92.7301L392.78 97.1601C391.51 99.7401 388.35 106.44 386.47 110.63C385.82 112.09 384.89 112.44 384.01 112.44C382.89 112.44 382.32 111.75 382.32 110.78H382.28Z" fill="#234075"/>
<path d="M424.44 95.11C424.44 99.92 421.13 103.39 416.32 103.39C411.89 103.39 408.43 100.27 408.43 95.46C408.43 90.65 412.09 87.14 416.63 87.14C421.17 87.14 424.44 90.37 424.44 95.11ZM416.16 88.3C413.62 88.3 411.73 90.72 411.73 94.96C411.73 98.46 413.31 102.24 416.7 102.24C420.09 102.24 421.13 98.7 421.13 95.73C421.13 92.46 419.82 88.3 416.16 88.3Z" fill="#234075"/>
<path d="M432.56 89.3001C431.91 89.3001 431.91 89.3801 431.91 90.4201V98.5401C431.91 101.31 431.99 101.77 433.37 101.89L434.76 102.01C435.03 102.2 434.95 102.86 434.68 102.97C432.95 102.89 431.83 102.85 430.48 102.85C429.13 102.85 427.94 102.89 426.78 102.97C426.51 102.85 426.43 102.2 426.7 102.01L427.59 101.89C429.01 101.7 429.05 101.31 429.05 98.5401V90.4201C429.05 89.3801 429.05 89.3001 428.28 89.3001H426.93C426.7 89.1501 426.66 88.8001 426.81 88.5701L428.47 87.7601C428.78 87.6101 429.05 87.3701 429.05 86.9901C429.05 84.7601 429.32 82.3701 430.24 80.2101C431.2 78.0201 433.36 75.3201 437.17 75.3201C439.21 75.3201 440.94 76.2401 440.94 77.6301C440.94 78.4001 440.21 79.0201 439.48 79.0201C439.06 79.0201 438.83 78.8701 438.56 78.5601C437.83 77.7101 436.75 76.8701 435.48 76.8701C434.29 76.8701 433.32 77.6001 432.75 78.9901C432.06 80.7601 431.9 83.5701 431.9 85.5001V86.6201C431.9 87.6601 431.9 87.7001 432.55 87.7001H436.94C437.36 88.0801 437.09 89.1601 436.67 89.3201H432.55L432.56 89.3001Z" fill="#234075"/>
<path d="M276.6 121.72C276.6 117.72 276.52 117.14 274.25 116.87L273.63 116.79C273.4 116.64 273.48 115.94 273.71 115.83C275.37 115.91 276.67 115.95 278.25 115.95H285.49C287.95 115.95 290.23 115.95 290.69 115.83C290.92 116.48 291.15 119.26 291.31 120.95C291.16 121.18 290.54 121.26 290.35 121.03C289.77 119.22 289.43 117.87 287.42 117.37C286.61 117.18 285.38 117.14 283.69 117.14H280.92C279.77 117.14 279.77 117.22 279.77 118.68V126.38C279.77 127.46 279.89 127.46 281.04 127.46H283.27C284.89 127.46 286.08 127.38 286.54 127.23C287 127.08 287.27 126.85 287.46 125.88L287.77 124.3C287.96 124.07 288.62 124.07 288.77 124.34C288.77 125.26 288.62 126.76 288.62 128.23C288.62 129.62 288.77 131.08 288.77 131.93C288.62 132.2 287.96 132.2 287.77 131.97L287.42 130.47C287.27 129.78 287 129.2 286.23 129.01C285.69 128.86 284.77 128.82 283.27 128.82H281.04C279.89 128.82 279.77 128.86 279.77 129.86V135.29C279.77 137.33 279.89 138.64 280.5 139.29C280.96 139.75 281.77 140.18 285.16 140.18C288.12 140.18 289.24 140.03 290.09 139.6C290.78 139.21 291.82 137.87 292.82 135.87C293.09 135.68 293.63 135.79 293.78 136.14C293.51 137.49 292.55 140.45 292.05 141.49C288.59 141.41 285.16 141.37 281.73 141.37H278.27C276.61 141.37 275.31 141.41 273.03 141.49C272.8 141.37 272.72 140.76 272.95 140.53L274.22 140.41C276.41 140.22 276.61 139.64 276.61 135.6V121.74L276.6 121.72Z" fill="#234075"/>
<path d="M317.72 131.46C317.72 128.84 316.56 127.49 314.14 127.49C312.68 127.49 311.48 128.14 310.94 128.84C310.48 129.42 310.36 129.8 310.36 131.15V137.04C310.36 139.81 310.44 140.2 311.82 140.39L312.63 140.51C312.9 140.7 312.82 141.36 312.55 141.47C311.4 141.39 310.28 141.35 308.93 141.35C307.58 141.35 306.5 141.39 305.43 141.47C305.16 141.35 305.08 140.7 305.35 140.51L306.04 140.39C307.46 140.16 307.5 139.81 307.5 137.04V131.46C307.5 128.88 306.34 127.49 303.96 127.49C302.38 127.49 301.3 128.18 300.73 128.88C300.34 129.34 300.15 129.84 300.15 131.07V137.04C300.15 139.81 300.23 140.16 301.61 140.39L302.3 140.51C302.57 140.7 302.49 141.36 302.22 141.47C301.18 141.39 300.06 141.35 298.72 141.35C297.38 141.35 296.18 141.39 294.99 141.47C294.72 141.35 294.64 140.7 294.91 140.51L295.83 140.39C297.25 140.2 297.29 139.81 297.29 137.04V130.3C297.29 128.8 297.29 128.61 296.25 127.91L295.9 127.68C295.75 127.53 295.75 127.1 295.94 126.99C296.83 126.68 299.02 125.68 299.79 125.1C299.94 125.1 300.14 125.18 300.21 125.37C300.13 126.26 300.13 126.83 300.13 127.18C300.13 127.41 300.28 127.6 300.55 127.6C302.01 126.56 303.82 125.64 305.67 125.64C307.52 125.64 308.67 126.33 309.75 127.91C310.1 127.99 310.37 127.83 310.71 127.6C312.25 126.52 314.14 125.64 315.95 125.64C319.03 125.64 320.53 127.76 320.53 130.41V137.03C320.53 139.8 320.61 140.19 321.99 140.38L322.91 140.5C323.18 140.69 323.1 141.35 322.83 141.46C321.56 141.38 320.44 141.34 319.1 141.34C317.76 141.34 316.67 141.38 315.6 141.46C315.33 141.34 315.25 140.69 315.52 140.5L316.21 140.38C317.63 140.15 317.67 139.8 317.67 137.03V131.45L317.72 131.46Z" fill="#234075"/>
<path d="M328.46 131.49C327.46 131.49 327.42 131.57 327.42 132.53C327.42 136.42 329.69 139.73 333.81 139.73C335.08 139.73 336.16 139.35 337.35 137.84C337.74 137.72 338 137.96 338.04 138.3C336.77 140.92 334 141.88 332 141.88C329.5 141.88 327.53 140.8 326.42 139.34C325.27 137.84 324.8 136.03 324.8 134.34C324.8 129.6 327.92 125.64 332.54 125.64C335.85 125.64 338.01 127.91 338.01 130.22C338.01 130.76 337.93 131.07 337.86 131.22C337.74 131.45 337.21 131.49 335.59 131.49H328.47H328.46ZM330.85 130.33C333.7 130.33 334.55 130.18 334.85 129.95C334.97 129.87 335.08 129.72 335.08 129.22C335.08 128.14 334.35 126.8 332.12 126.8C329.89 126.8 327.89 128.88 327.85 130.15C327.85 130.23 327.85 130.34 328.12 130.34H330.85V130.33Z" fill="#234075"/>
<path d="M342.09 130.3C342.09 128.8 342.09 128.61 341.05 127.91L340.7 127.68C340.55 127.53 340.55 127.1 340.74 126.99C341.62 126.68 343.67 125.68 344.63 125.1C344.82 125.14 344.94 125.22 344.94 125.37V127.6C344.94 127.79 344.98 127.91 345.06 127.95C346.41 126.83 347.87 125.64 349.29 125.64C350.25 125.64 351.02 126.26 351.02 127.18C351.02 128.45 349.98 128.95 349.36 128.95C348.98 128.95 348.78 128.83 348.51 128.68C347.93 128.3 347.35 128.06 346.82 128.06C346.2 128.06 345.74 128.41 345.43 128.83C345.05 129.37 344.93 130.49 344.93 131.79V137.03C344.93 139.8 345.01 140.26 346.47 140.38L347.86 140.5C348.13 140.69 348.05 141.35 347.78 141.46C345.97 141.38 344.85 141.34 343.51 141.34C342.17 141.34 340.97 141.38 339.97 141.46C339.7 141.34 339.62 140.69 339.89 140.5L340.62 140.38C342.04 140.15 342.08 139.8 342.08 137.03V130.29L342.09 130.3Z" fill="#234075"/>
<path d="M367.88 127.03C368.3 127.22 368.23 128.53 367.65 128.61H364.88C364.96 129.27 364.96 129.92 364.96 130.57C364.96 133.23 363.38 136.69 358.49 136.69C357.8 136.69 357.26 136.61 356.8 136.57C356.34 136.84 355.11 137.57 355.11 138.69C355.11 139.58 356 140.31 357.81 140.31C359.12 140.31 360.7 140.19 362.39 140.19C364.55 140.19 367.78 140.58 367.78 144.43C367.78 148.63 363.2 151.71 358.19 151.71C353.45 151.71 351.8 149.17 351.8 147.25C351.8 146.63 351.95 146.13 352.22 145.83C352.88 145.14 353.95 144.14 354.84 143.25C355.19 142.9 355.49 142.56 355.15 142.33C353.65 141.94 352.34 140.64 352.34 139.29C352.34 139.1 352.49 138.94 352.92 138.64C353.57 138.22 354.31 137.56 354.96 136.87C355.15 136.64 355.35 136.33 355.35 136.14C354.04 135.45 352.46 133.95 352.46 131.48C352.46 128.17 355.31 125.67 358.74 125.67C360.2 125.67 361.55 126.05 362.44 126.44C363.67 126.98 363.94 127.06 364.79 127.06H367.91L367.88 127.03ZM359.83 142.58C358.6 142.58 357.06 142.66 356.52 143C355.6 143.58 354.67 144.77 354.67 146.23C354.67 148.31 356.33 150.04 359.83 150.04C363.33 150.04 365.53 148.12 365.53 145.92C365.53 143.57 363.91 142.57 361.14 142.57H359.83V142.58ZM362.22 131.57C362.22 128.95 361.14 126.76 358.79 126.76C356.94 126.76 355.56 128.45 355.56 131.07C355.56 133.69 357.22 135.57 359.06 135.57C361.14 135.57 362.22 133.91 362.22 131.57Z" fill="#234075"/>
<path d="M372.51 131.49C371.51 131.49 371.47 131.57 371.47 132.53C371.47 136.42 373.74 139.73 377.86 139.73C379.13 139.73 380.21 139.35 381.4 137.84C381.79 137.72 382.05 137.96 382.09 138.3C380.82 140.92 378.05 141.88 376.05 141.88C373.55 141.88 371.58 140.8 370.47 139.34C369.32 137.84 368.85 136.03 368.85 134.34C368.85 129.6 371.97 125.64 376.59 125.64C379.9 125.64 382.06 127.91 382.06 130.22C382.06 130.76 381.98 131.07 381.91 131.22C381.79 131.45 381.26 131.49 379.64 131.49H372.52H372.51ZM374.9 130.33C377.75 130.33 378.6 130.18 378.9 129.95C379.02 129.87 379.13 129.72 379.13 129.22C379.13 128.14 378.4 126.8 376.17 126.8C373.94 126.8 371.94 128.88 371.9 130.15C371.9 130.23 371.9 130.34 372.17 130.34H374.9V130.33Z" fill="#234075"/>
<path d="M386.13 130.3C386.13 128.8 386.13 128.61 385.09 127.91L384.74 127.68C384.59 127.53 384.59 127.1 384.78 126.99C385.66 126.68 387.86 125.68 388.63 125.1C388.78 125.1 388.98 125.18 389.05 125.37C388.97 126.26 388.97 126.83 388.97 127.18C388.97 127.41 389.12 127.6 389.39 127.6C391.01 126.6 392.82 125.64 394.78 125.64C397.98 125.64 399.28 127.83 399.28 130.41V137.03C399.28 139.8 399.36 140.19 400.74 140.38L401.59 140.5C401.86 140.69 401.78 141.35 401.51 141.46C400.35 141.38 399.24 141.34 397.89 141.34C396.54 141.34 395.35 141.38 394.31 141.46C394.04 141.34 393.96 140.69 394.23 140.5L394.96 140.38C396.38 140.15 396.42 139.8 396.42 137.03V131.29C396.42 129.1 395.42 127.48 392.8 127.48C391.34 127.48 390.07 128.1 389.53 128.83C389.03 129.48 388.95 130.02 388.95 131.14V137.03C388.95 139.8 389.03 140.15 390.41 140.38L391.1 140.5C391.37 140.69 391.29 141.35 391.02 141.46C389.98 141.38 388.86 141.34 387.52 141.34C386.18 141.34 384.98 141.38 383.9 141.46C383.63 141.34 383.55 140.69 383.82 140.5L384.63 140.38C386.05 140.19 386.09 139.8 386.09 137.03V130.29L386.13 130.3Z" fill="#234075"/>
<path d="M416.32 126.3C416.63 126.57 416.9 127.19 416.9 127.84C416.9 128.53 416.52 129.26 416.05 129.26C415.86 129.26 415.67 129.18 415.51 128.99C414.66 127.95 413.24 126.95 411.66 126.95C408.96 126.95 406.35 129.07 406.35 133.15C406.35 136.15 408.43 139.73 412.55 139.73C414.78 139.73 415.94 138.73 416.82 137.42C417.13 137.34 417.47 137.61 417.51 137.96C416.2 140.81 413.31 141.89 411.08 141.89C409.04 141.89 407.15 141.24 405.81 139.93C404.46 138.62 403.58 136.73 403.58 134.23C403.58 130.07 406.51 125.65 412.9 125.65C413.79 125.65 415.29 125.84 416.33 126.3H416.32Z" fill="#234075"/>
<path d="M418.13 149.28C418.13 148.24 418.82 147.74 419.67 147.74H420.4C421.02 147.74 421.4 147.47 421.67 147.05C422.79 145.32 423.56 143.7 423.9 142.78C424.02 142.47 424.29 141.66 424.29 141.12C424.29 140.35 424.14 139.89 423.63 138.46L420.63 130.22C419.97 128.41 419.71 127.49 418.36 127.22L417.4 127.03C417.17 126.84 417.21 126.18 417.52 126.07C418.75 126.15 419.91 126.19 421.18 126.19C422.22 126.19 423.3 126.15 424.53 126.07C424.84 126.19 424.88 126.84 424.61 127.03L423.65 127.22C423.11 127.34 422.8 127.45 422.8 127.72C422.8 128.18 423.69 130.68 423.92 131.34L425.15 134.88C425.38 135.5 426.11 137.54 426.27 137.61C426.39 137.53 427 136.34 427.69 134.76L429 131.72C429.85 129.72 430.35 128.29 430.35 127.87C430.35 127.6 430.12 127.33 429.43 127.22L428.24 127.03C427.97 126.84 428.01 126.18 428.32 126.07C429.55 126.15 430.71 126.19 431.71 126.19C432.71 126.19 433.56 126.15 434.64 126.07C434.95 126.22 434.99 126.8 434.72 127.03L434.06 127.15C432.79 127.38 432.1 128.5 430.79 131.23L428.63 135.66C427.36 138.24 424.2 144.94 422.32 149.13C421.67 150.59 420.74 150.94 419.86 150.94C418.74 150.94 418.17 150.25 418.17 149.28H418.13Z" fill="#234075"/>
<path d="M457.9 131.07C458.79 132.88 459.63 134.65 460.56 136.34H460.64C461.68 134.53 462.64 132.53 463.6 130.57L467.22 123.22C468.95 119.72 470.07 117.6 470.15 115.83C471.46 115.95 472.27 115.95 473.04 115.95C474 115.95 475.27 115.91 476.47 115.83C476.7 115.98 476.7 116.64 476.51 116.79L475.7 116.87C473.27 117.1 472.97 117.83 473 120.53C473.08 124.61 473.12 131.73 473.42 137.28C473.54 139.2 473.5 140.24 475.31 140.4L476.54 140.52C476.77 140.75 476.73 141.33 476.46 141.48C474.88 141.4 473.3 141.36 471.92 141.36C470.54 141.36 468.84 141.4 467.26 141.48C466.99 141.29 466.95 140.75 467.18 140.52L468.3 140.4C470.19 140.21 470.19 139.59 470.19 137.13L470.07 121.08H469.99C469.72 121.5 468.26 124.58 467.49 126.08L464.06 132.82C462.33 136.21 460.6 139.83 459.9 141.6C459.82 141.72 459.67 141.75 459.52 141.75C459.44 141.75 459.25 141.71 459.17 141.6C458.52 139.56 456.67 135.79 455.78 133.9L452.32 126.47C451.51 124.7 450.7 122.7 449.86 120.93H449.78C449.63 123.32 449.51 125.55 449.4 127.78C449.28 130.13 449.13 133.55 449.13 136.83C449.13 139.68 449.36 140.29 450.86 140.41L452.32 140.53C452.59 140.76 452.55 141.38 452.28 141.49C450.97 141.41 449.47 141.37 448.01 141.37C446.78 141.37 445.39 141.41 444.08 141.49C443.85 141.3 443.77 140.72 444 140.53L444.85 140.41C446.47 140.18 447.01 139.95 447.24 137.25C447.47 134.71 447.66 132.59 447.89 128.78C448.08 125.58 448.24 122.31 448.31 120.2C448.39 117.77 448.08 117.2 445.73 116.89L445.11 116.81C444.92 116.58 444.96 116 445.26 115.85C446.41 115.93 447.34 115.97 448.3 115.97C449.19 115.97 450.22 115.97 451.5 115.85C451.35 117.35 452.31 119.74 453.5 122.2L457.89 131.09L457.9 131.07Z" fill="#234075"/>
<path d="M486.31 133.38C486.89 133.19 486.96 132.84 486.96 132.26L487 130.49C487.04 129.07 486.58 127.14 484.19 127.14C483.11 127.14 481.8 127.68 481.73 128.87C481.69 129.49 481.65 129.95 481.35 130.18C480.77 130.64 479.73 130.91 479.16 130.91C478.81 130.91 478.62 130.72 478.62 130.37C478.62 128.37 482.97 125.63 485.78 125.63C488.59 125.63 489.9 127.25 489.78 130.13L489.55 136.83C489.47 138.6 489.82 140.18 491.32 140.18C491.7 140.18 492.05 140.06 492.28 139.95C492.47 139.83 492.67 139.68 492.78 139.68C492.93 139.68 493.05 139.91 493.05 140.18C493.05 140.37 491.7 141.87 489.82 141.87C488.9 141.87 487.97 141.52 487.32 140.68C487.17 140.45 486.94 140.14 486.7 140.14C486.43 140.14 485.97 140.49 485.2 140.91C484.35 141.37 483.51 141.87 482.43 141.87C481.35 141.87 480.39 141.56 479.74 140.98C479.01 140.33 478.55 139.36 478.55 138.29C478.55 136.79 479.28 135.9 481.75 135.02L486.33 133.36L486.31 133.38ZM483.92 140.16C484.69 140.16 485.88 139.58 486.27 139.2C486.73 138.74 486.73 138.2 486.77 137.39L486.85 135.12C486.85 134.7 486.7 134.62 486.47 134.62C486.24 134.62 485.58 134.77 484.89 135C482.62 135.77 481.5 136.35 481.5 137.85C481.5 138.5 481.96 140.16 483.93 140.16H483.92Z" fill="#234075"/>
<path d="M496.13 130.3C496.13 128.8 496.13 128.61 495.09 127.91L494.74 127.68C494.59 127.53 494.59 127.1 494.78 126.99C495.66 126.68 497.86 125.68 498.63 125.1C498.78 125.1 498.98 125.18 499.05 125.37C498.97 126.26 498.97 126.83 498.97 127.18C498.97 127.41 499.12 127.6 499.39 127.6C501.01 126.6 502.82 125.64 504.78 125.64C507.98 125.64 509.28 127.83 509.28 130.41V137.03C509.28 139.8 509.36 140.19 510.74 140.38L511.59 140.5C511.86 140.69 511.78 141.35 511.51 141.46C510.35 141.38 509.24 141.34 507.89 141.34C506.54 141.34 505.35 141.38 504.31 141.46C504.04 141.34 503.96 140.69 504.23 140.5L504.96 140.38C506.38 140.15 506.42 139.8 506.42 137.03V131.29C506.42 129.1 505.42 127.48 502.8 127.48C501.34 127.48 500.07 128.1 499.53 128.83C499.03 129.48 498.95 130.02 498.95 131.14V137.03C498.95 139.8 499.03 140.15 500.41 140.38L501.1 140.5C501.37 140.69 501.29 141.35 501.02 141.46C499.98 141.38 498.86 141.34 497.52 141.34C496.18 141.34 494.98 141.38 493.9 141.46C493.63 141.34 493.55 140.69 493.82 140.5L494.63 140.38C496.05 140.19 496.09 139.8 496.09 137.03V130.29L496.13 130.3Z" fill="#234075"/>
<path d="M521.31 133.38C521.89 133.19 521.96 132.84 521.96 132.26L522 130.49C522.04 129.07 521.58 127.14 519.19 127.14C518.11 127.14 516.8 127.68 516.73 128.87C516.69 129.49 516.65 129.95 516.35 130.18C515.77 130.64 514.73 130.91 514.16 130.91C513.81 130.91 513.62 130.72 513.62 130.37C513.62 128.37 517.97 125.63 520.78 125.63C523.59 125.63 524.9 127.25 524.78 130.13L524.55 136.83C524.47 138.6 524.82 140.18 526.32 140.18C526.7 140.18 527.05 140.06 527.28 139.95C527.47 139.83 527.67 139.68 527.78 139.68C527.93 139.68 528.05 139.91 528.05 140.18C528.05 140.37 526.7 141.87 524.82 141.87C523.9 141.87 522.97 141.52 522.32 140.68C522.17 140.45 521.94 140.14 521.7 140.14C521.43 140.14 520.97 140.49 520.2 140.91C519.35 141.37 518.51 141.87 517.43 141.87C516.35 141.87 515.39 141.56 514.74 140.98C514.01 140.33 513.55 139.36 513.55 138.29C513.55 136.79 514.28 135.9 516.75 135.02L521.33 133.36L521.31 133.38ZM518.92 140.16C519.69 140.16 520.88 139.58 521.27 139.2C521.73 138.74 521.73 138.2 521.77 137.39L521.85 135.12C521.85 134.7 521.7 134.62 521.47 134.62C521.24 134.62 520.58 134.77 519.89 135C517.62 135.77 516.5 136.35 516.5 137.85C516.5 138.5 516.96 140.16 518.93 140.16H518.92Z" fill="#234075"/>
<path d="M544.52 127.03C544.94 127.22 544.87 128.53 544.29 128.61H541.52C541.6 129.27 541.6 129.92 541.6 130.57C541.6 133.23 540.02 136.69 535.13 136.69C534.44 136.69 533.9 136.61 533.44 136.57C532.98 136.84 531.75 137.57 531.75 138.69C531.75 139.58 532.64 140.31 534.45 140.31C535.76 140.31 537.34 140.19 539.03 140.19C541.19 140.19 544.42 140.58 544.42 144.43C544.42 148.63 539.84 151.71 534.83 151.71C530.09 151.71 528.44 149.17 528.44 147.25C528.44 146.63 528.59 146.13 528.86 145.83C529.52 145.14 530.59 144.14 531.48 143.25C531.83 142.9 532.13 142.56 531.79 142.33C530.29 141.94 528.98 140.64 528.98 139.29C528.98 139.1 529.13 138.94 529.56 138.64C530.21 138.22 530.95 137.56 531.6 136.87C531.79 136.64 531.99 136.33 531.99 136.14C530.68 135.45 529.1 133.95 529.1 131.48C529.1 128.17 531.95 125.67 535.38 125.67C536.84 125.67 538.19 126.05 539.08 126.44C540.31 126.98 540.58 127.06 541.43 127.06H544.55L544.52 127.03ZM536.47 142.58C535.24 142.58 533.7 142.66 533.16 143C532.24 143.58 531.31 144.77 531.31 146.23C531.31 148.31 532.97 150.04 536.47 150.04C539.97 150.04 542.17 148.12 542.17 145.92C542.17 143.57 540.55 142.57 537.78 142.57H536.47V142.58ZM538.86 131.57C538.86 128.95 537.78 126.76 535.43 126.76C533.58 126.76 532.2 128.45 532.2 131.07C532.2 133.69 533.86 135.57 535.7 135.57C537.78 135.57 538.86 133.91 538.86 131.57Z" fill="#234075"/>
<path d="M549.14 131.49C548.14 131.49 548.1 131.57 548.1 132.53C548.1 136.42 550.37 139.73 554.49 139.73C555.76 139.73 556.84 139.35 558.03 137.84C558.42 137.72 558.68 137.96 558.72 138.3C557.45 140.92 554.68 141.88 552.68 141.88C550.18 141.88 548.21 140.8 547.1 139.34C545.95 137.84 545.48 136.03 545.48 134.34C545.48 129.6 548.6 125.64 553.22 125.64C556.53 125.64 558.69 127.91 558.69 130.22C558.69 130.76 558.61 131.07 558.54 131.22C558.42 131.45 557.89 131.49 556.27 131.49H549.15H549.14ZM551.53 130.33C554.38 130.33 555.23 130.18 555.53 129.95C555.65 129.87 555.76 129.72 555.76 129.22C555.76 128.14 555.03 126.8 552.8 126.8C550.57 126.8 548.57 128.88 548.53 130.15C548.53 130.23 548.53 130.34 548.8 130.34H551.53V130.33Z" fill="#234075"/>
<path d="M583.17 131.46C583.17 128.84 582.01 127.49 579.59 127.49C578.13 127.49 576.93 128.14 576.39 128.84C575.93 129.42 575.81 129.8 575.81 131.15V137.04C575.81 139.81 575.89 140.2 577.27 140.39L578.08 140.51C578.35 140.7 578.27 141.36 578 141.47C576.85 141.39 575.73 141.35 574.38 141.35C573.03 141.35 571.95 141.39 570.88 141.47C570.61 141.35 570.53 140.7 570.8 140.51L571.49 140.39C572.91 140.16 572.95 139.81 572.95 137.04V131.46C572.95 128.88 571.79 127.49 569.41 127.49C567.83 127.49 566.75 128.18 566.18 128.88C565.8 129.34 565.6 129.84 565.6 131.07V137.04C565.6 139.81 565.68 140.16 567.06 140.39L567.75 140.51C568.02 140.7 567.94 141.36 567.67 141.47C566.63 141.39 565.51 141.35 564.17 141.35C562.83 141.35 561.63 141.39 560.44 141.47C560.17 141.35 560.09 140.7 560.36 140.51L561.28 140.39C562.7 140.2 562.74 139.81 562.74 137.04V130.3C562.74 128.8 562.74 128.61 561.7 127.91L561.35 127.68C561.2 127.53 561.2 127.1 561.39 126.99C562.27 126.68 564.47 125.68 565.24 125.1C565.39 125.1 565.59 125.18 565.66 125.37C565.58 126.26 565.58 126.83 565.58 127.18C565.58 127.41 565.73 127.6 566 127.6C567.46 126.56 569.27 125.64 571.12 125.64C572.97 125.64 574.12 126.33 575.2 127.91C575.55 127.99 575.82 127.83 576.16 127.6C577.7 126.52 579.59 125.64 581.4 125.64C584.48 125.64 585.98 127.76 585.98 130.41V137.03C585.98 139.8 586.06 140.19 587.44 140.38L588.36 140.5C588.63 140.69 588.55 141.35 588.28 141.46C587.01 141.38 585.89 141.34 584.55 141.34C583.21 141.34 582.12 141.38 581.05 141.46C580.78 141.34 580.7 140.69 580.97 140.5L581.66 140.38C583.08 140.15 583.12 139.8 583.12 137.03V131.45L583.17 131.46Z" fill="#234075"/>
<path d="M593.92 131.49C592.92 131.49 592.88 131.57 592.88 132.53C592.88 136.42 595.15 139.73 599.27 139.73C600.54 139.73 601.62 139.35 602.81 137.84C603.2 137.72 603.46 137.96 603.5 138.3C602.23 140.92 599.46 141.88 597.46 141.88C594.96 141.88 592.99 140.8 591.88 139.34C590.73 137.84 590.26 136.03 590.26 134.34C590.26 129.6 593.38 125.64 598 125.64C601.31 125.64 603.47 127.91 603.47 130.22C603.47 130.76 603.39 131.07 603.32 131.22C603.2 131.45 602.67 131.49 601.05 131.49H593.93H593.92ZM596.31 130.33C599.16 130.33 600.01 130.18 600.31 129.95C600.43 129.87 600.54 129.72 600.54 129.22C600.54 128.14 599.81 126.8 597.58 126.8C595.35 126.8 593.35 128.88 593.31 130.15C593.31 130.23 593.31 130.34 593.58 130.34H596.31V130.33Z" fill="#234075"/>
<path d="M607.54 130.3C607.54 128.8 607.54 128.61 606.5 127.91L606.15 127.68C606 127.53 606 127.1 606.19 126.99C607.07 126.68 609.27 125.68 610.04 125.1C610.19 125.1 610.39 125.18 610.46 125.37C610.38 126.26 610.38 126.83 610.38 127.18C610.38 127.41 610.53 127.6 610.8 127.6C612.42 126.6 614.23 125.64 616.19 125.64C619.39 125.64 620.69 127.83 620.69 130.41V137.03C620.69 139.8 620.77 140.19 622.15 140.38L623 140.5C623.27 140.69 623.19 141.35 622.92 141.46C621.76 141.38 620.65 141.34 619.3 141.34C617.95 141.34 616.76 141.38 615.72 141.46C615.45 141.34 615.37 140.69 615.64 140.5L616.37 140.38C617.79 140.15 617.83 139.8 617.83 137.03V131.29C617.83 129.1 616.83 127.48 614.21 127.48C612.75 127.48 611.48 128.1 610.94 128.83C610.44 129.48 610.36 130.02 610.36 131.14V137.03C610.36 139.8 610.44 140.15 611.82 140.38L612.51 140.5C612.78 140.69 612.7 141.35 612.43 141.46C611.39 141.38 610.27 141.34 608.93 141.34C607.59 141.34 606.39 141.38 605.31 141.46C605.04 141.34 604.96 140.69 605.23 140.5L606.04 140.38C607.46 140.19 607.5 139.8 607.5 137.03V130.29L607.54 130.3Z" fill="#234075"/>
<path d="M630.53 127.8C629.88 127.8 629.84 127.92 629.84 128.72V135.92C629.84 138.15 630.11 140.19 632.65 140.19C633.03 140.19 633.38 140.11 633.69 140C634.04 139.88 634.54 139.46 634.65 139.46C634.96 139.46 635.11 139.88 635.03 140.11C634.34 140.92 632.95 141.88 630.99 141.88C627.68 141.88 626.99 140.03 626.99 137.72V128.9C626.99 127.86 626.95 127.78 626.18 127.78H625.1C624.87 127.63 624.83 127.2 624.98 126.97C626.1 126.62 627.06 126.12 627.44 125.78C627.94 125.32 628.67 124.28 629.06 123.51C629.25 123.43 629.71 123.43 629.87 123.7V125.43C629.87 126.12 629.91 126.16 630.56 126.16H634.83C635.29 126.51 635.21 127.55 634.87 127.78H630.52L630.53 127.8Z" fill="#234075"/>
<path d="M280.8 171.88C281.38 171.69 281.45 171.34 281.45 170.76L281.49 168.99C281.53 167.57 281.07 165.64 278.68 165.64C277.6 165.64 276.29 166.18 276.22 167.37C276.18 167.99 276.14 168.45 275.83 168.68C275.25 169.14 274.21 169.41 273.64 169.41C273.29 169.41 273.1 169.22 273.1 168.87C273.1 166.87 277.45 164.13 280.26 164.13C283.07 164.13 284.38 165.75 284.26 168.63L284.03 175.33C283.95 177.1 284.3 178.68 285.8 178.68C286.18 178.68 286.53 178.56 286.76 178.45C286.95 178.33 287.14 178.18 287.26 178.18C287.41 178.18 287.53 178.41 287.53 178.68C287.53 178.87 286.18 180.37 284.3 180.37C283.38 180.37 282.45 180.02 281.8 179.18C281.65 178.95 281.41 178.64 281.18 178.64C280.91 178.64 280.45 178.99 279.68 179.41C278.83 179.87 277.99 180.37 276.91 180.37C275.83 180.37 274.87 180.06 274.22 179.48C273.49 178.83 273.03 177.86 273.03 176.79C273.03 175.29 273.76 174.4 276.23 173.52L280.81 171.86L280.8 171.88ZM278.41 178.66C279.18 178.66 280.37 178.08 280.76 177.7C281.22 177.24 281.22 176.7 281.26 175.89L281.34 173.62C281.34 173.2 281.19 173.12 280.95 173.12C280.71 173.12 280.06 173.27 279.37 173.5C277.1 174.27 275.98 174.85 275.98 176.35C275.98 177 276.44 178.66 278.41 178.66Z" fill="#234075"/>
<path d="M290.62 168.8C290.62 167.3 290.62 167.11 289.58 166.41L289.23 166.18C289.08 166.03 289.08 165.6 289.27 165.49C290.16 165.18 292.35 164.18 293.12 163.6C293.27 163.6 293.47 163.68 293.54 163.87C293.46 164.76 293.46 165.33 293.46 165.68C293.46 165.91 293.61 166.1 293.88 166.1C295.5 165.1 297.31 164.14 299.27 164.14C302.47 164.14 303.77 166.33 303.77 168.91V175.53C303.77 178.3 303.85 178.69 305.23 178.88L306.08 179C306.35 179.19 306.27 179.85 306 179.96C304.84 179.88 303.73 179.84 302.38 179.84C301.03 179.84 299.84 179.88 298.8 179.96C298.53 179.84 298.45 179.19 298.72 179L299.45 178.88C300.87 178.65 300.91 178.3 300.91 175.53V169.79C300.91 167.6 299.91 165.98 297.29 165.98C295.83 165.98 294.56 166.6 294.02 167.33C293.52 167.98 293.44 168.52 293.44 169.64V175.53C293.44 178.3 293.52 178.65 294.9 178.88L295.59 179C295.86 179.19 295.78 179.85 295.51 179.96C294.47 179.88 293.35 179.84 292.01 179.84C290.67 179.84 289.47 179.88 288.39 179.96C288.12 179.84 288.04 179.19 288.31 179L289.12 178.88C290.54 178.69 290.58 178.3 290.58 175.53V168.79L290.62 168.8Z" fill="#234075"/>
<path d="M322.99 174.23C322.99 177.27 323.03 178.7 324.11 178.7C324.53 178.7 325.19 178.51 325.77 178.32C326.04 178.4 326.08 179.36 325.73 179.55C324.11 179.78 321.73 180.36 320.65 180.78C320.42 180.78 320.23 180.66 320.23 180.47V179.82C320.23 179.24 320.23 178.78 320.15 178.63H320C318.31 179.79 317 180.4 315.15 180.4C310.88 180.4 308.03 177.05 308.03 173.01C308.03 167.62 312.11 164.16 317.35 164.16C318.66 164.16 319.51 164.35 319.93 164.51C320.12 164.51 320.16 164.28 320.16 163.97V158.16C320.16 155.89 320.12 155.66 318.97 154.96L318.58 154.73C318.39 154.61 318.39 154.07 318.58 153.96C319.54 153.65 321.35 153.07 322.74 152.34C322.89 152.34 323.05 152.42 323.12 152.57C323.08 153.73 323 155.65 323 157.34V174.24L322.99 174.23ZM320.14 168.46C320.14 167.69 319.99 167.34 319.72 166.96C319.14 166.15 317.99 165.34 316.49 165.34C312.99 165.34 311.18 168.38 311.18 171.73C311.18 175.08 313.14 178.54 316.92 178.54C317.96 178.54 319.27 178.08 319.88 177.46C320.11 177.23 320.15 176.65 320.15 176.04V168.46H320.14Z" fill="#234075"/>
<path d="M341.67 157.1C344.48 154.91 348.06 153.83 352.06 153.83C354.14 153.83 357.06 154.25 358.87 154.75C359.33 154.87 359.6 154.94 359.95 154.9C359.99 155.78 360.18 158.21 360.49 160.56C360.3 160.83 359.72 160.87 359.45 160.64C358.87 158.02 357.14 155.02 351.56 155.02C345.67 155.02 340.67 158.75 340.67 166.72C340.67 174.69 345.79 179.27 352.1 179.27C357.07 179.27 359.26 176.04 360.15 173.76C360.42 173.57 361 173.64 361.15 173.91C360.88 175.91 359.88 178.45 359.3 179.18C358.84 179.26 358.38 179.41 357.95 179.56C357.1 179.87 354.33 180.45 351.87 180.45C348.41 180.45 345.09 179.76 342.28 177.87C339.2 175.75 336.81 172.25 336.81 167.28C336.81 163.01 338.73 159.35 341.66 157.08L341.67 157.1Z" fill="#234075"/>
<path d="M367.77 175.54C367.77 178.31 367.85 178.7 369.23 178.89L370.15 179.01C370.42 179.2 370.34 179.86 370.07 179.97C368.8 179.89 367.68 179.85 366.34 179.85C365 179.85 363.8 179.89 362.64 179.97C362.37 179.85 362.29 179.2 362.56 179.01L363.45 178.89C364.87 178.7 364.91 178.31 364.91 175.54V158.14C364.91 155.87 364.87 155.64 363.72 154.94L363.34 154.71C363.15 154.59 363.15 154.05 363.34 153.94C364.3 153.63 366.11 153.05 367.5 152.32C367.65 152.32 367.81 152.4 367.89 152.55C367.85 153.71 367.77 155.63 367.77 157.32V175.53V175.54Z" fill="#234075"/>
<path d="M374.43 168.8C374.43 167.3 374.43 167.11 373.39 166.41L373.04 166.18C372.89 166.03 372.89 165.6 373.08 165.49C373.96 165.18 376.16 164.18 377.04 163.6C377.23 163.6 377.39 163.68 377.42 163.83C377.34 165.18 377.27 167.03 377.27 168.6V175.53C377.27 178.3 377.35 178.69 378.73 178.88L379.54 179C379.81 179.19 379.73 179.85 379.46 179.96C378.3 179.88 377.19 179.84 375.84 179.84C374.49 179.84 373.3 179.88 372.22 179.96C371.95 179.84 371.87 179.19 372.14 179L372.95 178.88C374.37 178.69 374.41 178.3 374.41 175.53V168.79L374.43 168.8ZM377.63 157.83C377.63 159.22 376.67 159.83 375.59 159.83C374.4 159.83 373.63 158.94 373.63 157.91C373.63 156.64 374.55 155.83 375.71 155.83C376.87 155.83 377.63 156.75 377.63 157.83Z" fill="#234075"/>
<path d="M404.34 169.96C404.34 167.34 403.18 165.99 400.76 165.99C399.3 165.99 398.1 166.64 397.56 167.34C397.1 167.92 396.98 168.3 396.98 169.65V175.54C396.98 178.31 397.06 178.7 398.44 178.89L399.25 179.01C399.52 179.2 399.44 179.86 399.17 179.97C398.02 179.89 396.9 179.85 395.55 179.85C394.2 179.85 393.12 179.89 392.05 179.97C391.78 179.85 391.7 179.2 391.97 179.01L392.66 178.89C394.08 178.66 394.12 178.31 394.12 175.54V169.96C394.12 167.38 392.96 165.99 390.58 165.99C389 165.99 387.92 166.68 387.35 167.38C386.97 167.84 386.77 168.34 386.77 169.57V175.54C386.77 178.31 386.85 178.66 388.23 178.89L388.92 179.01C389.19 179.2 389.11 179.86 388.84 179.97C387.8 179.89 386.68 179.85 385.34 179.85C384 179.85 382.8 179.89 381.61 179.97C381.34 179.85 381.26 179.2 381.53 179.01L382.45 178.89C383.87 178.7 383.91 178.31 383.91 175.54V168.8C383.91 167.3 383.91 167.11 382.87 166.41L382.52 166.18C382.37 166.03 382.37 165.6 382.56 165.49C383.44 165.18 385.64 164.18 386.41 163.6C386.56 163.6 386.76 163.68 386.83 163.87C386.75 164.76 386.75 165.33 386.75 165.68C386.75 165.91 386.9 166.1 387.17 166.1C388.63 165.06 390.44 164.14 392.29 164.14C394.14 164.14 395.29 164.83 396.37 166.41C396.72 166.49 396.99 166.33 397.33 166.1C398.87 165.02 400.76 164.14 402.57 164.14C405.65 164.14 407.15 166.26 407.15 168.91V175.53C407.15 178.3 407.23 178.69 408.61 178.88L409.53 179C409.8 179.19 409.72 179.85 409.45 179.96C408.18 179.88 407.06 179.84 405.72 179.84C404.38 179.84 403.29 179.88 402.22 179.96C401.95 179.84 401.87 179.19 402.14 179L402.83 178.88C404.25 178.65 404.29 178.3 404.29 175.53V169.95L404.34 169.96Z" fill="#234075"/>
<path d="M419.2 171.88C419.78 171.69 419.85 171.34 419.85 170.76L419.89 168.99C419.93 167.57 419.47 165.64 417.08 165.64C416 165.64 414.69 166.18 414.62 167.37C414.58 167.99 414.54 168.45 414.24 168.68C413.66 169.14 412.62 169.41 412.05 169.41C411.7 169.41 411.51 169.22 411.51 168.87C411.51 166.87 415.86 164.13 418.67 164.13C421.48 164.13 422.79 165.75 422.67 168.63L422.44 175.33C422.36 177.1 422.71 178.68 424.21 178.68C424.59 178.68 424.94 178.56 425.17 178.45C425.36 178.33 425.56 178.18 425.67 178.18C425.82 178.18 425.94 178.41 425.94 178.68C425.94 178.87 424.59 180.37 422.71 180.37C421.79 180.37 420.86 180.02 420.21 179.18C420.06 178.95 419.83 178.64 419.59 178.64C419.32 178.64 418.86 178.99 418.09 179.41C417.24 179.87 416.4 180.37 415.32 180.37C414.24 180.37 413.28 180.06 412.63 179.48C411.9 178.83 411.44 177.86 411.44 176.79C411.44 175.29 412.17 174.4 414.64 173.52L419.22 171.86L419.2 171.88ZM416.81 178.66C417.58 178.66 418.77 178.08 419.16 177.7C419.62 177.24 419.62 176.7 419.66 175.89L419.74 173.62C419.74 173.2 419.59 173.12 419.36 173.12C419.13 173.12 418.47 173.27 417.78 173.5C415.51 174.27 414.39 174.85 414.39 176.35C414.39 177 414.85 178.66 416.82 178.66H416.81Z" fill="#234075"/>
<path d="M432.18 166.3C431.53 166.3 431.49 166.42 431.49 167.22V174.42C431.49 176.65 431.76 178.69 434.3 178.69C434.68 178.69 435.03 178.61 435.34 178.5C435.69 178.38 436.19 177.96 436.3 177.96C436.61 177.96 436.76 178.38 436.68 178.61C435.99 179.42 434.6 180.38 432.64 180.38C429.33 180.38 428.64 178.53 428.64 176.22V167.4C428.64 166.36 428.6 166.28 427.83 166.28H426.75C426.52 166.13 426.48 165.7 426.63 165.47C427.75 165.12 428.71 164.62 429.09 164.28C429.59 163.82 430.32 162.78 430.71 162.01C430.9 161.93 431.36 161.93 431.52 162.2V163.93C431.52 164.62 431.56 164.66 432.21 164.66H436.48C436.94 165.01 436.86 166.05 436.52 166.28H432.17L432.18 166.3Z" fill="#234075"/>
<path d="M441.69 169.99C440.69 169.99 440.65 170.07 440.65 171.03C440.65 174.92 442.92 178.23 447.04 178.23C448.31 178.23 449.39 177.85 450.58 176.34C450.97 176.22 451.23 176.46 451.27 176.8C450 179.42 447.23 180.38 445.23 180.38C442.73 180.38 440.76 179.3 439.65 177.84C438.5 176.34 438.03 174.53 438.03 172.84C438.03 168.1 441.15 164.14 445.77 164.14C449.08 164.14 451.24 166.41 451.24 168.72C451.24 169.26 451.16 169.57 451.09 169.72C450.97 169.95 450.44 169.99 448.82 169.99H441.7H441.69ZM444.08 168.83C446.93 168.83 447.78 168.68 448.08 168.45C448.2 168.37 448.31 168.22 448.31 167.72C448.31 166.64 447.58 165.3 445.35 165.3C443.12 165.3 441.12 167.38 441.08 168.65C441.08 168.73 441.08 168.84 441.35 168.84H444.08V168.83Z" fill="#234075"/>
<path d="M465.71 160.25C465.71 156.59 465.59 155.94 464.02 155.75L462.79 155.6C462.52 155.41 462.52 154.79 462.83 154.64C464.99 154.45 467.64 154.33 471.41 154.33C473.8 154.33 476.07 154.52 477.84 155.49C479.69 156.45 481.04 158.18 481.04 160.88C481.04 164.54 478.15 166.54 476.23 167.31C476.04 167.54 476.23 167.93 476.42 168.23C479.5 173.2 481.54 176.28 484.16 178.47C484.81 179.05 485.78 179.47 486.82 179.55C487.01 179.63 487.05 179.93 486.86 180.09C486.51 180.21 485.9 180.28 485.17 180.28C481.9 180.28 479.93 179.32 477.2 175.43C476.2 174.01 474.62 171.35 473.43 169.62C472.85 168.77 472.24 168.39 470.7 168.39C468.97 168.39 468.89 168.43 468.89 169.24V174.09C468.89 178.13 468.97 178.59 471.2 178.9L472.01 179.02C472.24 179.21 472.16 179.87 471.93 179.98C470.2 179.9 468.89 179.86 467.35 179.86C465.73 179.86 464.35 179.9 462.54 179.98C462.31 179.86 462.23 179.29 462.46 179.02L463.42 178.9C465.65 178.63 465.73 178.13 465.73 174.09V160.27L465.71 160.25ZM468.87 165.76C468.87 166.45 468.87 166.88 468.99 167.03C469.11 167.15 469.68 167.22 471.65 167.22C473.04 167.22 474.5 167.07 475.61 166.22C476.65 165.41 477.54 164.06 477.54 161.45C477.54 158.41 475.65 155.52 471.38 155.52C468.99 155.52 468.88 155.67 468.88 156.75V165.76H468.87Z" fill="#234075"/>
<path d="M489.77 169.99C488.77 169.99 488.73 170.07 488.73 171.03C488.73 174.92 491 178.23 495.12 178.23C496.39 178.23 497.47 177.85 498.66 176.34C499.05 176.22 499.31 176.46 499.35 176.8C498.08 179.42 495.31 180.38 493.31 180.38C490.81 180.38 488.84 179.3 487.73 177.84C486.58 176.34 486.11 174.53 486.11 172.84C486.11 168.1 489.23 164.14 493.85 164.14C497.16 164.14 499.32 166.41 499.32 168.72C499.32 169.26 499.24 169.57 499.17 169.72C499.05 169.95 498.52 169.99 496.9 169.99H489.78H489.77ZM492.16 168.83C495.01 168.83 495.86 168.68 496.16 168.45C496.28 168.37 496.39 168.22 496.39 167.72C496.39 166.64 495.66 165.3 493.43 165.3C491.2 165.3 489.2 167.38 489.16 168.65C489.16 168.73 489.16 168.84 489.43 168.84H492.16V168.83Z" fill="#234075"/>
<path d="M508.75 171.88C509.33 171.69 509.4 171.34 509.4 170.76L509.44 168.99C509.48 167.57 509.02 165.64 506.63 165.64C505.55 165.64 504.24 166.18 504.17 167.37C504.13 167.99 504.09 168.45 503.79 168.68C503.21 169.14 502.17 169.41 501.6 169.41C501.25 169.41 501.06 169.22 501.06 168.87C501.06 166.87 505.41 164.13 508.22 164.13C511.03 164.13 512.34 165.75 512.22 168.63L511.99 175.33C511.91 177.1 512.26 178.68 513.76 178.68C514.14 178.68 514.49 178.56 514.72 178.45C514.91 178.33 515.11 178.18 515.22 178.18C515.37 178.18 515.49 178.41 515.49 178.68C515.49 178.87 514.14 180.37 512.26 180.37C511.34 180.37 510.41 180.02 509.76 179.18C509.61 178.95 509.38 178.64 509.14 178.64C508.87 178.64 508.41 178.99 507.64 179.41C506.79 179.87 505.95 180.37 504.87 180.37C503.79 180.37 502.83 180.06 502.18 179.48C501.45 178.83 500.99 177.86 500.99 176.79C500.99 175.29 501.72 174.4 504.19 173.52L508.77 171.86L508.75 171.88ZM506.36 178.66C507.13 178.66 508.32 178.08 508.71 177.7C509.17 177.24 509.17 176.7 509.21 175.89L509.29 173.62C509.29 173.2 509.14 173.12 508.91 173.12C508.68 173.12 508.02 173.27 507.33 173.5C505.06 174.27 503.94 174.85 503.94 176.35C503.94 177 504.4 178.66 506.37 178.66H506.36Z" fill="#234075"/>
<path d="M531.12 174.23C531.12 177.27 531.16 178.7 532.24 178.7C532.66 178.7 533.32 178.51 533.9 178.32C534.17 178.4 534.21 179.36 533.86 179.55C532.24 179.78 529.86 180.36 528.78 180.78C528.55 180.78 528.36 180.66 528.36 180.47V179.82C528.36 179.24 528.36 178.78 528.28 178.63H528.13C526.44 179.79 525.13 180.4 523.28 180.4C519.01 180.4 516.16 177.05 516.16 173.01C516.16 167.62 520.24 164.16 525.48 164.16C526.79 164.16 527.64 164.35 528.06 164.51C528.25 164.51 528.29 164.28 528.29 163.97V158.16C528.29 155.89 528.25 155.66 527.1 154.96L526.71 154.73C526.52 154.61 526.52 154.07 526.71 153.96C527.67 153.65 529.48 153.07 530.87 152.34C531.02 152.34 531.18 152.42 531.25 152.57C531.21 153.73 531.13 155.65 531.13 157.34V174.24L531.12 174.23ZM528.27 168.46C528.27 167.69 528.12 167.34 527.85 166.96C527.27 166.15 526.12 165.34 524.62 165.34C521.12 165.34 519.31 168.38 519.31 171.73C519.31 175.08 521.27 178.54 525.05 178.54C526.09 178.54 527.4 178.08 528.01 177.46C528.24 177.23 528.28 176.65 528.28 176.04V168.46H528.27Z" fill="#234075"/>
<path d="M537.78 168.8C537.78 167.3 537.78 167.11 536.74 166.41L536.39 166.18C536.24 166.03 536.24 165.6 536.43 165.49C537.31 165.18 539.51 164.18 540.39 163.6C540.58 163.6 540.74 163.68 540.77 163.83C540.69 165.18 540.62 167.03 540.62 168.6V175.53C540.62 178.3 540.7 178.69 542.08 178.88L542.89 179C543.16 179.19 543.08 179.85 542.81 179.96C541.65 179.88 540.54 179.84 539.19 179.84C537.84 179.84 536.65 179.88 535.57 179.96C535.3 179.84 535.22 179.19 535.49 179L536.3 178.88C537.72 178.69 537.76 178.3 537.76 175.53V168.79L537.78 168.8ZM540.98 157.83C540.98 159.22 540.02 159.83 538.94 159.83C537.75 159.83 536.98 158.94 536.98 157.91C536.98 156.64 537.9 155.83 539.06 155.83C540.22 155.83 540.98 156.75 540.98 157.83Z" fill="#234075"/>
<path d="M547.29 168.8C547.29 167.3 547.29 167.11 546.25 166.41L545.9 166.18C545.75 166.03 545.75 165.6 545.94 165.49C546.82 165.18 549.02 164.18 549.79 163.6C549.94 163.6 550.14 163.68 550.21 163.87C550.13 164.76 550.13 165.33 550.13 165.68C550.13 165.91 550.28 166.1 550.55 166.1C552.17 165.1 553.98 164.14 555.94 164.14C559.14 164.14 560.44 166.33 560.44 168.91V175.53C560.44 178.3 560.52 178.69 561.9 178.88L562.75 179C563.02 179.19 562.94 179.85 562.67 179.96C561.51 179.88 560.4 179.84 559.05 179.84C557.7 179.84 556.51 179.88 555.47 179.96C555.2 179.84 555.12 179.19 555.39 179L556.12 178.88C557.54 178.65 557.58 178.3 557.58 175.53V169.79C557.58 167.6 556.58 165.98 553.96 165.98C552.5 165.98 551.23 166.6 550.69 167.33C550.19 167.98 550.11 168.52 550.11 169.64V175.53C550.11 178.3 550.19 178.65 551.57 178.88L552.26 179C552.53 179.19 552.45 179.85 552.18 179.96C551.14 179.88 550.02 179.84 548.68 179.84C547.34 179.84 546.14 179.88 545.06 179.96C544.79 179.84 544.71 179.19 544.98 179L545.79 178.88C547.21 178.69 547.25 178.3 547.25 175.53V168.79L547.29 168.8Z" fill="#234075"/>
<path d="M568.35 169.99C567.35 169.99 567.31 170.07 567.31 171.03C567.31 174.92 569.58 178.23 573.7 178.23C574.97 178.23 576.05 177.85 577.24 176.34C577.63 176.22 577.89 176.46 577.93 176.8C576.66 179.42 573.89 180.38 571.89 180.38C569.39 180.38 567.42 179.3 566.31 177.84C565.16 176.34 564.69 174.53 564.69 172.84C564.69 168.1 567.81 164.14 572.43 164.14C575.74 164.14 577.9 166.41 577.9 168.72C577.9 169.26 577.82 169.57 577.75 169.72C577.63 169.95 577.1 169.99 575.48 169.99H568.36H568.35ZM570.74 168.83C573.59 168.83 574.44 168.68 574.74 168.45C574.86 168.37 574.97 168.22 574.97 167.72C574.97 166.64 574.24 165.3 572.01 165.3C569.78 165.3 567.78 167.38 567.74 168.65C567.74 168.73 567.74 168.84 568.01 168.84H570.74V168.83Z" fill="#234075"/>
<path d="M588.76 164.84C589.11 165.69 589.38 166.92 589.38 167.96C589.23 168.23 588.65 168.31 588.46 168.08C587.81 166.39 586.65 165.27 585.07 165.27C583.49 165.27 582.61 166.23 582.61 167.62C582.61 169.2 584.23 170.04 585.57 170.82C587.61 171.98 589.5 173.28 589.5 176.02C589.5 178.95 586.8 180.41 583.96 180.41C582.15 180.41 580.8 180.03 579.84 179.25C579.53 178.52 579.3 176.63 579.38 175.36C579.57 175.13 580.07 175.09 580.26 175.32C580.92 177.44 582.15 179.29 584.34 179.29C585.73 179.29 586.92 178.48 586.92 176.83C586.92 175.06 585.38 174.1 583.96 173.29C581.73 172.02 580.15 170.67 580.15 168.55C580.15 165.74 582.46 164.16 585.39 164.16C587.01 164.16 588.43 164.54 588.78 164.85L588.76 164.84Z" fill="#234075"/>
<path d="M600.81 164.84C601.16 165.69 601.43 166.92 601.43 167.96C601.28 168.23 600.7 168.31 600.51 168.08C599.86 166.39 598.7 165.27 597.12 165.27C595.54 165.27 594.66 166.23 594.66 167.62C594.66 169.2 596.28 170.04 597.62 170.82C599.66 171.98 601.55 173.28 601.55 176.02C601.55 178.95 598.85 180.41 596.01 180.41C594.2 180.41 592.85 180.03 591.89 179.25C591.58 178.52 591.35 176.63 591.43 175.36C591.62 175.13 592.12 175.09 592.31 175.32C592.97 177.44 594.2 179.29 596.39 179.29C597.78 179.29 598.97 178.48 598.97 176.83C598.97 175.06 597.43 174.1 596.01 173.29C593.78 172.02 592.2 170.67 592.2 168.55C592.2 165.74 594.51 164.16 597.44 164.16C599.06 164.16 600.48 164.54 600.83 164.85L600.81 164.84Z" fill="#234075"/>
<path d="M73.1199 131.62C73.1199 128.95 72.9299 128.24 71.1299 128.1L69.8799 128.01C69.6799 127.85 69.7299 127.12 69.9199 127.11C72.0799 126.92 74.8099 126.82 78.5399 126.82C81.0599 126.82 83.4699 127 85.2699 127.83C86.9899 128.59 88.3199 130.03 88.3199 132.34C88.3199 134.94 86.6399 136.28 84.2299 137.28C84.2299 137.64 84.5499 137.75 84.9899 137.82C87.1499 138.18 90.3599 139.99 90.3599 143.85C90.3599 148.04 86.9099 150.86 79.6999 150.86C78.5399 150.86 76.5699 150.75 74.8899 150.75C73.2099 150.75 71.7599 150.82 70.2799 150.86C70.0399 150.75 69.9599 150.17 70.1999 149.96L70.9199 149.85C73.0399 149.52 73.1199 149.13 73.1199 145.34V131.62ZM76.4099 136.42C76.4099 137.43 76.4499 137.5 78.4899 137.43C82.5799 137.28 84.7799 136.2 84.7799 132.81C84.7799 129.42 81.8499 127.94 78.8099 127.94C77.9299 127.94 77.3299 128.01 76.9699 128.16C76.5699 128.27 76.4099 128.45 76.4099 129.1V136.43V136.42ZM76.4099 144.8C76.4099 146.1 76.4899 147.94 77.2499 148.74C78.0099 149.57 79.2099 149.75 80.4199 149.75C83.9899 149.75 86.7099 148.31 86.7099 144.7C86.7099 141.85 85.1099 138.52 78.7299 138.52C76.5699 138.52 76.4099 138.74 76.4099 139.46V144.8Z" fill="#234075"/>
<path d="M118.21 135.17C118.21 131.9 118.14 131.38 116.12 131.22L115.26 131.16C115.06 131.04 115.12 130.48 115.33 130.39C117.04 130.45 118.21 130.48 119.64 130.48C121.07 130.48 122.17 130.45 123.88 130.39C124.09 130.48 124.15 131.04 123.95 131.16L123.09 131.22C121.07 131.38 121 131.9 121 135.17V146.15C121 149.42 121.07 149.85 123.09 150.07L123.95 150.16C124.16 150.28 124.09 150.84 123.88 150.93C122.17 150.87 121 150.84 119.64 150.84C118.2 150.84 117.04 150.87 115.33 150.93C115.13 150.84 115.06 150.35 115.26 150.16L116.12 150.07C118.14 149.86 118.21 149.42 118.21 146.15V135.17Z" fill="#234075"/>
<path d="M137.21 146.21C137.21 149.45 137.27 149.91 139.13 150.07L140.16 150.16C140.35 150.28 140.29 150.84 140.1 150.93C138.27 150.87 137.18 150.84 135.9 150.84C134.62 150.84 133.49 150.87 131.44 150.93C131.25 150.84 131.18 150.31 131.44 150.16L132.6 150.07C134.43 149.91 134.59 149.45 134.59 146.21V132.42C134.59 131.47 134.59 131.44 133.63 131.44H131.87C130.49 131.44 128.73 131.5 127.92 132.21C127.15 132.89 126.83 133.57 126.48 134.34C126.22 134.53 125.78 134.37 125.65 134.13C126.16 132.74 126.65 130.77 126.87 129.53C126.97 129.47 127.38 129.44 127.48 129.53C127.67 130.52 128.73 130.49 130.21 130.49H143.2C144.93 130.49 145.22 130.43 145.7 129.63C145.86 129.57 146.21 129.6 146.28 129.72C145.93 130.98 145.7 133.48 145.8 134.41C145.67 134.66 145.13 134.66 144.97 134.47C144.87 133.7 144.65 132.56 144.17 132.22C143.43 131.7 142.21 131.45 140.45 131.45H138.17C137.21 131.45 137.24 131.48 137.24 132.5V146.22L137.21 146.21Z" fill="#234075"/>
<path d="M150.95 135.17C150.95 131.9 150.88 131.38 148.86 131.22L148 131.16C147.79 131.04 147.86 130.48 148.07 130.39C149.78 130.45 150.95 130.48 152.38 130.48C153.81 130.48 154.91 130.45 156.62 130.39C156.83 130.48 156.89 131.04 156.69 131.16L155.83 131.22C153.81 131.38 153.74 131.9 153.74 135.17V146.15C153.74 149.42 153.81 149.85 155.83 150.07L156.69 150.16C156.89 150.28 156.83 150.84 156.62 150.93C154.91 150.87 153.74 150.84 152.38 150.84C150.94 150.84 149.78 150.87 148.07 150.93C147.86 150.84 147.8 150.35 148 150.16L148.86 150.07C150.88 149.86 150.95 149.42 150.95 146.15V135.17Z" fill="#234075"/>
<path d="M166.3 151.25C163.24 151.25 161.31 150.45 160.62 150.11C160.18 149.43 159.71 147.24 159.64 145.79C159.82 145.57 160.37 145.51 160.51 145.7C161.05 147.27 162.55 150.29 166.77 150.29C169.83 150.29 171.32 148.6 171.32 146.75C171.32 145.39 170.99 143.88 168.34 142.43L164.88 140.52C163.06 139.5 160.95 137.74 160.95 135.21C160.95 132.28 163.64 129.91 168.37 129.91C169.5 129.91 170.81 130.1 171.75 130.31C172.22 130.43 172.73 130.49 173.02 130.49C173.35 131.23 173.68 132.96 173.68 134.25C173.53 134.44 172.95 134.53 172.77 134.34C172.3 132.86 171.31 130.85 167.82 130.85C164.33 130.85 163.49 132.85 163.49 134.27C163.49 136.06 165.24 137.36 166.58 138.06L169.49 139.6C171.78 140.8 174.04 142.59 174.04 145.52C174.04 148.91 171.02 151.23 166.29 151.23L166.3 151.25Z" fill="#234075"/>
<path d="M184.61 140.88C183.02 140.88 182.95 140.94 182.95 141.87V146.22C182.95 149.46 183.12 149.89 184.97 150.08L185.93 150.17C186.13 150.29 186.06 150.85 185.86 150.94C184.07 150.88 182.94 150.85 181.64 150.85C180.21 150.85 179.08 150.91 177.79 150.94C177.59 150.85 177.52 150.36 177.72 150.17L178.28 150.08C180.14 149.77 180.2 149.46 180.2 146.22V135.12C180.2 131.88 179.97 131.36 178.24 131.23L177.38 131.17C177.18 131.05 177.25 130.49 177.45 130.4C179.08 130.43 180.2 130.49 181.63 130.49C182.92 130.49 184.05 130.46 185.48 130.4C185.68 130.49 185.75 131.05 185.55 131.17L184.92 131.23C182.99 131.42 182.93 131.88 182.93 135.12V138.66C182.93 139.62 183 139.65 184.59 139.65H194.08C195.67 139.65 195.74 139.62 195.74 138.66V135.12C195.74 131.88 195.67 131.42 193.71 131.23L193.08 131.17C192.88 131.05 192.95 130.49 193.15 130.4C194.68 130.46 195.81 130.49 197.17 130.49C198.53 130.49 199.59 130.46 201.09 130.4C201.29 130.49 201.36 131.05 201.16 131.17L200.46 131.23C198.54 131.42 198.47 131.88 198.47 135.12V146.22C198.47 149.46 198.54 149.86 200.46 150.08L201.26 150.17C201.46 150.29 201.39 150.85 201.19 150.94C199.6 150.88 198.47 150.85 197.17 150.85C195.81 150.85 194.62 150.88 193.15 150.94C192.95 150.85 192.88 150.36 193.08 150.17L193.71 150.08C195.74 149.77 195.74 149.46 195.74 146.22V141.87C195.74 140.95 195.67 140.88 194.08 140.88H184.59H184.61Z" fill="#234075"/>
<path d="M54.1299 157.71C56.8599 155.59 60.3299 154.55 64.2199 154.55C66.2399 154.55 69.0799 154.96 70.8399 155.44C71.2899 155.55 71.5499 155.63 71.8899 155.59C71.9299 156.45 72.1099 158.79 72.4099 161.06C72.2199 161.32 71.6599 161.36 71.3999 161.13C70.8399 158.6 69.1599 155.69 63.7399 155.69C58.0199 155.69 53.1699 159.3 53.1699 167.01C53.1699 174.72 58.1399 179.15 64.2699 179.15C69.0899 179.15 71.2199 176.02 72.0799 173.82C72.3399 173.63 72.8999 173.71 73.0499 173.97C72.7899 175.91 71.8199 178.36 71.2599 179.07C70.8099 179.15 70.3599 179.29 69.9499 179.44C69.1299 179.74 66.4399 180.3 64.0499 180.3C60.6899 180.3 57.4699 179.63 54.7499 177.8C51.7599 175.75 49.4399 172.36 49.4399 167.56C49.4399 163.43 51.3099 159.89 54.1499 157.69L54.1299 157.71Z" fill="#234075"/>
<path d="M74.5699 169.75C74.5699 163.58 79.4299 158.86 86.0999 158.86C93.5799 158.86 97.3399 164.01 97.3399 169.44C97.3399 175.67 92.3499 180.2 86.0999 180.2C78.9099 180.2 74.5699 175.3 74.5699 169.75ZM94.0999 170.4C94.0999 165.31 91.7399 159.82 85.5499 159.82C82.1799 159.82 77.8099 162.01 77.8099 168.77C77.8099 173.33 80.1399 179.26 86.5199 179.26C90.4099 179.26 94.0999 176.48 94.0999 170.41V170.4Z" fill="#234075"/>
<path d="M133.87 167.1C133.87 165.19 133.8 161.64 133.25 160.72C133.02 160.35 132.43 160.13 131.62 160.07L130.8 160.01C130.6 159.79 130.67 159.39 130.86 159.27C132.1 159.33 133.31 159.36 134.59 159.36C135.96 159.36 136.85 159.33 138.02 159.27C138.28 159.42 138.25 159.82 138.09 160.01L137.3 160.07C136.48 160.13 135.86 160.41 135.67 160.81C135.21 161.83 135.21 165.37 135.21 167.1V170.59C135.21 173.27 134.75 176.11 132.92 177.96C131.51 179.41 129.09 180.21 126.67 180.21C124.41 180.21 122.16 179.81 120.56 178.51C118.83 177.15 118.01 174.9 118.01 171.23V163.95C118.01 160.74 117.94 160.22 116.05 160.07L115.23 160.01C115.03 159.89 115.1 159.36 115.3 159.27C116.93 159.33 118.05 159.36 119.35 159.36C120.65 159.36 121.77 159.33 123.37 159.27C123.57 159.36 123.63 159.89 123.44 160.01L122.65 160.07C120.75 160.22 120.69 160.75 120.69 163.95V170.61C120.69 175.58 122.32 178.85 127.33 178.85C132.07 178.85 133.87 175.33 133.87 170.65V167.1Z" fill="#234075"/>
<path d="M171.87 163.25C171.87 160.95 171.72 160.35 170.1 160.23L168.94 160.12C168.81 160 168.74 159.38 168.98 159.36C170.93 159.21 173.39 159.11 176.75 159.11C179.03 159.11 181.19 159.27 182.82 159.98C184.37 160.63 185.56 161.88 185.56 163.87C185.56 166.11 184.04 167.27 181.88 168.14C181.88 168.45 182.17 168.55 182.57 168.61C184.52 168.92 187.41 170.48 187.41 173.81C187.41 177.42 184.3 179.85 177.8 179.85C176.75 179.85 174.98 179.76 173.47 179.76C171.96 179.76 170.65 179.82 169.31 179.85C169.09 179.76 169.02 179.26 169.24 179.07L169.89 178.97C171.81 178.69 171.88 178.35 171.88 175.08V163.24L171.87 163.25ZM174.83 167.39C174.83 168.26 174.87 168.32 176.71 168.26C180.4 168.14 182.38 167.2 182.38 164.27C182.38 161.34 179.74 160.07 177 160.07C176.2 160.07 175.66 160.13 175.34 160.26C174.98 160.35 174.84 160.51 174.84 161.07V167.39H174.83ZM174.83 174.62C174.83 175.74 174.9 177.33 175.59 178.01C176.28 178.73 177.36 178.88 178.44 178.88C181.66 178.88 184.11 177.63 184.11 174.52C184.11 172.06 182.66 169.19 176.92 169.19C174.97 169.19 174.82 169.38 174.82 170V174.61L174.83 174.62Z" fill="#234075"/>
<path d="M112.98 150.16L112.12 150.09C111.95 150.07 111.79 150.05 111.65 150.03C110.4 149.81 109.9 148.69 109.31 147.66L106.35 142.5C105.84 141.64 105.29 140.48 104.12 140.32C107.15 139.96 109.89 138.2 109.89 135.2C109.89 131.73 106.45 130.18 102.98 130.18C100.9 130.18 98.9999 130.24 96.8799 130.24C95.7099 130.24 94.3199 130.18 93.1499 130.18C92.4999 130.18 92.4899 130.31 92.4899 130.68C92.4899 131.22 92.7199 131.07 93.3999 131.1C95.8699 131.24 95.7699 131.7 95.7699 133.81V147.33C95.7699 149.26 95.9399 149.84 93.9099 150.02C93.9099 150.02 93.5999 150.05 93.4199 150.07L92.5599 150.16C92.3499 150.34 92.4199 150.84 92.6299 150.93C93.0899 150.91 93.8999 150.88 93.8999 150.88C95.0199 150.85 96.1499 150.76 97.2699 150.76C98.3899 150.76 99.4799 150.85 100.59 150.88C100.99 150.9 101.4 150.91 101.86 150.93C102.07 150.84 102.13 150.34 101.93 150.16L101.06 150.08C100.88 150.06 100.58 150.03 100.58 150.03C98.5299 149.89 98.6499 149.31 98.6499 147.33V142.24C98.6499 141.94 98.6099 141.15 98.8299 140.92C99.0099 140.72 99.3399 140.76 99.6299 140.76C102.41 140.76 102.37 141.02 103.69 143.34L107.27 149.79C107.56 150.29 107.78 150.91 108.51 150.91H111.62C112.01 150.92 112.43 150.93 112.88 150.95C113.09 150.86 113.15 150.37 112.95 150.18L112.98 150.16ZM100.5 140.03C99.8799 140.03 98.6299 140.26 98.6299 139.44V133.52C98.6299 131.21 98.7099 130.88 101.48 130.88C104.73 130.88 106.74 132.53 106.74 135.57C106.74 136.89 106.26 138.11 105.06 138.94C103.67 139.9 102.17 140.03 100.49 140.03H100.5Z" fill="#234075"/>
<path d="M101.17 164.06C101.17 160.82 101.1 160.33 98.97 160.17L98.12 160.11C97.92 159.99 97.98 159.43 98.19 159.34C100.09 159.4 101.24 159.43 102.6 159.43C103.96 159.43 105.08 159.4 106.77 159.34C106.97 159.43 107.04 159.99 106.84 160.11L106.03 160.17C104.03 160.32 103.96 160.82 103.96 164.06V174.79C103.96 176.73 104.06 177.53 104.67 178.12C105.04 178.46 105.69 178.83 108.37 178.83C111.25 178.83 111.97 178.71 112.51 178.43C113.19 178.06 114.07 176.95 114.75 175.38C114.95 175.23 115.6 175.35 115.6 175.57C115.6 175.91 114.65 179.06 114.18 179.89C112.45 179.83 109.23 179.8 105.73 179.8H102.61C101.19 179.8 100.1 179.83 98.2 179.89C98 179.8 97.93 179.3 98.13 179.12L99.15 179.03C101.12 178.84 101.19 178.41 101.19 175.17V164.07L101.17 164.06Z" fill="#234075"/>
<path d="M192.06 164.12C192.06 160.85 191.99 160.33 190.03 160.17L189.2 160.11C189 159.99 189.07 159.43 189.27 159.34C190.94 159.4 192.07 159.43 193.47 159.43C194.87 159.43 195.94 159.4 197.6 159.34C197.8 159.43 197.87 159.99 197.67 160.11L196.84 160.17C194.88 160.32 194.81 160.85 194.81 164.12V175.1C194.81 178.37 194.88 178.8 196.84 179.02L197.67 179.11C197.87 179.23 197.8 179.79 197.6 179.88C195.93 179.82 194.8 179.79 193.47 179.79C192.07 179.79 190.94 179.82 189.27 179.88C189.07 179.79 189 179.29 189.2 179.11L190.03 179.02C192 178.81 192.06 178.37 192.06 175.1V164.12Z" fill="#234075"/>
<path d="M165.44 179.01C165.27 178.99 164.95 178.96 164.95 178.96C164.6 178.92 164.28 178.88 164.03 178.6C163.6 178.14 163.63 176.83 163.63 176.31V162.79C163.63 162.2 163.49 160.93 163.92 160.47C164.14 160.23 164.59 160.19 164.99 160.16C165.23 160.14 165.24 160.14 165.45 160.13L166.31 160.07C166.52 159.95 166.45 159.39 166.24 159.3C165.78 159.32 165.37 159.31 164.97 159.32H161.33C160.93 159.32 160.57 159.32 160.36 159.75L152.94 175.2L146.39 160.28C146.17 159.75 146.14 159.33 145.45 159.33H141.66C141.27 159.32 140.83 159.33 140.37 159.31C140.16 159.4 140.1 159.96 140.3 160.08L141.16 160.14C141.34 160.15 141.66 160.18 141.66 160.18C143.08 160.27 143.17 160.59 143.04 162.08L141.93 176.58C141.83 178.03 141.75 178.8 140.23 178.95C140.23 178.95 139.91 178.99 139.73 179.01L138.87 179.1C138.66 179.28 138.73 179.78 138.94 179.87C139.39 179.85 140.19 179.83 140.19 179.83C140.96 179.79 141.75 179.72 142.54 179.72C143.39 179.72 144.24 179.8 145.09 179.83C145.48 179.84 145.9 179.86 146.36 179.87C146.56 179.78 146.63 179.29 146.43 179.1L145.57 179.01C145.34 178.99 145.09 178.97 145.09 178.97C142.89 178.82 142.94 177.27 143.08 175.37L144.12 161.89H144.37L151.46 178.48C151.53 178.71 151.64 179.1 152 179.1C152.33 179.1 152.43 178.74 152.54 178.51L160.53 161.49H160.78V176.32C160.78 176.91 160.85 178.12 160.24 178.58C159.92 178.82 158.88 178.96 158.88 178.96C158.74 178.98 158.59 179 158.42 179.02L157.56 179.11C157.35 179.29 157.42 179.79 157.63 179.88C158.08 179.87 158.88 179.84 158.88 179.84C160.04 179.81 161.22 179.72 162.4 179.72C163.25 179.72 164.91 179.8 164.91 179.8C165.3 179.81 165.76 179.85 166.21 179.87C166.42 179.78 166.48 179.28 166.28 179.1L165.43 179.01H165.44Z" fill="#234075"/>
<path d="M221.07 179.1L220.96 179.01C220.79 178.99 220.64 178.97 220.49 178.95C219.16 178.65 218.64 177.04 218.14 175.9L211.28 159.65C211.21 159.46 211.08 159.04 210.8 159.04C210.43 159.04 210.32 159.49 210.22 159.75L203.66 175.96C203.42 176.57 202.81 178.06 202.37 178.51C202.03 178.86 201.59 178.92 201.12 178.97C201.12 178.97 200.75 179.01 200.57 179.02L199.76 179.1C199.55 179.28 199.62 179.78 199.83 179.87C200.29 179.86 201.1 179.83 201.1 179.83C202 179.82 202.89 179.71 203.79 179.71C204.54 179.71 205.3 179.79 206.06 179.82C206.06 179.82 206.87 179.85 207.33 179.87C207.54 179.78 207.6 179.28 207.4 179.1L206.54 179.01C206.37 178.99 206.08 178.96 206.08 178.96C205.29 178.87 204.31 178.73 204.31 177.87C204.31 177.29 204.58 176.61 204.79 176.09L205.81 173.66C206.32 172.5 206.12 172.36 207.47 172.36H212.09C213.72 172.36 213.48 172.36 214.2 174.01L215.29 176.47C215.46 176.89 215.77 177.6 215.77 178.06C215.77 178.87 214.88 178.93 214.05 179C214.05 179 213.78 179.02 213.54 179.04L212.72 179.1C212.51 179.28 212.58 179.78 212.79 179.87C213.25 179.85 214.06 179.82 214.06 179.82C215.03 179.78 216 179.71 216.93 179.71C218.12 179.71 219.31 179.79 220.5 179.82C220.89 179.83 220.56 179.85 221.01 179.86C221.21 179.77 221.28 179.27 221.08 179.09L221.07 179.1ZM212.08 171.46H208.08C207.94 171.46 206.83 171.59 206.83 171.26C206.83 171.16 206.9 170.97 206.93 170.87L209.33 164.92C209.4 164.76 209.64 163.94 209.92 163.94C210.13 163.94 210.41 164.79 210.48 164.92L212.85 170.48C212.85 170.55 213.09 171.07 213.09 171.2C213.09 171.56 212.29 171.46 212.08 171.46Z" fill="#234075"/>
<path d="M87.3 108.79C108.98 108.79 138.97 121 160.73 121C176.26 121 191.41 116.86 200.04 110.75C200.64 107.17 200.96 103.49 200.96 99.73C200.96 63.29 171.42 33.75 134.98 33.75C98.54 33.75 69 63.29 69 99.73C69 103.44 69.31 107.08 69.9 110.62C72.28 110.18 80.36 108.78 87.29 108.78L87.3 108.79Z" fill="white"/>
<path d="M177.61 84.48L180.22 85.56L186 81.53L177.61 84.48Z" fill="#E3A82B"/>
<path d="M80.4001 79.9701L73.5401 77.5601L73.8801 76.7201L81.6001 79.3001L81.6301 79.2801L82.6501 78.7001L83.0601 78.4501L74.6401 74.8701L75.0001 73.9901L93.8001 81.5901L94.4201 81.3301L75.7801 72.2501L76.2001 71.4001L95.9501 80.5901L96.2201 80.4501L77.0701 69.5901L77.4601 68.7701L105.12 83.8201C105.35 83.4001 105.82 82.6401 106.07 82.2301C95.5501 72.3401 85.4101 64.9201 85.4101 64.9201C85.4101 64.9201 95.8501 71.9101 108.73 78.4101C109.16 77.8801 109.5 77.4501 109.96 76.9501L86.3601 56.1801L86.9901 55.5301L106.04 71.7601L88.4001 54.0901L89.0601 53.4101L108.87 72.5501L90.4301 52.0801L91.1401 51.4401L108.18 69.6901L92.6301 50.0901L93.3001 49.4801L113.24 73.7501C113.75 73.3001 114.18 72.9701 114.72 72.5601C108.69 59.5101 102.1 48.8901 102.1 48.8901C102.1 48.8901 109.11 59.2101 118.57 70.0201C119.15 69.7001 119.73 69.3801 120.33 69.0901L120.23 69.0201L106.26 41.1301L107.09 40.7601L118.67 62.9401L108.93 39.9501L109.8 39.5601L121 64.7301L111.57 38.8501L112.46 38.5201L121.43 61.8301L114.35 37.8301L115.2 37.5201L124.52 67.2901L124.5 67.3701H124.52C125.14 67.1501 125.77 66.9701 126.4 66.8001C125.69 52.5001 123.58 40.2701 123.58 40.2701C123.58 40.2701 126.2 52.3901 130.89 65.9101C131.54 65.8301 132.2 65.7601 132.87 65.7201L132.85 65.6901H132.93L132.88 65.6201L130.37 34.5301L131.28 34.5001L133.7 59.4101L133.28 34.4401L134.23 34.4101L135.18 61.9401L136.13 34.4101L137.08 34.4401L136.66 59.4101L139.08 34.5001L139.99 34.5301L137.48 65.6201L137.43 65.6901H137.47C138.12 65.7301 138.76 65.8001 139.4 65.8701C144.09 52.3701 146.7 40.2601 146.7 40.2601C146.7 40.2601 144.59 52.4501 143.88 66.7201C144.52 66.8901 145.15 67.0801 145.78 67.2801L155.07 37.6201L155.92 37.9301L148.84 61.9301L157.81 38.6301L158.7 38.9601L149.27 64.8401L160.46 39.6701L161.33 40.0601L151.59 63.0501L163.17 40.8701L164 41.2401L150.08 69.0301H150.1C150.67 69.3201 151.24 69.6201 151.79 69.9301C161.21 59.1601 168.18 48.9001 168.18 48.9001C168.18 48.9001 161.64 59.4401 155.62 72.4301C156.16 72.8401 156.68 73.2601 157.19 73.6901L176.89 49.6901L177.56 50.3001L162 69.9001L179.04 51.6501L179.74 52.2901L161.3 72.7601L181.11 53.6101L181.77 54.2901L164.13 71.9601L183.17 55.7301L183.8 56.3801L160.49 76.9201H160.5C160.91 77.3901 161.3 77.8601 161.68 78.3301C174.48 71.8601 184.82 64.9301 184.82 64.9301C184.82 64.9301 174.77 72.2801 164.31 82.1001C164.6 82.5801 165.06 83.4001 165.32 83.8901L192.59 69.0401L192.99 69.8601L171.22 82.2001L193.86 71.6601L194.27 72.5101L173.18 82.7801L173.59 82.9201L195.05 74.2401L195.41 75.1201L175.47 83.6001L175.84 83.7501L189.13 79.3201L191.13 77.9201L191.79 78.4301L196.16 76.9701L196.5 77.8101L192.72 79.1401L198.19 83.3101L199.94 84.2901C192.91 54.9101 166.48 33.0701 134.95 33.0701C103.42 33.0701 76.0601 55.6901 69.6101 85.8501C69.6901 85.8101 69.7701 85.7701 69.8601 85.7301L70.6601 85.3701L71.1501 85.1401L80.3701 79.9701H80.4001Z" fill="#E3A82B"/>
<path d="M69.2599 112.05C69.2599 112.05 79.1199 110.08 87.3499 110.08C109.03 110.08 139.02 122.29 160.78 122.29C176.74 122.29 192.31 117.91 200.8 111.53C201.46 107.75 201.81 103.87 201.81 99.9C201.81 94.53 201.17 89.3 199.97 84.3L190.9 79.24L180.26 86.71L173.1 83.92C170.68 85.14 155.72 95.15 155.72 95.15L149.98 91L143.82 89.78L135.61 83.8L126.19 90.27C126.19 90.27 115.68 96.37 115.32 96.37C114.96 96.37 102.64 86.61 102.64 86.61L96.9699 80.63C95.9999 81.24 92.1399 83.01 92.1399 83.01L91.9399 83.06L88.2099 81.9L83.6699 79.49L69.8899 85.74C69.8099 85.78 69.7299 85.82 69.6399 85.86C68.6699 90.39 68.1599 95.09 68.1599 99.91C68.1599 104.06 68.5399 108.12 69.2699 112.06L69.2599 112.05Z" fill="#234075"/>
<path d="M248.32 32.79H246.77V179.92H248.32V32.79Z" fill="#E3A82B"/>
</svg>