<svg width="13" height="12" viewBox="0 0 13 12" fill="none" xmlns="http://www.w3.org/2000/svg">
<path d="M12.5 6C12.5 9.31444 9.81348 12 6.5 12C3.18652 12 0.5 9.31444 0.5 6C0.5 2.68749 3.18652 0 6.5 0C9.81348 0 12.5 2.68749 12.5 6ZM6.66101 1.98387C5.34253 1.98387 4.50161 2.53928 3.84127 3.5264C3.75573 3.65429 3.78435 3.82677 3.90696 3.91974L4.74645 4.55627C4.87238 4.65177 5.0518 4.62905 5.14964 4.50494C5.58183 3.95676 5.87818 3.63888 6.536 3.63888C7.03025 3.63888 7.6416 3.95698 7.6416 4.43625C7.6416 4.79857 7.34249 4.98465 6.85448 5.25825C6.28536 5.57729 5.53226 5.97438 5.53226 6.96774V7.06452C5.53226 7.22485 5.66225 7.35484 5.82258 7.35484H7.17742C7.33775 7.35484 7.46774 7.22485 7.46774 7.06452V7.03227C7.46774 6.34367 9.48031 6.315 9.48031 4.45161C9.48031 3.04834 8.0247 1.98387 6.66101 1.98387ZM6.5 7.98387C5.88633 7.98387 5.3871 8.4831 5.3871 9.09677C5.3871 9.71042 5.88633 10.2097 6.5 10.2097C7.11367 10.2097 7.6129 9.71042 7.6129 9.09677C7.6129 8.4831 7.11367 7.98387 6.5 7.98387Z" fill="#1A5A96"/>
</svg>
